<svg xmlns="http://www.w3.org/2000/svg" xmlns:xlink="http://www.w3.org/1999/xlink" viewBox="0 0 223.27 255.26"><defs><style>.cls-1{fill:none;}.cls-2{isolation:isolate;}.cls-3{fill:#643f4f;}.cls-4{fill:#4c2a3a;}.cls-5{fill:#90696e;}.cls-6{fill:#f6d1b4;}.cls-7{fill:#f8e0be;}.cls-8{fill:#edac8f;}.cls-9{fill:#fbebd2;}.cls-10{opacity:0.5;}.cls-11{clip-path:url(#clip-path);}.cls-12{opacity:0.4;mix-blend-mode:multiply;}.cls-13{opacity:0.87;mix-blend-mode:overlay;fill:url(#radial-gradient);}</style>
<style>
  @keyframes alarm {
    0%, 20% {
        transform: rotate(0);
    }
    2%, 18% {
        transform: rotate(-0.5deg);
    }
    4%, 16% {
        transform: rotate(0.5deg);
    }
    6%, 10%, 14% {
        transform: rotate(-1deg);
    }
    8%, 12% {
        transform: rotate(1deg);
    }
  }
  .alarm {
    transform-origin: 50% 0;
    animation-name: alarm;
    animation-duration: 3s;
    animation-iteration-count: infinite;
    animation-timing-function: cubic-bezier(.36,.07,.19,.97) both;
    animation-fill-mode: both;
  }
  @keyframes alarm-hand__part {
      from {
          transform: rotate(0);
      }
      to {
          transform: rotate(360deg);
      }
  }
  .alarm-hand__part {
    transform-origin: 116.37px 133.95px;
    animation-name: alarm-hand__part;
    animation-iteration-count: infinite;
    animation-timing-function: linear;
  }
  .alarm-big-hand__part {
    animation-duration: 3s;
  }
  .alarm-small-hand__part {
    animation-duration: 36s;
  }
  .alarm-big-hand__head {
  }
  .alarm-big-hand__body {
  }
  .alarm-small-hand__head {
  }
  .alarm-small-hand__body {
  }
</style>
<clipPath id="clip-path"><path class="cls-1" d="M73.86,164A52,52,0,1,0,64,127.51,51.82,51.82,0,0,0,73.86,164Z"/></clipPath><radialGradient id="radial-gradient" cx="126.28" cy="10.25" r="82.29" gradientTransform="translate(-6.34 86.26) rotate(6.12)" gradientUnits="userSpaceOnUse"><stop offset="0" stop-color="#c38c6d"/><stop offset="0.99" stop-color="#4b5a92"/></radialGradient></defs><title>Asset 1</title><g class="cls-2 alarm"><g id="Layer_2" data-name="Layer 2"><g id="_6-7" data-name="6-7"><path class="cls-3" d="M182.32,62.09c-12.27-1.32-14.23-9-16.31-17.21C163.1,33.42,159.8,20.42,128.09,17s-37.7,8.6-43,19.18c-3.76,7.55-7.31,14.68-19.59,13.36a1.48,1.48,0,0,1,.32-2.95c10.22,1.1,12.9-4.29,16.62-11.74C87.89,24,94.63,10.46,128.4,14.08s37.49,18.29,40.48,30.07c2,8.07,3.53,13.9,13.75,15a1.48,1.48,0,1,1-.32,2.95Z"/><path class="cls-4" d="M131.54,65.45s16.85,11.35,22.82,15.71,25,19.18,25,19.18a29.6,29.6,0,1,0-47.81-34.89Z"/><circle class="cls-3" cx="178.01" cy="51.87" r="3.46" transform="translate(31.18 165.09) rotate(-53.88)"/><rect class="cls-3" x="163.63" y="46.85" width="4.04" height="43.9" transform="translate(258.9 222.02) rotate(-143.88)"/><path class="cls-5" d="M151.08,85.34l1.69,1.23,27.29-37.5a3.46,3.46,0,0,0-5.33,3.87Z"/><circle class="cls-3" cx="178.01" cy="51.87" r="2.27" transform="translate(31.18 165.09) rotate(-53.88)"/><path class="cls-6" d="M179.84,53.21s0-.11.11-.29a2.55,2.55,0,0,0,.14-.76,2.29,2.29,0,0,0-.5-1.49,2.26,2.26,0,0,0-.41-.39,2.22,2.22,0,0,0-.52-.29,2.46,2.46,0,0,0-.55-.13,2.43,2.43,0,0,0-1,.11,2.54,2.54,0,0,0-.68.36l-.24.19,0-.07a1.33,1.33,0,0,1,.12-.2,2,2,0,0,1,.62-.59,2.27,2.27,0,0,1,1.19-.33,2.36,2.36,0,0,1,.71.11,2.82,2.82,0,0,1,.65.33,2.72,2.72,0,0,1,.54.54,2.38,2.38,0,0,1,.33.64,2.27,2.27,0,0,1,.05,1.24,2,2,0,0,1-.37.77,1.3,1.3,0,0,1-.15.17Z"/><path class="cls-3" d="M131.54,65.45s18.65,9.9,24.62,14.26,23.19,20.63,23.19,20.63a29.6,29.6,0,1,0-47.81-34.89Z"/><path class="cls-5" d="M131.54,65.45,134,66.75c9.71-12.83,25.86-17.29,38.92-7.77h0A29.6,29.6,0,0,0,131.54,65.45Z"/><path class="cls-5" d="M179.35,100.34,167,88.92s10.23,8,12.73-.51,1.66,4,1.66,4Z"/><path class="cls-5" d="M175.63,96.85c2.24,2.09,3.72,3.49,3.72,3.49A29.6,29.6,0,0,0,172.89,59c-.69-.5-1.4-1-2.12-1.4A29.58,29.58,0,0,1,175.63,96.85Z"/><path class="cls-5" d="M134,66.75l5.71,3.12s-5.43-4.77-.71-8.51-3.27.91-3.27.91l-2.06,2.87Z"/><path class="cls-5" d="M172.26,68.93c-1.57.51-3.82-2.27-8.38-4.81s-9.58-3.51-8.55-5.35c.87-1.92,8.5-2.77,13.56,1.29S173.74,68.61,172.26,68.93Z"/><path class="cls-5" d="M172.26,68.93c-1.57.51-3.82-2.27-8.38-4.81a67.55,67.55,0,0,0-6.33-3"/><path class="cls-6" d="M155.33,58.77l.06-.15a1.54,1.54,0,0,1,.27-.4,3.89,3.89,0,0,1,1.47-.9,8.86,8.86,0,0,1,2.36-.52,11.48,11.48,0,0,1,1.36,0c.46,0,.93.05,1.4.11s.93.16,1.38.27a11.79,11.79,0,0,1,1.3.4,11.16,11.16,0,0,1,2.16,1.06,8.6,8.6,0,0,1,.78.55c.23.17.41.34.56.47.29.28.45.45.45.45l-.55-.31-.64-.33-.84-.39a18.7,18.7,0,0,0-2.16-.77c-.4-.12-.82-.21-1.25-.31s-.87-.17-1.31-.22a15,15,0,0,0-4.86.06,4.56,4.56,0,0,0-1.5.55,1.8,1.8,0,0,0-.35.29Z"/><path class="cls-4" d="M114.36,63.61S95.49,71.13,88.73,74.12,60.24,87.57,60.24,87.57a29.6,29.6,0,1,1,54.12-24Z"/><circle class="cls-3" cx="71.83" cy="40.49" r="3.46" transform="translate(-10.24 32.54) rotate(-23.88)"/><rect class="cls-3" x="78.3" y="37.7" width="4.04" height="43.9" transform="translate(-17.27 37.62) rotate(-23.88)"/><path class="cls-5" d="M91,78.91l-1.91.84L70.42,37.32a3.46,3.46,0,0,1,4.39,4.91Z"/><circle class="cls-3" cx="71.83" cy="40.49" r="2.27" transform="translate(-10.24 32.54) rotate(-23.88)"/><path class="cls-6" d="M69.75,41.4l0-.07a1.31,1.31,0,0,1-.11-.2,2,2,0,0,1-.2-.83,2.27,2.27,0,0,1,.31-1.2,2.39,2.39,0,0,1,.45-.56,2.72,2.72,0,0,1,.64-.41,2.82,2.82,0,0,1,.71-.18,2.36,2.36,0,0,1,.72,0,2.27,2.27,0,0,1,1.1.57,2,2,0,0,1,.48.7,1.33,1.33,0,0,1,.07.22l0,.08s-.07-.09-.19-.24a2.54,2.54,0,0,0-.59-.5,2.43,2.43,0,0,0-1-.33,2.47,2.47,0,0,0-.56,0,2.22,2.22,0,0,0-.57.17,2.26,2.26,0,0,0-.48.29,2.29,2.29,0,0,0-.8,1.35,2.55,2.55,0,0,0,0,.77C69.73,41.29,69.75,41.4,69.75,41.4Z"/><path class="cls-3" d="M114.36,63.61S94,69.33,87.28,72.32s-27,15.25-27,15.25a29.6,29.6,0,1,1,54.12-24Z"/><path class="cls-5" d="M114.36,63.61l-2.66.76C104.94,49.77,90.1,42,75.32,48.53h0A29.6,29.6,0,0,1,114.36,63.61Z"/><path class="cls-5" d="M60.24,87.57,74.75,79s-11.69,5.64-12.34-3.2-2.48,3.59-2.48,3.59Z"/><path class="cls-5" d="M64.62,85c-2.64,1.57-4.38,2.62-4.38,2.62a29.6,29.6,0,0,1,15.08-39c.78-.35,1.57-.65,2.36-.92A29.58,29.58,0,0,0,64.62,85Z"/><path class="cls-5" d="M111.71,64.37l-6.25,1.84S111.78,62.7,108,58s3,1.59,3,1.59l1.41,3.24Z"/><path class="cls-5" d="M73.83,58.38C75.26,59.21,78,57,83,55.45s10.11-1.4,9.49-3.42C92.09,50,84.81,47.53,79,50.43S72.45,57.75,73.83,58.38Z"/><path class="cls-6" d="M91.53,50.81l-.23-.11a6.07,6.07,0,0,0-.66-.27,10.45,10.45,0,0,0-1-.32c-.4-.11-.87-.2-1.37-.29s-1.06-.14-1.64-.18c-.29,0-.59,0-.9,0s-.62,0-.93,0a16.66,16.66,0,0,0-1.93.21c-.33.05-.65.13-1,.2s-.64.18-1,.28a13.18,13.18,0,0,0-1.84.75,16.69,16.69,0,0,0-1.71,1,13.27,13.27,0,0,0-1.46,1.08,11.43,11.43,0,0,0-1.15,1.15,9,9,0,0,0-.8,1.12,5.84,5.84,0,0,0-.46,1,4.12,4.12,0,0,0-.18.68l0,.25,0-.25a3.22,3.22,0,0,1,0-.73,6.09,6.09,0,0,1,.94-2.44,8.77,8.77,0,0,1,1.09-1.39,10.25,10.25,0,0,1,1.48-1.3A13,13,0,0,1,78.51,50a14.08,14.08,0,0,1,2-.86c.35-.11.71-.19,1.06-.28s.71-.14,1.07-.19a13.28,13.28,0,0,1,2.1-.12,9,9,0,0,1,1,.05c.33,0,.64.07.95.12a11.34,11.34,0,0,1,1.7.4,9.74,9.74,0,0,1,1.37.52,7.26,7.26,0,0,1,1,.54,4.22,4.22,0,0,1,.58.43Z"/><polygon class="cls-5" points="78.57 182.8 64.84 200.09 84.65 190.34 78.57 182.8"/><circle class="cls-5" cx="67.61" cy="197.85" r="3.56" transform="translate(-109.22 86.27) rotate(-38.88)"/><path class="cls-3" d="M71.06,197a3.55,3.55,0,0,1-6.22,3.06l16.77-13.52,3,3.77Z"/><circle class="cls-5" cx="67.61" cy="197.85" r="2.66" transform="translate(-136.33 243.98) rotate(-83.88)"/><path class="cls-1" d="M81.61,186.56,64.84,200.08a3.55,3.55,0,0,1,4.31-5.42l9.42-11.86Z"/><polygon class="cls-3" points="141.34 189.53 151.09 209.33 133.8 195.61 141.34 189.53"/><circle class="cls-3" cx="148.86" cy="206.56" r="3.56" transform="translate(-96.68 139.2) rotate(-38.88)"/><path class="cls-5" d="M145.66,205a3.55,3.55,0,0,0,5.43,4.31l-13.52-16.77-3.77,3Z"/><circle class="cls-3" cx="148.86" cy="206.57" r="2.66" transform="translate(-72.4 332.56) rotate(-83.88)"/><circle class="cls-3" cx="115.65" cy="133.06" r="65.22" transform="translate(-28.98 233.86) rotate(-83.88)"/><path class="cls-5" d="M108.85,196.47a63.78,63.78,0,1,1,70.22-56.62A63.86,63.86,0,0,1,108.85,196.47ZM122.32,70.81a62.6,62.6,0,1,0,55.57,68.91A62.67,62.67,0,0,0,122.32,70.81Z"/><path class="cls-6" d="M174.36,120.25l.2.89c.13.59.3,1.46.5,2.61a58.86,58.86,0,0,1,.81,10.06,55.8,55.8,0,0,1-.48,7.2,58.52,58.52,0,0,1-1.63,8.35,59.35,59.35,0,0,1-8.6,18.46,60.14,60.14,0,0,1-42.79,25.58,59.47,59.47,0,0,1-14.31-.1l-1.79-.23c-.6-.09-1.2-.21-1.8-.32-1.21-.2-2.4-.49-3.59-.77-.6-.13-1.19-.29-1.78-.47L97.31,191c-1.17-.39-2.34-.78-3.5-1.22a60.63,60.63,0,0,1-24.29-17.1l-1.22-1.44-1.15-1.5c-.79-1-1.46-2-2.19-3.07a62.64,62.64,0,0,1-6.67-13.42l-.58-1.77-.29-.89-.25-.9-.49-1.79c-.15-.6-.27-1.21-.41-1.81a58.38,58.38,0,0,1-1.35-14.6l.06-1.81.15-1.8.08-.9c0-.16,0-.28,0-.46l.06-.44.24-1.76c.07-.58.17-1.17.29-1.76l.33-1.76c.25-1.16.53-2.31.82-3.45A60,60,0,0,1,69.65,93.58a61.06,61.06,0,0,1,19.09-14.7,58.78,58.78,0,0,1,19.54-5.73,61.27,61.27,0,0,1,15.69.25,58.84,58.84,0,0,1,9.83,2.32c1.11.36,1.94.67,2.51.88l.85.33-.86-.31c-.57-.2-1.41-.49-2.53-.83a60.65,60.65,0,0,0-25.43-2.1,59.83,59.83,0,0,0-50.11,43.95c-.27,1.12-.55,2.24-.79,3.38l-.31,1.71c-.11.57-.21,1.14-.28,1.73l-.23,1.76-.06.44,0,.42-.07.88-.14,1.76-.05,1.77a57,57,0,0,0,1.37,14.27c.14.59.26,1.18.41,1.77l.49,1.75.24.88.29.87.57,1.73a61.21,61.21,0,0,0,6.56,13.08c.71,1,1.37,2,2.14,3l1.12,1.46,1.19,1.4a59.2,59.2,0,0,0,23.66,16.77c1.13.44,2.27.82,3.41,1.2l1.73.51c.57.18,1.15.34,1.74.47,1.17.28,2.33.57,3.49.76.58.11,1.16.23,1.75.32l1.78.24a58.17,58.17,0,0,0,14,.14,61.33,61.33,0,0,0,13.22-3,60,60,0,0,0,29-21.81,60.45,60.45,0,0,0,5.35-9.16,57,57,0,0,0,3.39-9A58,58,0,0,0,175,141a55.47,55.47,0,0,0,.6-7.15,61.34,61.34,0,0,0-.6-10c-.17-1.15-.33-2-.44-2.62Z"/><line class="cls-1" x1="84.08" y1="185.18" x2="82.28" y2="186.64"/><path class="cls-7" d="M157.44,102.15a51.82,51.82,0,0,0-36.25-20.78l-.57-.06a52,52,0,0,0-11.08,103.35l.57.07a52,52,0,0,0,47.33-82.58Z"/><circle class="cls-8" cx="116.37" cy="133.95" r="2.37" transform="translate(-29.22 235.38) rotate(-83.88)"/><path class="cls-8 alarm-hand__part alarm-big-hand__part alarm-big-hand__body" d="M116.37,134c-2.39-15.22,2.19-28.74,4.18-39C120.32,105.4,121.93,119.59,116.37,134Z"/><polygon class="cls-8 alarm-hand__part alarm-big-hand__part alarm-big-hand__head" points="121.09 89.95 116.58 96.83 120.52 95.22 124.04 97.63 121.09 89.95"/><path class="cls-8 alarm-hand__part alarm-small-hand__part alarm-small-hand__body" d="M116.37,134c-9.07,12.45-14.78,13.06-23.43,18.9C100.47,145.63,102.28,140.17,116.37,134Z"/><polygon class="cls-8 alarm-hand__part alarm-small-hand__part alarm-small-hand__head" points="89 156.02 97.06 154.35 93.13 152.69 92.34 148.5 89 156.02"/><path class="cls-5" d="M121.59,77.64a23,23,0,0,1-3.44,0,61.86,61.86,0,0,0-9.3.55,56.22,56.22,0,0,0-45.4,36.61,61.87,61.87,0,0,0-2.51,9,23,23,0,0,1-.71,3.37,2.57,2.57,0,0,1,0-.9c.05-.58.09-1.45.26-2.55a51.05,51.05,0,0,1,2.17-9.17,54,54,0,0,1,2.43-6.06,55,55,0,0,1,3.69-6.53A55.26,55.26,0,0,1,95.15,80.65a55,55,0,0,1,7.16-2.22,54,54,0,0,1,6.44-1.09,51.05,51.05,0,0,1,9.42-.18c1.11.07,2,.22,2.54.29A2.57,2.57,0,0,1,121.59,77.64Z"/><path class="cls-5" d="M109.71,188.47a23,23,0,0,1,3.44,0,61.86,61.86,0,0,0,9.3-.55,56.22,56.22,0,0,0,45.4-36.61,61.86,61.86,0,0,0,2.51-9,23,23,0,0,1,.71-3.37,2.57,2.57,0,0,1,0,.9c-.05.58-.09,1.45-.26,2.55a51.05,51.05,0,0,1-2.17,9.17,54,54,0,0,1-2.43,6.06,55,55,0,0,1-3.69,6.53,55.26,55.26,0,0,1-26.37,21.26,54.94,54.94,0,0,1-7.16,2.22,54,54,0,0,1-6.44,1.09,51,51,0,0,1-9.42.18c-1.11-.07-2-.22-2.54-.29A2.57,2.57,0,0,1,109.71,188.47Z"/><path class="cls-9" d="M148.27,173.52a52,52,0,0,1-73.09-7.84l-.36-.45A52,52,0,0,0,155.74,100l.37.44a52,52,0,0,1-7.84,73.09Z"/><path class="cls-8" d="M157.44,102.15a52,52,0,0,0-80.85,65.19,52,52,0,1,1,80.85-65.19Z"/><g class="cls-10"><g class="cls-11"><rect class="cls-9" x="-11" y="103.03" width="276.28" height="24.19" transform="translate(136.95 -56.11) rotate(51.12)"/><rect class="cls-9" x="-35.53" y="128.86" width="276.28" height="12.09" transform="translate(143.22 -29.65) rotate(51.12)"/><rect class="cls-9" x="-49.08" y="142.81" width="276.28" height="6.05" transform="translate(146.68 -15.04) rotate(51.12)"/></g></g><circle class="cls-3" cx="115.65" cy="133.06" r="2.37" transform="translate(-28.98 233.86) rotate(-83.88)"/><path class="cls-3 alarm-hand__part alarm-big-hand__part alarm-big-hand__body" d="M115.65,133.06c-2.39-15.22,2.19-28.74,4.18-39C119.6,104.51,121.21,118.69,115.65,133.06Z"/><polygon class="cls-3 alarm-hand__part alarm-big-hand__part alarm-big-hand__head" points="120.36 89.05 115.85 95.93 119.8 94.33 123.32 96.73 120.36 89.05"/><path class="cls-3 alarm-hand__part alarm-small-hand__part alarm-small-hand__body" d="M115.65,133.06c-9.07,12.45-14.78,13.06-23.43,18.9C99.75,144.73,101.55,139.28,115.65,133.06Z"/><polygon class="cls-3 alarm-hand__part alarm-small-hand__part alarm-small-hand__head" points="88.28 155.12 96.33 153.45 92.41 151.79 91.62 147.61 88.28 155.12"/><path class="cls-3" d="M182.32,62.09c-12.27-1.32-14.23-9-16.31-17.21C163.1,33.42,159.8,20.42,128.09,17s-37.7,8.6-43,19.18c-3.76,7.55-7.31,14.68-19.59,13.36a1.48,1.48,0,0,1,.32-2.95c10.22,1.1,12.9-4.29,16.62-11.74C87.89,24,94.63,10.46,128.4,14.08s37.49,18.29,40.48,30.07c2,8.07,3.53,13.9,13.75,15a1.48,1.48,0,1,1-.32,2.95Z"/><path class="cls-6" d="M171.51,57.45c-3.14-3.27-4.3-7.85-5.5-12.57s-2.43-9.56-5.62-14c4.34,4.87,5.77,10.53,7.12,15.86C168.51,50.63,169.47,54.41,171.51,57.45Z"/><path class="cls-6" d="M162.3,28.46c-5.3-6.29-14.78-11.55-33.2-13.53-33.77-3.62-40.51,9.93-45.94,20.81-3.71,7.45-6.4,12.83-16.62,11.74a1.48,1.48,0,0,0-1.63,1.32,1.39,1.39,0,0,0,.06.6,1.48,1.48,0,0,1,.88-2.77c10.22,1.1,12.9-4.29,16.62-11.74C87.88,24,94.64,10.46,128.4,14.08,147.65,16.14,157.14,21.8,162.3,28.46Z"/><g class="cls-12"><path class="cls-9" d="M96.23,172.94c3,6.47,29.14,11.32,47.11-1,18-11.94,18.52-27,14.58-28.17-4.19-1.91-12.24,8.09-29.8,15.3C110.87,166.43,92.66,166.68,96.23,172.94Z"/></g><path class="cls-13" d="M180.49,140a65.1,65.1,0,0,0-19.67-54c7.87,6,18.53,14.32,18.53,14.32a29.6,29.6,0,0,0-4.92-40.15l0-.05c.39.29.37.27,0,0l.19-.27a19.9,19.9,0,0,0,7.66,2.22,1.48,1.48,0,1,0,.32-2.95,17.39,17.39,0,0,1-6.21-1.69L178,55.33a3.46,3.46,0,0,0,2.08-6.26h0a3.49,3.49,0,0,0-4.85.76l-.08.13-.12.19-.07.14-.1.22-.05.13q0,.13-.09.26l0,.1a3.45,3.45,0,0,0-.07.36h0a3.48,3.48,0,0,0,.13,1.59l-1.47,2c-2.29-2.66-3.25-6.4-4.37-10.8-1.29-5.08-2.72-10.69-6.62-15.73l0,0q-.3-.39-.62-.77l-.07-.08-.39-.45-.11-.13-.38-.41-.14-.15-.29-.3-.23-.23-.3-.29-.22-.21-.35-.33-.25-.23-.21-.19-.42-.36-.18-.15-.5-.4-.15-.12q-.51-.4-1.05-.78l-.11-.08-.64-.44-.13-.08-.68-.44-.1-.07q-.61-.38-1.26-.75l-.06,0-.81-.44-.12-.07-.81-.42L151.6,20q-.71-.35-1.46-.69l-.08,0-.93-.4-.15-.06-.91-.37-.15-.06q-.81-.31-1.67-.61l-.1,0-1-.35-.19-.06-1-.31-.19-.06q-.92-.27-1.89-.53l-.14,0-1.17-.29-.24-.06-1.13-.26-.24-.05-1.34-.28h-.06l-.73-.14-.14,0L135.28,15,135,15l-1.28-.21-.27,0-1.5-.22h-.08l-.83-.11H131l-1.56-.19-.27,0-.72-.08c-21.75-2.33-32.29,2.46-38.48,9.07a34.74,34.74,0,0,0-4.75,6.56c-1,1.74-1.87,3.49-2.71,5.18-2,4.1-3.77,7.56-6.62,9.68l-1-2.33a3.48,3.48,0,0,0,.47-1.52h0a3.44,3.44,0,0,0,0-.36s0-.07,0-.1,0-.18,0-.27l0-.13c0-.08,0-.16-.06-.24l0-.15c0-.07-.05-.14-.08-.22L75,39.08a3.49,3.49,0,0,0-4.57-1.77h0a3.46,3.46,0,0,0,.71,6.56l1.08,2.43a17.49,17.49,0,0,1-6.36.32,1.47,1.47,0,0,0-1.64,1.53v0a1.47,1.47,0,0,0,.08.4v0a1.48,1.48,0,0,0,.18.35l0,0a1.49,1.49,0,0,0,.28.28l0,0a1.47,1.47,0,0,0,.73.29A20,20,0,0,0,73.42,49l.12.27c-.42.19-.44.2,0,0l0,.06A29.6,29.6,0,0,0,60.24,87.57S72.82,81.52,81.81,77.3a65.22,65.22,0,0,0-5.22,108l-4.29,5.4-3.15,4a3.56,3.56,0,0,0-2.63-.18l-.09,0-.17.06-.25.12-.09,0-.2.12-.08,0-.27.19a3.55,3.55,0,0,0,.17,5.66l.08.06,0,0a3.56,3.56,0,0,0,4.19-.2l0,0,.21-.18.08-.08.15-.16.07-.08.17-.23.08-.12.08-.13.09-.16,0-.06a3.57,3.57,0,0,0,.25-2.37l6.37-3.14,7.11-3.5a65.38,65.38,0,0,0,49.35,5.29l6.2,4.92,5.56,4.42a3.57,3.57,0,0,0-.26,2.37l0,.07.05.18,0,.14,0,.13.12.26.05.1.11.19.06.1.16.22,0,0a3.57,3.57,0,0,0,4.05,1.09h0l.09,0a3.55,3.55,0,0,0-2.23-6.72l-5.28-10.73A65.18,65.18,0,0,0,180.49,140ZM160.59,31.17l.25.36.22.34.38.61.16.28.3.52.12.21.37.7.11.22.35.73.05.12.31.7.06.14.32.78.05.14q.31.8.59,1.61l0,.14.25.78,0,.15.21.68,0,.16.2.68.1.36.07.26c.28,1,.54,2.05.8,3.07,1.19,4.7,2.35,9.25,5.45,12.52l-.3.42a29.6,29.6,0,0,0-39.62,7.63s7.76,5.23,14.62,10A65.4,65.4,0,0,0,97.7,70.34c7.77-3.19,16.67-6.74,16.67-6.74a29.6,29.6,0,0,0-37.1-15.86l-.19-.42c3.76-2.53,5.87-6.76,8-11.13,5.27-10.59,11.25-22.58,43-19.18C147.19,19.07,156,24.6,160.59,31.17Z"/><path class="cls-9" d="M34.85,79.22l-.22-.58L34.37,78l-.16-.44L34.06,77l-.36-1.2c-.11-.44-.22-.92-.34-1.43-.07-.26-.11-.52-.15-.8l-.15-.85c-.06-.29-.09-.59-.12-.9l-.11-1c0-.32,0-.66-.07-1l-.06-1V67.2c0-.19,0-.37,0-.56l.06-1.14c0-.38.08-.77.12-1.16l.06-.59c0-.2.06-.4.09-.59l.2-1.21c.18-.8.33-1.63.58-2.44.12-.41.21-.82.36-1.23L34.62,57a32.86,32.86,0,0,1,5-9.16l.82-1c.27-.34.57-.64.85-1,.56-.64,1.17-1.21,1.75-1.79l.91-.81.45-.4.47-.37c.31-.24.61-.49.92-.72l.93-.66.46-.32.47-.3.91-.57.91-.51c.3-.16.58-.34.88-.47l.86-.42c.28-.14.55-.27.83-.38l.8-.33c.26-.11.51-.22.76-.3L55,37.11l1.2-.34.51-.14.46-.1.73-.15.6-.12L58,36.5l-.68.29-.43.18-.48.23-1.11.53L54,38.4c-.45.24-.92.53-1.42.81-.25.14-.5.3-.75.46l-.78.5c-.52.34-1.05.73-1.6,1.11l-.81.63-.42.32-.41.34-.83.7c-.28.24-.54.5-.82.75-.56.49-1.08,1.05-1.64,1.59a43,43,0,0,0-3.07,3.65,37.21,37.21,0,0,0-4.74,8.58,42.89,42.89,0,0,0-1.45,4.54L35,63.51c-.09.37-.16.74-.22,1.11s-.14.73-.19,1.09l-.15,1.07c0,.18-.05.35-.07.53l0,.52-.09,1c0,.67-.07,1.32-.09,2v.92c0,.3,0,.6,0,.88,0,.57,0,1.12.07,1.63s.08,1,.11,1.44l.15,1.22.06.52.07.46.12.73Z"/><path class="cls-9" d="M24.43,82.23l-.27-.76-.31-.91c-.06-.18-.13-.37-.2-.58l-.19-.67L23,77.72c-.13-.58-.26-1.21-.4-1.88-.08-.34-.13-.69-.19-1l-.18-1.12c-.07-.38-.11-.78-.14-1.18L22,71.25l0-.32,0-.32,0-.66-.06-1.35V66.47c0-.24,0-.48,0-.73l.1-1.49c0-.5.11-1,.17-1.52l.09-.77c0-.26.09-.51.13-.77l.27-1.57c.24-1,.45-2.12.77-3.17l.22-.8.11-.4.13-.4.54-1.59A43.64,43.64,0,0,1,31,41.33L32.1,40l.27-.32.28-.31.56-.62c.72-.84,1.52-1.59,2.27-2.34l1.18-1.07c.2-.17.39-.36.59-.52l.6-.49c.4-.32.79-.65,1.19-1l1.21-.88c.2-.14.39-.29.59-.42l.6-.39,1.18-.76,1.18-.68.57-.33.28-.16.29-.14,1.12-.56c.36-.18.72-.36,1.08-.51l1-.45c.34-.14.66-.29,1-.4L51,27.06l1.56-.47.67-.2.6-.14.94-.22.79-.18-.75.31-.9.36-.57.23-.63.28-1.47.66-1.69.85c-.31.14-.61.32-.92.5l-1,.54c-.33.18-.66.38-1,.59l-1,.64c-.36.21-.69.46-1.05.7l-1.08.74-1.08.81-.55.41c-.19.14-.36.3-.54.44l-1.11.91c-.37.31-.72.65-1.09,1l-.55.5c-.18.17-.36.35-.54.52l-1.09,1.07a54.81,54.81,0,0,0-4.09,4.8A48,48,0,0,0,26.57,54a54.72,54.72,0,0,0-1.88,6l-.32,1.49c-.05.25-.11.49-.16.74l-.13.73c-.08.49-.17,1-.24,1.45l-.18,1.42c0,.23-.07.47-.08.7l-.05.69-.11,1.35,0,1.31,0,.64v1.84c0,.4,0,.78,0,1.16l.06,1.1c0,.36,0,.71.07,1,.07.67.14,1.3.19,1.89l.22,1.59.1.69.11.6.17,1Z"/><path class="cls-9" d="M206,97.57l.22-.58.27-.69.17-.44.17-.5.4-1.16c.12-.43.27-.89.41-1.38s.27-1,.42-1.58c.08-.28.14-.56.2-.86l.19-.9c.12-.62.22-1.26.33-1.92l.12-1L209,86c0-.17,0-.35,0-.53l.09-1.08c0-.36,0-.74,0-1.11s0-.75,0-1.13V81a42.88,42.88,0,0,0-.45-4.75,37.21,37.21,0,0,0-2.81-9.39,43,43,0,0,0-2.23-4.22c-.43-.65-.82-1.3-1.26-1.9-.22-.3-.42-.61-.64-.9l-.66-.86c-.11-.14-.21-.29-.33-.42l-.34-.4-.66-.78c-.46-.49-.89-1-1.33-1.43l-.65-.65c-.21-.21-.42-.42-.64-.61-.43-.38-.82-.76-1.21-1.09l-1.1-.93-1-.75-.42-.32-.38-.27-.6-.43-.5-.36.56.25.68.3.43.19.47.25,1.1.59,1.26.76c.23.13.45.29.68.45l.71.49c.25.16.49.35.73.55l.75.59c.26.19.5.43.76.65l.78.69.77.75.39.39.38.41.77.85c.25.29.49.6.75.9l.38.46c.12.16.24.32.36.48l.72,1c.45.69.92,1.38,1.33,2.12.21.37.44.73.63,1.11l.58,1.15a32.86,32.86,0,0,1,3,10l.14,1.28c.05.43.06.85.09,1.28.07.85,0,1.68,0,2.51l-.06,1.22c0,.2,0,.4,0,.6l-.06.59c0,.39-.08.78-.13,1.16l-.18,1.13c0,.18-.06.37-.09.55l-.12.54-.23,1.05-.27,1c-.1.33-.17.65-.28,1l-.31.91c-.1.3-.19.58-.31.86l-.32.8c-.11.26-.2.51-.32.75-.23.48-.43.92-.63,1.33l-.6,1.1L207,96l-.25.4-.4.62Z"/><path class="cls-9" d="M215.56,102.72l.3-.75.37-.89.23-.57.24-.65.56-1.51c.17-.56.37-1.16.58-1.8.11-.32.2-.66.29-1l.29-1.07c.1-.36.19-.74.28-1.13l.27-1.18.07-.3.06-.31.11-.63.23-1.29.18-1.34.09-.69c0-.23,0-.46.06-.7l.13-1.43c0-.48,0-1,.07-1.46l0-.74c0-.25,0-.5,0-.75q0-.75,0-1.52a54.72,54.72,0,0,0-.56-6.28,48,48,0,0,0-3.71-12.43,54.81,54.81,0,0,0-3-5.56l-.84-1.27c-.14-.21-.27-.42-.42-.63l-.43-.6c-.29-.4-.57-.8-.86-1.19l-.89-1.12c-.15-.18-.29-.37-.44-.55l-.45-.52-.89-1-.9-1c-.3-.31-.58-.63-.88-.91l-.87-.84c-.28-.28-.56-.55-.85-.79l-.83-.73c-.27-.24-.52-.48-.79-.68-.53-.42-1-.81-1.48-1.19l-1.3-1-.56-.41-.5-.34-.8-.54-.66-.46.73.34.88.42.56.27.61.34,1.43.79c.51.31,1,.66,1.63,1,.3.18.58.39.88.6l.92.66c.32.22.63.47.94.73l1,.78.25.2.24.22.49.44,1,.91,1,1,.51.51c.17.17.33.36.49.54l1,1.11c.33.38.64.79,1,1.18l.49.61c.16.2.31.42.46.63l.93,1.29c.58.9,1.19,1.8,1.72,2.77l.41.72.21.36.19.37.76,1.5a43.64,43.64,0,0,1,3.9,13.05l.19,1.67,0,.42,0,.42.05.83c.09,1.1.07,2.19.08,3.26L222,82.59c0,.26,0,.52,0,.78l-.08.77c-.05.51-.09,1-.16,1.52l-.22,1.47c0,.24-.07.48-.12.72l-.14.7L221,89.94l-.34,1.31-.17.64-.08.31-.1.31-.38,1.19c-.12.39-.24.77-.39,1.12l-.41,1.05c-.13.34-.26.67-.4,1-.28.63-.54,1.22-.79,1.76l-.76,1.45-.32.62-.32.53-.5.83Z"/></g></g></g></svg>