<svg xmlns="http://www.w3.org/2000/svg" viewBox="0 0 537.19 230.59"><defs><style>.cls-1{isolation:isolate;}.cls-2{fill:#373636;}.cls-3{fill:#ffd352;}.cls-4{fill:#f6bf46;}.cls-5{mix-blend-mode:multiply;}.cls-6{fill:#bdbdbd;}.cls-7{fill:#646464;}.cls-8{fill:#2e2e2e;}.cls-9{fill:#c2c2c2;}.cls-10{fill:#8c8c8c;}.cls-11{fill:#292929;}.cls-12{fill:#555554;}.cls-13,.cls-24,.cls-29,.cls-34{fill:#fff;}.cls-14{fill:#f47a50;}.cls-15{fill:#8b8a8b;}.cls-16{fill:#2a120c;opacity:0.12;}.cls-17{fill:#fdb814;}.cls-18{fill:#f69279;}.cls-19{fill:#818181;}.cls-20{fill:#f8a287;}.cls-21{fill:#f99d1c;}.cls-22{fill:#f8a285;}.cls-23{fill:#36221a;}.cls-24{opacity:0.08;}.cls-25{fill:#573529;}.cls-26,.cls-27{fill:#482b22;}.cls-27{opacity:0.11;}.cls-28{fill:#fcb019;}.cls-29{opacity:0.13;}.cls-30{fill:#e59a24;}.cls-31{fill:#ffc840;}.cls-32{fill:#fcb32b;}.cls-33{fill:#ef4238;}.cls-34{font-size:20.12px;font-family:Comfortaa-Bold, Comfortaa Bold;font-weight:700;}</style>
    <style>
        @keyframes wheel {
            from {
                transform: rotate(0);
            }
            to {
                transform: rotate(-360deg);
            }
        }
      .wheel--front, .wheel--end {
        animation-name: wheel;
        animation-duration: 1.5s;
        animation-iteration-count: infinite;
        animation-timing-function: linear;
      }
      .wheel--front {
        transform-origin: 117.58px 176.41px;
      }
      .wheel--end {
        transform-origin: 439.92px 176.41px;
      }
    </style>
</defs><title>Asset 1</title><g class="cls-1"><g id="Layer_2" data-name="Layer 2"><g id="_1-12" data-name="1-12"><polygon class="cls-2" points="29.98 148.52 29.98 180.84 56.36 179.26 55.27 158.12 29.98 148.52"/><path class="cls-3" d="M302.83,10.66c-9,0-47.79-1.94-75.93,12.13s-84.36,48.55-87.18,48.55a176,176,0,0,0-17.8,1.52C93,77,49.42,92.9,41.73,102.12s-6.48,20.38-9.15,24.74S26,130.75,26,138v9.22c0,2.06-.36,5.46,4.37,5.46s16,9.46,16,15.95-3.7,6.13-6.12,6.13H26c-1.09,0-2.3,1.94-1.45,5.22s4.36,8.73,13,8.73H407.87s34.69-9,47.06-9h27.66c2.91,0,7.88-6.31,10.55-14.43s5-26.2,4.12-28.75-8.49-6.55-8.49-11.77V78.71c0-1.94-36.75-47.31-37.12-47.55s3.52-2.55,2.06-3.88-67.5-16.71-90.06-16.71S302.83,10.66,302.83,10.66Z"/><path class="cls-4" d="M34.48,120.3c-.52,2.75-1,5.06-1.9,6.57C29.92,131.23,26,130.75,26,138v9.22c0,2.06-.36,5.46,4.37,5.46s16,9.46,16,15.95-3.7,6.13-6.12,6.13H26c-1.09,0-2.3,1.94-1.45,5.22s4.36,8.73,13,8.73H407.87s34.69-9,47.06-9h27.66c2.91,0,7.88-6.31,10.55-14.43s5-26.2,4.12-28.75-8.49-6.55-8.49-11.77v-4.5Z"/><g class="cls-5"><path class="cls-6" d="M305,180.84H197.24c-6.76,0-8.61-1.85-8.61-8.61v-75c0-24.93,15.85-35.8,16-35.9l.61.91c-.16.1-15.52,10.68-15.52,35v75c0,6.18,1.34,7.52,7.52,7.52H305c4.61,0,8.43-.64,8.43-8.49V98.73c0-7.73,1.35-15.48,4.39-25.15l1,.33c-3,9.55-4.34,17.21-4.34,24.82v72.53C314.54,180.1,309.83,180.84,305,180.84Z"/></g><path class="cls-7" d="M439.92,132.34a44.12,44.12,0,0,0-44.07,44.07v12.31h12s34.69-9,47.06-9h27.66a3.16,3.16,0,0,0,1.4-.41v-2.93A44.12,44.12,0,0,0,439.92,132.34Z"/><path class="cls-7" d="M161.66,176.41a44.07,44.07,0,0,0-88.14,0v12.31h88.14Z"/><circle class="cls-2" cx="117.58" cy="176.41" r="37.73"/><circle class="cls-8" cx="117.58" cy="176.41" r="29.33"/><circle class="cls-9" cx="117.58" cy="176.41" r="26.42"/><circle class="cls-10" cx="117.58" cy="176.41" r="23.14"/><circle class="cls-11" cx="117.58" cy="176.41" r="20.78"/><circle class="cls-9" cx="117.58" cy="176.41" r="4.76"/><polygon class="cls-9 wheel--front" points="121.92 174.99 113.26 174.99 115.26 151.37 119.91 151.37 121.92 174.99"/><polygon class="cls-9 wheel--front" points="117.57 171.85 114.89 180.09 93.05 170.88 94.49 166.46 117.57 171.85"/><polygon class="cls-9 wheel--front" points="113.24 175.01 120.25 180.11 104.74 198.04 100.98 195.3 113.24 175.01"/><polygon class="cls-9 wheel--front" points="114.91 180.11 121.92 175.02 134.18 195.31 130.42 198.04 114.91 180.11"/><polygon class="cls-9 wheel--front" points="120.28 180.1 117.6 171.86 140.68 166.47 142.12 170.89 120.28 180.1"/><circle class="cls-2" cx="439.92" cy="176.41" r="37.73"/><circle class="cls-8" cx="439.92" cy="176.41" r="29.33"/><circle class="cls-9" cx="439.92" cy="176.41" r="26.42"/><circle class="cls-10" cx="439.92" cy="176.41" r="23.14"/><circle class="cls-11" cx="439.92" cy="176.41" r="20.78"/><circle class="cls-9" cx="439.92" cy="176.41" r="4.76"/><polygon class="cls-9 wheel--end" points="444.26 174.99 435.59 174.99 437.6 151.37 442.25 151.37 444.26 174.99"/><polygon class="cls-9 wheel--end" points="439.91 171.85 437.23 180.09 415.38 170.88 416.82 166.46 439.91 171.85"/><polygon class="cls-9 wheel--end" points="435.57 175.01 442.58 180.11 427.08 198.04 423.31 195.3 435.57 175.01"/><polygon class="cls-9 wheel--end" points="437.24 180.11 444.26 175.02 456.52 195.31 452.75 198.04 437.24 180.11"/><polygon class="cls-9 wheel--end" points="442.61 180.1 439.93 171.86 463.02 166.47 464.45 170.89 442.61 180.1"/><path class="cls-12" d="M487.64,76.77h-6.39c-9,0-10.07-1.46-12.25-3.88S453.36,46.2,450.2,40.14s-1.82-7.64,2.3-7.64h.28C458.25,39.13,482.18,68.79,487.64,76.77ZM424.06,41.9c1.27-2.73,1.18-8.46-10.92-11.1-7.62-1.66-48.8-6.19-98.43-6.19-12.55,0-34.57-2.37-63,8.73S198.46,65.73,197.55,70.1s-1.27,9.82,8.37,9.82h185.4c5.64,0,12.37-1.27,17.1-9.46S422.79,44.63,424.06,41.9ZM151.88,75.19c5.82,1.46,12.19,1.09,19.29-4.18s32.93-24.56,43.48-30.57S235.75,28,238.42,26.8s2.3-4.37-2.18-5.09a46.56,46.56,0,0,0-6.34-.32c-1,.45-2,.92-3,1.42-28.14,14.07-84.36,48.55-87.18,48.55C144.53,73,149.41,74.58,151.88,75.19Z"/><path class="cls-11" d="M301,79.92h25.16l6.61-55.11c-4.73-.1-9.59-.16-14.53-.19Z"/><path class="cls-13" d="M104.21,89.93s-34.75,4-44.39,8.55-17.47,16.89-18,21.82,2,6.2,6.91,4,32.75-14.62,36.57-16.68S110.28,89.17,104.21,89.93Z"/><path class="cls-14" d="M63.32,117.78c9.28-4.18,19.74-8.93,22-10.14,3.82-2.06,25-18.47,18.92-17.71,0,0-12.91,1.49-25.17,3.68C74.07,99.53,67.51,108.34,63.32,117.78Z"/><path class="cls-14" d="M478.67,79.92a4.75,4.75,0,0,0-4.75,4.75v25.07a4.75,4.75,0,0,0,4.75,4.75h10.11V79.92Z"/><g class="cls-5"><path class="cls-6" d="M440.26,106.31a12.19,12.19,0,1,1,12.19-12.19A12.2,12.2,0,0,1,440.26,106.31Zm0-23.29a11.1,11.1,0,1,0,11.1,11.1A11.11,11.11,0,0,0,440.26,83Z"/></g><path class="cls-15" d="M256.95,79.92l26.57-54.56a127.44,127.44,0,0,0-31.76,8c-2.64,1-5.26,2.16-7.83,3.35L222.88,79.92Z"/><path class="cls-15" d="M314.65,24.61c-4.57,0-10.4-.31-17.32-.17l-27,55.48h17.41Z"/><path class="cls-15" d="M409.36,30.15c-6.13-.91-17.55-2.18-32.47-3.27l-25.84,53h34.06Z"/><path id="_Path_" data-name="&lt;Path&gt;" class="cls-16" d="M537.19,217.7s-120.25,12.88-268.59,12.88S0,217.7,0,217.7s120.25-12.88,268.59-12.88S537.19,217.7,537.19,217.7Z"/><path id="_Path_2" data-name="&lt;Path&gt;" class="cls-17" d="M236.49,62.5s15.84-7.34,21.36-7.78l-4,16.21-16.45,5Z"/><path id="_Path_3" data-name="&lt;Path&gt;" class="cls-18" d="M288.6,78.68c4.41-10.13,8.67-14.26,8.67-14.26-5.67-8.08-22-9.49-25.64-10.21-14.14-2.79-15.89,2.57-15.89,2.57s-1.08-5.4-4.42,21.41"/><path id="_Path_4" data-name="&lt;Path&gt;" class="cls-17" d="M280.94,55.9c-1.45,3.22-4.36,5.82-8.05,5.85a7,7,0,0,1-6-3.07,6.87,6.87,0,0,1-1-3.39c0-.55.31-1.41.35-2-10-1-10.48,3.45-10.48,3.45s-1.79-6.48-5.14,20.34c-.23,1.86.21,1.1,0,2.78,15.58,0,25.17-2.06,38-1.21,4.41-10.13,8.67-14.26,8.67-14.26C293.93,59.66,286.9,57.25,280.94,55.9Z"/><path id="_Path_5" data-name="&lt;Path&gt;" class="cls-19" d="M249.59,79.89l33.94.06a1.36,1.36,0,0,0,1.36-1.45c-.24-3.69-.46-13.66,3.4-20.51a2,2,0,0,0-1-2.79l-1.55-.63a2,2,0,0,0-2.56.89,42.93,42.93,0,0,0-5.28,16.91,1.36,1.36,0,0,1-1.67,1.19l-15.73-3.69a1.36,1.36,0,0,1-1.05-1.32c0-2.59.28-9.32,2.82-14.64a.63.63,0,0,0-.5-.88l-3.68-.15a1,1,0,0,0-1,.72c-1,3.39-6.86,9.7-5.84,18.68"/><g id="_Group_" data-name="&lt;Group&gt;"><path id="_Path_6" data-name="&lt;Path&gt;" class="cls-20" d="M292.82,81.7a22.59,22.59,0,0,1,.08,12c0,.11-.06.21-.49.4l-.47.19c-6,2.07-11.79-4.78-25.54-10.81l-5,2.86c4.73,6.67,20.9,23.26,34.41,18.61.45-.16.9-.33,1.32-.53A11.91,11.91,0,0,0,303.85,97a33.3,33.3,0,0,0,0-17.53C300.18,80.16,296.48,80.87,292.82,81.7Z"/></g><g id="_Group_2" data-name="&lt;Group&gt;"><path id="_Path_7" data-name="&lt;Path&gt;" class="cls-18" d="M303.19,88.49a8.31,8.31,0,0,1,1.68,3.77,36.68,36.68,0,0,0-1-12.79c-3.69.73-7.38,1.43-11.05,2.26a29.14,29.14,0,0,1,.73,4.08C296.65,84.36,301,85.77,303.19,88.49Z"/></g><g id="_Group_3" data-name="&lt;Group&gt;"><path id="_Path_8" data-name="&lt;Path&gt;" class="cls-17" d="M291.43,59.56l-.79.4-5.13,8.61c-.09.73-.34,1.74-.44,2.45-.17,1.28-.37,3.6-.35,3.48,3,3.24,6.41,6.84,7.79,10.58,3.85-.91,9.49-2.57,13.09-3.25C300.21,61.51,291.78,60.07,291.43,59.56Z"/></g><g id="_Group_4" data-name="&lt;Group&gt;"><path id="_Path_9" data-name="&lt;Path&gt;" class="cls-21" d="M291.63,83.19a14,14,0,0,1,.88,1.89c3.85-.91,9.49-2.57,13.09-3.25-.36-1.37-.74-2.63-1.13-3.83A133.48,133.48,0,0,1,291.63,83.19Z"/></g><path id="_Path_10" data-name="&lt;Path&gt;" class="cls-21" d="M267.7,53.6s-.76-.72-2.9-.38c0,0-3.31,8.66,6,10.24s12.33-7,12.33-7-.27-.89-3-.74c0,0-2.05,6-8.43,5.16S267.7,53.6,267.7,53.6Z"/><path id="_Path_11" data-name="&lt;Path&gt;" class="cls-18" d="M268.68,57.75c.27,2.13,2.93,2.7,4.7,2.46,2.33-.31,5.58-2.17,4.83-5l-2.55-9.78a3.76,3.76,0,0,0-4.39-3l-.94.18a3.76,3.76,0,0,0-3,4.39Z"/><path id="_Path_12" data-name="&lt;Path&gt;" class="cls-22" d="M263.83,10.33l5.79-.63c7.63-.83,14.82,6.94,15.65,14.57l1.14,10.46A14,14,0,0,1,274.06,50.1l-5.79.63a14,14,0,0,1-15.38-12.36l-1.14-10.46C250.92,20.29,256.21,11.16,263.83,10.33Z"/><ellipse id="_Path_13" data-name="&lt;Path&gt;" class="cls-22" cx="286.82" cy="30.66" rx="4.24" ry="3.15" transform="translate(206.66 307.75) rotate(-79.97)"/><path id="_Path_14" data-name="&lt;Path&gt;" class="cls-13" d="M262.11,39l11.47-1.27a1.09,1.09,0,0,1,1.06,1.39c-.82,3.39-3,5.91-5.9,6.23s-5.65-1.64-7.32-4.76A1.05,1.05,0,0,1,262.11,39Z"/><path id="_Path_15" data-name="&lt;Path&gt;" class="cls-23" d="M259.89,28.46c1.06.33,1.59,2,1.18,3.78s-1.61,2.92-2.67,2.59-1.59-2-1.18-3.78S258.82,28.13,259.89,28.46Z"/><path id="_Path_16" data-name="&lt;Path&gt;" class="cls-24" d="M260.88,32.86c-.52,1.41-1.55,2.27-2.49,2s-1.59-2-1.18-3.78a4.65,4.65,0,0,1,.72-1.64C258.44,30.13,260.44,32.4,260.88,32.86Z"/><path id="_Path_17" data-name="&lt;Path&gt;" class="cls-23" d="M277,27.1c1.06.33,1.59,2,1.18,3.78s-1.61,2.92-2.67,2.59-1.59-2-1.18-3.78S276,26.77,277,27.1Z"/><path id="_Path_18" data-name="&lt;Path&gt;" class="cls-24" d="M279.13,33.08c-.59,1.5-1.59,2.48-2.39,2.27s-1.23-1.95-.71-3.8a6.36,6.36,0,0,1,.79-1.76C277.2,30.48,278.77,32.65,279.13,33.08Z"/><path id="_Path_19" data-name="&lt;Path&gt;" class="cls-25" d="M258.46,9.51c1.74-.21,3.48-.43,5.23-.63,4.49-.51,9-.94,13.48-1.25,8.83,5,8.41,19.34,8.41,19.34s-1,.63-1.72-1.28c-1.68-4.37-5.61-12.54-9.26-12.07,0,0-4.81,3.14-8.49,3.45A12.32,12.32,0,0,1,259,15.54c-3.14.49-6.42,8.89-6.93,15.44C252.09,31,248.54,16.5,258.46,9.51Z"/><path id="_Path_20" data-name="&lt;Path&gt;" class="cls-25" d="M256.37,9.78c2.44-.31,4.87-.61,7.31-.89,4.54-.51,9.1-1,13.66-1.27,1.31-.09,2.63-.23,4-.36,1.68,4.34,3.32,8.69,5.1,13-.48,2.77-1,4.8-1,4.8S280,13.22,277.26,11.76s-19.13,3.19-19.13,3.19a8.21,8.21,0,0,1-3.47-1.9C255.26,12,255.82,10.87,256.37,9.78Z"/><path id="_Path_21" data-name="&lt;Path&gt;" class="cls-25" d="M254.45,13.45c.5-.89,1-1.8,1.44-2.72,4.12,1.22-3,8.42-3,8.42L252.09,31a64.24,64.24,0,0,1-1.87-10.55C251.66,18.12,253.12,15.82,254.45,13.45Z"/><path id="_Path_22" data-name="&lt;Path&gt;" class="cls-25" d="M277.35,7.62l.48,0c1.16,2.6-2.16,2-6.21.5C273.52,7.91,275.43,7.75,277.35,7.62Z"/><path id="_Path_23" data-name="&lt;Path&gt;" class="cls-26" d="M254.45,13.45l.39-.72A19.23,19.23,0,0,0,259,15.54c-3.14.49-6.42,8.89-6.93,15.44a64.21,64.21,0,0,1-1.87-10.55C251.66,18.12,253.12,15.82,254.45,13.45Z"/><path id="_Path_24" data-name="&lt;Path&gt;" class="cls-27" d="M284.06,25.05a32.32,32.32,0,0,1-7.64,2.81,76.41,76.41,0,0,1-14.9,2.25,27.43,27.43,0,0,1-10-1.28,60.83,60.83,0,0,1-1.33-8.41c1.44-2.31,2.91-4.61,4.23-7l.22-.4c.59-1.08,1.16-2.12,1.71-3.22.69-.09,1.4-.12,2.09-.2h.09c1.71-.21,3.42-.48,5.13-.67,4.48-.51,8.89-1,13.38-1.27H277l.25,0c1.31-.09,2.67-.24,4-.37,1.68,4.34,3.34,8.69,5.12,13-.29,1.7-.62,3-.83,3.86A16.62,16.62,0,0,1,284.06,25.05Z"/><path id="_Path_25" data-name="&lt;Path&gt;" class="cls-28" d="M278.57,19.48c-3.47-2.93-8.46-3.43-12.83-3.5a24.92,24.92,0,0,0-9.35,1.5c-3.26-.92-5.53-2.25-5.39-4.14.44-5.95,4.78-10,10.27-12,7.8-2.79,17.93-1.32,22.57,5.11,2.82,3.91,3.49,9,3.16,13.6,0,.66-.12,1.32-.22,2a.42.42,0,0,1-.54.32c-3.32-.91-5.42-1.51-6.75-1.92A6.26,6.26,0,0,0,278.57,19.48Z"/><path id="_Path_26" data-name="&lt;Path&gt;" class="cls-29" d="M278.37,9.56A22.79,22.79,0,0,1,267.5,3.23a10.23,10.23,0,0,1-1.95-3c6.9-1,14.46.88,18.28,6.18a15.4,15.4,0,0,1,1.72,3.1A13.82,13.82,0,0,1,278.37,9.56Z"/><path id="_Path_27" data-name="&lt;Path&gt;" class="cls-30" d="M246.23,23.59s.61,1.84,4.49,1.37c0,0,2.62-7.37,10.2-7.42S273,20,273,20s-15.1-9.74-20.69-5.8S245.93,21.5,246.23,23.59Z"/><path id="_Path_28" data-name="&lt;Path&gt;" class="cls-31" d="M284.51,21.87s-9.61,2.7-13.22.94-5.72-8.66-13.81-8.14-11.24,8.91-11.24,8.91-1.5-3.62,3.23-9.06S274.78,7.79,284.51,21.87Z"/><path id="_Path_29" data-name="&lt;Path&gt;" class="cls-29" d="M273.53,13.06a26,26,0,0,1,6.35,3.81q-4.59,2.76-9.1,5.66c-1.86-1.19-3.4-3.67-5.75-5.53Q269.27,15,273.53,13.06Z"/><path id="_Path_30" data-name="&lt;Path&gt;" class="cls-32" d="M246.1,22.47s3.15-8.39,11.24-8.91,10.19,6.38,13.81,8.14c3.08,1.5,10.53-.24,12.65-.79.24.32.48.63.71,1,0,0-9.61,2.7-13.22.94s-5.72-8.66-13.81-8.14-11.24,8.91-11.24,8.91a4.24,4.24,0,0,1-.22-1.41A2.37,2.37,0,0,0,246.1,22.47Z"/><ellipse class="cls-20" cx="262.51" cy="84.77" rx="5.83" ry="5.92"/><rect class="cls-33" x="221.91" y="114.6" width="165.58" height="32.06" rx="7.91" ry="7.91"/><text class="cls-34" transform="translate(259.77 137.23)">atdelivery.net</text></g></g></g>
</svg>