<svg xmlns="http://www.w3.org/2000/svg" viewBox="0 0 250.92 224.58"><defs><style>.cls-1{fill:#2a120c;opacity:0.12;}.cls-2{fill:#250e0d;}.cls-3{fill:#333232;}.cls-4{fill:#414141;}.cls-5{fill:#818181;}.cls-6{fill:#555151;}.cls-7{fill:#6b6c6c;}.cls-8{fill:#ec8c73;}.cls-9{fill:#533323;}.cls-10{fill:#f8a285;}.cls-11{fill:#ed2224;}.cls-12{fill:#613e2a;}.cls-13{fill:#ef9e20;}.cls-14{fill:#fcb019;}.cls-15{fill:#ee3324;}.cls-16{fill:#402311;}.cls-16,.cls-18,.cls-39{opacity:0.1;}.cls-17,.cls-18{fill:#431813;}.cls-19,.cls-20{fill:#fff;}.cls-19{opacity:0.08;}.cls-21{fill:#3d160f;}.cls-22{fill:#e59a24;}.cls-23{fill:#ffc840;}.cls-24{fill:#2b2727;}.cls-25{fill:#f04841;}.cls-26{fill:#2a2d30;}.cls-27{fill:#41454a;}.cls-28{fill:#303335;}.cls-29{fill:#4d5155;}.cls-30{fill:#35383e;}.cls-31,.cls-39{fill:#010101;}.cls-31{opacity:0.09;}.cls-32{fill:#222628;}.cls-33{fill:#242628;}.cls-34{fill:#2e3235;}.cls-35{fill:#575050;}.cls-36{fill:#daae91;}.cls-37{fill:#ba8c73;}.cls-38{fill:#d98071;}.cls-40{fill:#edc9aa;}.cls-41{fill:#c49279;}.cls-42{fill:#ce9e84;}</style>
<style>
  @keyframes mouth {
    10%, 90% {
      transform: scale(0.8, 0.6);
    }
    20%, 80% {
      transform: scale(0.9, 0.8);
    }
    30%, 50%, 70% {
      transform: scale(0.7, 0.4);
    }
    40%, 60% {
      transform: scale(1, 1);
    }
  }
  .mouth {
    transform-origin: 161.29px 40.07px;
    animation-name: mouth;
    animation-duration: 2s;
    animation-iteration-count: infinite;
    animation-timing-function: cubic-bezier(.36,.07,.19,.97) both;
  }
</style>
</defs><title>Asset 2</title><g id="Layer_2" data-name="Layer 2"><g id="_6-7" data-name="6-7"><g id="_Group_" data-name="&lt;Group&gt;"><path id="_Path_" data-name="&lt;Path&gt;" class="cls-1" d="M250.92,218.33S195,224.58,126,224.58,1.05,218.33,1.05,218.33,57,212.09,126,212.09,250.92,218.33,250.92,218.33Z"/><path id="_Path_2" data-name="&lt;Path&gt;" class="cls-2" d="M183.85,13.67s5,.15,5.78,13.54-4.36,20.9-1.78,25.51a6.85,6.85,0,0,0,5.63,3.35s-4.13,4.72-14.83,3.71c-9.08-.86-18.11-8.4-14-34.71S183.85,13.67,183.85,13.67Z"/><g id="_Group_2" data-name="&lt;Group&gt;"><path id="_Path_3" data-name="&lt;Path&gt;" class="cls-3" d="M140.2,149.88l-36.74-.16a2.41,2.41,0,0,0-2.36,1.86l-14.65,62a2.41,2.41,0,0,0,2.35,3h0a2.41,2.41,0,0,0,2.35-1.86l13.82-59a2.41,2.41,0,0,1,2.32-1.86l28.52-.18a2.41,2.41,0,0,1,2.35,1.75l17,59.36a2.41,2.41,0,0,0,2.32,1.75h.39a2.41,2.41,0,0,0,2.32-3.08l-17.72-61.8A2.41,2.41,0,0,0,140.2,149.88Z"/><path id="_Path_4" data-name="&lt;Path&gt;" class="cls-4" d="M204.72,75.25,202.6,90H137q-.37,1.73-.76,3.45c-3.24,14.42-8.82,29.51-11,44.12-.37,2.53-2.35,5-5.22,4.7-8.66-1-21.54-.55-30.22-1.5l-.93-.11c.11,2.52.17,5,.2,7.56a2.61,2.61,0,0,0,2.6,2.58H193.32c5.13,0,7-3.61,7.61-7.4l7.9-67.25q0-.28.07-.55C209.08,73,205.09,72.64,204.72,75.25Z"/><path id="_Path_5" data-name="&lt;Path&gt;" class="cls-5" d="M196.95,143.66l8.76-70.35c.35-2.81,1-4.4-2.15-4.89l-56.16.11A17.12,17.12,0,0,0,130.85,83.4l-7.5,57.55Z"/><path id="_Path_6" data-name="&lt;Path&gt;" class="cls-4" d="M188.66,150.62H152.52a2.41,2.41,0,0,0-2.36,1.86l-14.65,62a2.41,2.41,0,0,0,2.35,3h0a2.41,2.41,0,0,0,2.35-1.86L154,156.77a3.11,3.11,0,0,1,2.58-2.24l28.25,0a2.41,2.41,0,0,1,2.35,1.75l17,59.36a2.41,2.41,0,0,0,2.32,1.75H207a2.41,2.41,0,0,0,2.32-3.08l-17.72-61.8A3.38,3.38,0,0,0,188.66,150.62Z"/><path id="_Path_7" data-name="&lt;Path&gt;" class="cls-6" d="M134.83,103.91c.09.2,0,.09,0,0Z"/><path id="_Path_8" data-name="&lt;Path&gt;" class="cls-6" d="M134.83,103.91h0C134.78,103.81,134.74,103.72,134.83,103.91Z"/><polygon id="_Path_9" data-name="&lt;Path&gt;" class="cls-6" points="134.82 103.91 134.83 103.91 134.83 103.91 134.82 103.91"/><rect id="_Rectangle_" data-name="&lt;Rectangle&gt;" class="cls-5" x="85.17" y="139.05" width="112.92" height="6.68" rx="2.47" ry="2.47"/><rect id="_Rectangle_2" data-name="&lt;Rectangle&gt;" class="cls-7" x="147.84" y="139.05" width="50.25" height="6.68" rx="2.47" ry="2.47"/><rect id="_Rectangle_3" data-name="&lt;Rectangle&gt;" class="cls-7" x="160.13" y="103.73" width="77.83" height="6.67" rx="2.47" ry="2.47" transform="translate(68.96 291.89) rotate(-83.14)"/></g><path id="_Path_10" data-name="&lt;Path&gt;" class="cls-8" d="M91.62,184.32c.12.63-4.12,14.6-4.12,14.6l11.34-2.86,1.92-12.25Z"/><path id="_Path_11" data-name="&lt;Path&gt;" class="cls-8" d="M97.22,190.32,88.49,197,76.61,213.7c.38.73,1.28.82,1.66,1.58H89.46l3.66-4.9.26,4.9H97.3l4.85-9Z"/><path id="_Path_12" data-name="&lt;Path&gt;" class="cls-9" d="M77.1,213.1s3.82.4,6.12-.69c2.72-1.29,5.1-3.69,7.68-5.3a60.52,60.52,0,0,1,9.86-5,.73.73,0,0,1,1,.53l1,4L97.3,217H93.38l-.26-4.9L89.46,217H72.82a2.31,2.31,0,0,1,1.62-3.84Z"/><g id="_Group_3" data-name="&lt;Group&gt;"><path id="_Path_13" data-name="&lt;Path&gt;" class="cls-10" d="M184.54,92.27a7.71,7.71,0,0,1,1.4.17,17.21,17.21,0,0,1,7.13,3.88c.16-4.4-.71-11-3.84-21.17-3-9.7-5.05-15.55-5.21-15.91l-3.2.28a12.52,12.52,0,0,1-3.58,6.5C180.89,75.44,183.79,85.46,184.54,92.27Z"/></g><path id="_Path_14" data-name="&lt;Path&gt;" class="cls-11" d="M135.6,142.21l-17.72-1.31-.55,0-.28,0h-.41s.06,0,0,0a1.79,1.79,0,0,0-.35,0,1.86,1.86,0,0,0-.75.17,2.18,2.18,0,0,0-1.14,1.29l-.12.69-12.58,46.68a2,2,0,0,1-1.91,1.5H89.62a1.47,1.47,0,0,1-1.45-1.68l8.61-50.2-.12.69A20.38,20.38,0,0,1,99,132.32a20.67,20.67,0,0,1,12.24-9.93,20.89,20.89,0,0,1,4-.79l.58,0,.63,0,.67,0h1.34l19.8-1.19Z"/><path id="_Path_15" data-name="&lt;Path&gt;" class="cls-8" d="M116.1,184.32c.12.63-4.12,14.6-4.12,14.6l11.35-2.86,1.92-12.25Z"/><path id="_Path_16" data-name="&lt;Path&gt;" class="cls-8" d="M146.61,70S134.88,93.32,129.25,95.7a24.62,24.62,0,0,1-12,1.34s-7.64-2.47-12.37-.72-6.22,7-6,7,30.79.5,33.95-.75,12.42-11.93,18.9-27.48S146.61,70,146.61,70Z"/><path id="_Path_17" data-name="&lt;Path&gt;" class="cls-8" d="M121.7,190.32,113,197,101.08,213.7c.38.73,1.28.82,1.66,1.58h11.19l3.66-4.9.26,4.9h3.92l4.85-9Z"/><path id="_Path_18" data-name="&lt;Path&gt;" class="cls-12" d="M101.57,213.1s3.82.4,6.12-.69c2.72-1.29,5.1-3.69,7.68-5.3a60.52,60.52,0,0,1,9.86-5,.73.73,0,0,1,1,.53l1,4L121.77,217h-3.92l-.26-4.9-3.66,4.9H97.29a2.31,2.31,0,0,1,1.62-3.84Z"/><path id="_Path_19" data-name="&lt;Path&gt;" class="cls-13" d="M148.31,65.14c-1.83,3.3-3.39,6.06-3.39,6.06,2.8,1.95,6.21,4,8.9,6.14,1.08-6.5,1.59-11.68,1.6-12.12.06-2-.64-7.58-.64-7.58S151.36,59.65,148.31,65.14Z"/><g id="_Group_4" data-name="&lt;Group&gt;"><path id="_Path_20" data-name="&lt;Path&gt;" class="cls-14" d="M152.18,60.45c-2.11,4,4.05,4,1.62,6.89-.58.69,1.55,3.68,1.57,4.56,3.67-8.48,6.06-15.62,6.24-16.16l-.78.11C157.08,56.4,153.91,57.17,152.18,60.45Z"/></g><path id="_Path_21" data-name="&lt;Path&gt;" class="cls-8" d="M174,55.11c-5.34.07-10.25.12-14.43.93-.39,1.29-1.9,2.88-2.42,4.13-.43,1-.83,2.07-1.21,3.12-.74,2.88-1.56,5.73-2.4,8.58s-2,3.89-2.84,6.8c.29.22.47.33.47.33s-.22,1.69-.54,4.39c8.23,1.74,16.48,3.38,24.76,4.82.26-5.42,2.49-14.86,4.1-23.06l-.42-.68C177.33,61.51,175.53,58.2,174,55.11Z"/><path id="_Path_22" data-name="&lt;Path&gt;" class="cls-14" d="M149.17,81.34c8.9,1.48,17.81,3,26.69,4.65.89-5.28,3-13.44,4.4-20.46-.14-.23-1-.82-1.13-1.05-1.79-3,7.4-7.89-1.76-9.36a14.85,14.85,0,0,0-4.12,0c-.95,3-1.94,6.36-4.37,8.55-1.4,1.26-2.71,2.23-4.61,2.29-5.62.19-4.43-7.61-4.12-10-4.54.57-4.16,9.67-6.64,11.69-6.12,5-6,9.84-4.91,12.33Z"/><path id="_Path_23" data-name="&lt;Path&gt;" class="cls-15" d="M179.54,75.74c-9.8-1.08-22.11-2.28-32-1.92-.16.49-2.08,13-2.32,14.4A125.62,125.62,0,0,1,133.72,122c5.82,1.71,12.43.85,18.62,1.44a79.4,79.4,0,0,0,20.58-.81c3.19-.52,5.11,1.75,8.28,1.15a5.52,5.52,0,0,0,3.42-2.06c.44-19.12-4.17-27.29-5.08-31.7A31.75,31.75,0,0,1,179.54,75.74Z"/><g id="_Group_5" data-name="&lt;Group&gt;"><path id="_Path_24" data-name="&lt;Path&gt;" class="cls-14" d="M175.83,60.12c1.34,4.21,1.37,11,2.34,15,3.66-.25,8.6-.87,11.28-2.87-1.65-6.63-4.51-14.4-8.86-16.16C179,55.41,175.83,60.12,175.83,60.12Z"/></g><path id="_Path_25" data-name="&lt;Path&gt;" class="cls-15" d="M183.44,127.8c-1.29,8.92-11.43,11.73-20.35,11.61l-21,.13h-.78s0,0,0,0a4.77,4.77,0,0,0-.53,0,4.27,4.27,0,0,0-1,.27,4.55,4.55,0,0,0-1.8,1.32,4.64,4.64,0,0,0-1,2.09l-.11.73L126.4,190.31a1.91,1.91,0,0,1-1.87,1.52h-11a1.7,1.7,0,0,1-1.68-1.93l7.31-49.46-.11.73a23,23,0,0,1,1.25-5.52,22.76,22.76,0,0,1,2.59-5.08,23.13,23.13,0,0,1,13.9-9.53,23.7,23.7,0,0,1,2.85-.48l.85-.07.71,0,.43,0h.65l6.86-.12,35.52,1.38S183.69,126.09,183.44,127.8Z"/><path id="_Path_26" data-name="&lt;Path&gt;" class="cls-16" d="M155.66,53.16a1.15,1.15,0,0,0-.12.51C155.6,53.5,155.63,53.33,155.66,53.16Z"/><path id="_Path_27" data-name="&lt;Path&gt;" class="cls-17" d="M166,2.25c-6.55,0-22.3,3.45-21,28.16,1.34,26,22.84,21.43,22.84,21.43s15.15-1.7,16.75-23.92S173.33,2.25,166,2.25Z"/><path id="_Path_28" data-name="&lt;Path&gt;" class="cls-8" d="M165,44.11c-2.28.31-4,3.09-3.65,5.64l.81,9.87c3-.51,5.92-1.06,8.89-1.58l-1.26-9.87A4.47,4.47,0,0,0,165,44.11Z"/><path id="_Path_29" data-name="&lt;Path&gt;" class="cls-10" d="M163.3,52.7a15.49,15.49,0,0,1-7.43-1.6C145.09,45.9,142.56,30,147,19.53l.07-.16a22.73,22.73,0,0,1,1.83-3.4,20.1,20.1,0,0,1,10-8.2,17.37,17.37,0,0,1,5.84-1C176.56,6.85,183.07,20,182.51,31,182,41.66,173.41,52.29,163.3,52.7Z"/><path id="_Path_30" data-name="&lt;Path&gt;" class="cls-10" d="M185,36.12c-.85,2.69-3,4.36-4.84,3.73s-2.61-3.32-1.76-6,3-4.36,4.84-3.73S185.85,33.43,185,36.12Z"/><path id="_Path_31" data-name="&lt;Path&gt;" class="cls-8" d="M179.71,36.44c-3,7.24-8.88,18.38-26.23,13.24a16.2,16.2,0,0,0,2.39,1.43,15.49,15.49,0,0,0,7.43,1.6c7.23-.29,13.66-5.81,16.94-12.83,1.8.55,3.92-1.11,4.76-3.75.07-.21.12-.42.17-.63C184.86,35.86,183,40,179.71,36.44Z"/><path id="_Path_32" data-name="&lt;Path&gt;" class="cls-8" d="M180.08,35s.6-4.37,3.77-3.27A3.72,3.72,0,0,0,182,35.23Z"/><path id="_Path_33" data-name="&lt;Path&gt;" class="cls-17" d="M166,2.25c-6.55,0-22.3,3.45-21,28.16,0,0,.67-11.19,7.63-16.73,4.49-3.57,6.76,2.14,10.23,1.91,6.73-.46,7.89-4.76,12.32-1.67,2.74,1.91,3.81,13.25,4.5,16.49.6,2.85,2.93-.43,2.93-.43C184.14,7.76,173.33,2.25,166,2.25Z"/><path id="_Path_34" data-name="&lt;Path&gt;" class="cls-18" d="M184.46,28.47c-7.33-2.2-15.88.87-23.17,1.71-6.84.79-15.05-.65-16-8.44,2.39-16.88,15-19.49,20.7-19.49,7.37,0,20.16,3.45,18.56,25.67C184.5,28.11,184.48,28.28,184.46,28.47Z"/><path id="_Path_35" data-name="&lt;Path&gt;" class="cls-19" d="M149.64,16.76a15.85,15.85,0,0,1,2.91-3.07l.25-.18a20.59,20.59,0,0,1,2.92-8.65,18.67,18.67,0,0,0-5,4A29.75,29.75,0,0,0,149.64,16.76Z"/><path id="_Path_36" data-name="&lt;Path&gt;" class="cls-19" d="M166.52,3.18c.34-.29.69-.57,1-.83A15.13,15.13,0,0,0,166,2.25a21.94,21.94,0,0,0-4.32.45c-.19.2-.39.39-.58.6a21,21,0,0,0-4.79,9.3,12.64,12.64,0,0,1,3.65,2C160.52,10.23,163.55,5.75,166.52,3.18Z"/><path id="_Path_37" data-name="&lt;Path&gt;" class="cls-20 mouth" d="M167.05,40.07l-11.53-.36a1,1,0,0,0-.92,1.36c1.16,3.09,3.61,5.27,6.49,5.36s5.45-1.93,6.79-4.94A1,1,0,0,0,167.05,40.07Z"/><path id="_Path_38" data-name="&lt;Path&gt;" class="cls-21" d="M170.93,28.83c-1.25-.23-2.55,1.05-2.92,2.87s.36,3.48,1.61,3.71,2.55-1.05,2.92-2.87S172.18,29.07,170.93,28.83Z"/><path id="_Path_39" data-name="&lt;Path&gt;" class="cls-21" d="M152.69,28.83c-1.25-.23-2.55,1.05-2.92,2.87s.36,3.48,1.61,3.71,2.55-1.05,2.92-2.87S153.94,29.07,152.69,28.83Z"/><path id="_Path_40" data-name="&lt;Path&gt;" class="cls-22" d="M138.24,13.49c-4.77,1.2-4.78,2.38-5.73,4.9,0,0,0,.1,0,.12l.11.2A9.74,9.74,0,0,0,137,22.06,21.67,21.67,0,0,0,145,23.78s.39-.77.54-1a13.27,13.27,0,0,1,4.52-4.07,19.49,19.49,0,0,1,3.27-1.51C147.47,15,140.73,12.87,138.24,13.49Z"/><path id="_Path_41" data-name="&lt;Path&gt;" class="cls-14" d="M157.84,1.16C151.7,3.06,146.74,7.3,146,13.73c-.79,6.87,28.64,7.89,28.64,7.89s-.94,0,9.82,3.34a.47.47,0,0,0,.6-.32c.14-.7.24-1.41.32-2.13.57-5,0-10.52-2.9-14.87C177.65.48,166.55-1.54,157.84,1.16Z"/><path id="_Path_42" data-name="&lt;Path&gt;" class="cls-23" d="M164.27,12.4c-6.75-3-26.5-1.47-30.31,2.17A5.64,5.64,0,0,0,132.51,17c-.22,1,0,.47,0,1.24a.39.39,0,0,1,0,.29c1.33-3.37,4.46-6.81,11.81-1.57,14.37,10.26,32.58,4.93,32.58,4.93S174.61,16.95,164.27,12.4Z"/><path id="_Path_43" data-name="&lt;Path&gt;" class="cls-14" d="M167.94,22.47a39.91,39.91,0,0,1-14.29-1.76c-4.87-1.53-8.38-4.92-13.15-6.55a8.37,8.37,0,0,0-3.39-.47l-.19,0a6.28,6.28,0,0,0-3.46,1.72,3.58,3.58,0,0,0-1,1.75,2.21,2.21,0,0,0,.07,1.4,12,12,0,0,1,1.13-2,5.12,5.12,0,0,1,3.82-2.24c2.51-.16,4.92,1.29,6.82,2.65C158.68,27.23,177,22.31,177,22.31a1.46,1.46,0,0,0-.41-.93C173.9,22.39,170.45,22.36,167.94,22.47Z"/><path id="_Path_44" data-name="&lt;Path&gt;" class="cls-14" d="M176.6,21.38l8.56,2.82s.74,1.21-.69.77-7.9-2.55-7.9-2.55Z"/><path id="_Path_45" data-name="&lt;Path&gt;" class="cls-24" d="M164.11,45.19h-2.53a2.05,2.05,0,0,0-2,2h0a2.05,2.05,0,0,0,2,2h2.53a2.05,2.05,0,0,0,2-2h0A2.05,2.05,0,0,0,164.11,45.19Z"/><g id="_Group_6" data-name="&lt;Group&gt;"><path id="_Path_46" data-name="&lt;Path&gt;" class="cls-24" d="M163.85,47.9l-.15-1.32c.7-.08,17.16-2.12,18.18-16.64l0-.17c.05-.15,5.27-14.74-.52-23.14C178.79,2.83,172.86.24,167.56.08h0c6-.55,12.06,1.63,14.92,5.79,6,8.71,1.27,22.88.8,24.24C182.13,45.67,164,47.87,163.85,47.9Z"/></g><g id="_Group_7" data-name="&lt;Group&gt;"><polygon id="_Path_47" data-name="&lt;Path&gt;" class="cls-5" points="154.66 57.64 154.67 57.64 154.66 57.63 154.66 57.64"/><path id="_Path_48" data-name="&lt;Path&gt;" class="cls-15" d="M161,55.8a8.69,8.69,0,0,0-2.22.19,14.1,14.1,0,0,0-4.16,1.65s0,0,0,0l-.06,0c-1.47,4.34-3.75,10.86-6.06,16.4-.1.29-.19.57-.26.85L153.12,77C156.43,69.23,159.89,59.78,161,55.8Z"/></g><path id="_Path_49" data-name="&lt;Path&gt;" class="cls-15" d="M178.28,55.29a10.79,10.79,0,0,0-1.6-.51,5.17,5.17,0,0,0-3.72.33,6,6,0,0,1-.14,1.35c-.57,5.22-1.46,10.78-2.11,14.73-1,5.94-1,6.06-.14,7.1l3.79-1c.6.73.92-.89.91-.8,0-.45.36-2.5.68-4.49C176.68,67.59,177.72,61.15,178.28,55.29Z"/><path id="_Path_50" data-name="&lt;Path&gt;" class="cls-25" d="M153.83,77.34s-10.9,14.78,3.71,15.44S170,78.29,170,78.29Z"/><path id="_Path_51" data-name="&lt;Path&gt;" class="cls-26" d="M101.62,29.39H41.68a2.87,2.87,0,0,0-2.71,3V82.22a2.87,2.87,0,0,0,2.71,3h59.94a2.87,2.87,0,0,0,2.71-3V32.38A2.87,2.87,0,0,0,101.62,29.39Z"/><path id="_Path_52" data-name="&lt;Path&gt;" class="cls-27" d="M97.05,29.39H37.11a2.87,2.87,0,0,0-2.71,3V82.22a2.87,2.87,0,0,0,2.71,3H97.05a2.87,2.87,0,0,0,2.71-3V32.38A2.87,2.87,0,0,0,97.05,29.39Z"/><path id="_Path_53" data-name="&lt;Path&gt;" class="cls-28" d="M84,45.29H51.06a2.87,2.87,0,0,0-2.71,3V75a2.87,2.87,0,0,0,2.71,3H84a2.87,2.87,0,0,0,2.71-3V48.28A2.87,2.87,0,0,0,84,45.29Z"/><path id="_Path_54" data-name="&lt;Path&gt;" class="cls-29" d="M80,45.29H50.48a4.21,4.21,0,0,0-4,4.39v24a4.21,4.21,0,0,0,4,4.39H80a4.21,4.21,0,0,0,4-4.39v-24A4.21,4.21,0,0,0,80,45.29Z"/><path id="_Path_55" data-name="&lt;Path&gt;" class="cls-28" d="M70.06,59.31H61.17A2.27,2.27,0,0,0,59,61.67v38.55H72.22V61.67A2.27,2.27,0,0,0,70.06,59.31Z"/><path id="_Path_56" data-name="&lt;Path&gt;" class="cls-30" d="M68.06,59.31H59.17A2.27,2.27,0,0,0,57,61.67v38.55H70.22V61.67A2.27,2.27,0,0,0,68.06,59.31Z"/><rect id="_Path_57" data-name="&lt;Path&gt;" class="cls-31" x="75.78" y="78.04" width="5.81" height="1.18"/><path id="_Path_58" data-name="&lt;Path&gt;" class="cls-32" d="M75.78,81.85a.48.48,0,0,0,.45.5H81a.66.66,0,0,0,.63-.69V78H75.78Z"/><rect id="_Rectangle_4" data-name="&lt;Rectangle&gt;" class="cls-33" x="100.8" y="97.8" width="53.88" height="4.18" rx="1.55" ry="1.55"/><path id="_Path_59" data-name="&lt;Path&gt;" class="cls-34" d="M74.23,81.85a.48.48,0,0,0,.45.5h4.73a.66.66,0,0,0,.63-.69V78H74.23Z"/><rect id="_Path_60" data-name="&lt;Path&gt;" class="cls-31" x="74.23" y="78.04" width="5.81" height="1.18"/><path id="_Path_61" data-name="&lt;Path&gt;" class="cls-32" d="M56.25,50.57H48.09a.25.25,0,0,0-.24.26v.29a.25.25,0,0,0,.24.26h8.16a.25.25,0,0,0,.24-.26v-.29A.25.25,0,0,0,56.25,50.57Z"/><path id="_Path_62" data-name="&lt;Path&gt;" class="cls-32" d="M56.25,52.44H48.09a.25.25,0,0,0-.24.26V53a.25.25,0,0,0,.24.26h8.16a.25.25,0,0,0,.24-.26V52.7A.25.25,0,0,0,56.25,52.44Z"/><path id="_Path_63" data-name="&lt;Path&gt;" class="cls-32" d="M56.25,54.31H48.09a.25.25,0,0,0-.24.26v.29a.25.25,0,0,0,.24.26h8.16a.25.25,0,0,0,.24-.26v-.29A.25.25,0,0,0,56.25,54.31Z"/><path id="_Path_64" data-name="&lt;Path&gt;" class="cls-32" d="M56.25,56.18H48.09a.25.25,0,0,0-.24.26v.29a.25.25,0,0,0,.24.26h8.16a.25.25,0,0,0,.24-.26v-.29A.25.25,0,0,0,56.25,56.18Z"/><path id="_Path_65" data-name="&lt;Path&gt;" class="cls-32" d="M56.25,58.06H48.09a.25.25,0,0,0-.24.26v.29a.25.25,0,0,0,.24.26h8.16a.25.25,0,0,0,.24-.26v-.29A.25.25,0,0,0,56.25,58.06Z"/><path id="_Path_66" data-name="&lt;Path&gt;" class="cls-32" d="M56.25,59.93H48.09a.25.25,0,0,0-.24.26v.29a.25.25,0,0,0,.24.26h8.16a.25.25,0,0,0,.24-.26v-.29A.25.25,0,0,0,56.25,59.93Z"/><path id="_Path_67" data-name="&lt;Path&gt;" class="cls-32" d="M56.25,61.8H48.09a.25.25,0,0,0-.24.26v.29a.25.25,0,0,0,.24.26h8.16a.25.25,0,0,0,.24-.26v-.29A.25.25,0,0,0,56.25,61.8Z"/><path id="_Path_68" data-name="&lt;Path&gt;" class="cls-32" d="M56.25,63.68H48.09a.25.25,0,0,0-.24.26v.29a.25.25,0,0,0,.24.26h8.16a.25.25,0,0,0,.24-.26v-.29A.25.25,0,0,0,56.25,63.68Z"/><path id="_Path_69" data-name="&lt;Path&gt;" class="cls-32" d="M56.25,65.55H48.09a.25.25,0,0,0-.24.26v.29a.25.25,0,0,0,.24.26h8.16a.25.25,0,0,0,.24-.26v-.29A.25.25,0,0,0,56.25,65.55Z"/><path id="_Path_70" data-name="&lt;Path&gt;" class="cls-32" d="M56.25,67.42H48.09a.25.25,0,0,0-.24.26V68a.25.25,0,0,0,.24.26h8.16a.25.25,0,0,0,.24-.26v-.29A.25.25,0,0,0,56.25,67.42Z"/><path id="_Path_71" data-name="&lt;Path&gt;" class="cls-32" d="M56.25,69.3H48.09a.25.25,0,0,0-.24.26v.29a.25.25,0,0,0,.24.26h8.16a.25.25,0,0,0,.24-.26v-.29A.25.25,0,0,0,56.25,69.3Z"/><path id="_Path_72" data-name="&lt;Path&gt;" class="cls-32" d="M56.25,71.17H48.09a.25.25,0,0,0-.24.26v.29a.25.25,0,0,0,.24.26h8.16a.25.25,0,0,0,.24-.26v-.29A.25.25,0,0,0,56.25,71.17Z"/><path id="_Path_73" data-name="&lt;Path&gt;" class="cls-32" d="M56.25,73H48.09a.25.25,0,0,0-.24.26v.29a.25.25,0,0,0,.24.26h8.16a.25.25,0,0,0,.24-.26V73.3A.25.25,0,0,0,56.25,73Z"/><g id="_Group_8" data-name="&lt;Group&gt;"><polygon id="_Path_74" data-name="&lt;Path&gt;" class="cls-32" points="78.05 100.51 78.09 82.32 76.8 82.36 76.8 100.51 78.05 100.51"/></g><path id="_Path_75" data-name="&lt;Path&gt;" class="cls-33" d="M98.44,97.8H40.28A1.33,1.33,0,0,0,39,99.14v1.22a1.33,1.33,0,0,0,1.32,1.34H98.44a1.33,1.33,0,0,0,1.32-1.34V99.14A1.33,1.33,0,0,0,98.44,97.8Z"/><path id="_Path_76" data-name="&lt;Path&gt;" class="cls-27" d="M78.13,97.83H39.92a1,1,0,0,0-.95,1v1.86a1,1,0,0,0,.95,1H78.13a1,1,0,0,0,.95-1V98.81A1,1,0,0,0,78.13,97.83Z"/><path id="_Path_77" data-name="&lt;Path&gt;" class="cls-35" d="M150.31,94.53h0C150.36,94.6,150.41,94.67,150.31,94.53Z"/><path id="_Path_78" data-name="&lt;Path&gt;" class="cls-35" d="M150.31,94.53c-.1-.14,0-.07,0,0Z"/><polygon id="_Path_79" data-name="&lt;Path&gt;" class="cls-35" points="150.31 94.53 150.31 94.53 150.31 94.53 150.31 94.53"/><path id="_Path_80" data-name="&lt;Path&gt;" class="cls-35" d="M143.71,94.82h0C143.76,94.89,143.82,95,143.71,94.82Z"/><path id="_Path_81" data-name="&lt;Path&gt;" class="cls-35" d="M143.71,94.82c-.1-.13-.05-.07,0,0Z"/><polygon id="_Path_82" data-name="&lt;Path&gt;" class="cls-35" points="143.71 94.82 143.71 94.82 143.71 94.82 143.71 94.82"/><rect id="_Rectangle_5" data-name="&lt;Rectangle&gt;" class="cls-36" x="11.65" y="104.94" width="224.65" height="10.07" rx="3.3" ry="3.3"/><path id="_Path_83" data-name="&lt;Path&gt;" class="cls-37" d="M234.7,104.94H162.21V115h74.09v-8.46A1.61,1.61,0,0,0,234.7,104.94Z"/><path id="_Path_84" data-name="&lt;Path&gt;" class="cls-38" d="M152.34,95.7S143.6,100,142,101.19s4.33.68,4.33.68Z"/><path id="_Path_85" data-name="&lt;Path&gt;" class="cls-10" d="M161.69,97.81s-6-3.24-8.38-2.59-11.1,7.63-10.1,8.24,4.26-1,4.26-1-.89,1.19,3.53,1.22,11.82,0,11.82,0Z"/><path id="_Path_86" data-name="&lt;Path&gt;" class="cls-10" d="M161.91,97.77c6.36,1.21,19-9,27.69-4.75s-.44,5.63-5.26,6.63-16,2.84-23.53,2.36S160.9,97.58,161.91,97.77Z"/><path id="_Path_87" data-name="&lt;Path&gt;" class="cls-39" d="M236.31,113.64v-7.32a1.38,1.38,0,0,0-1.37-1.37H13a1.38,1.38,0,0,0-1.37,1.37v6H162.21Z"/><rect id="_Rectangle_6" data-name="&lt;Rectangle&gt;" class="cls-36" x="74.57" y="101.7" width="174.55" height="6.49" rx="2.4" ry="2.4"/><rect id="_Rectangle_7" data-name="&lt;Rectangle&gt;" class="cls-40" y="101.7" width="174.55" height="6.49" rx="2.4" ry="2.4"/><rect id="_Rectangle_8" data-name="&lt;Rectangle&gt;" class="cls-37" x="220.73" y="207.13" width="7.61" height="9.82" transform="translate(449.07 424.08) rotate(180)"/><rect id="_Rectangle_9" data-name="&lt;Rectangle&gt;" class="cls-41" x="214.73" y="207.13" width="7.61" height="9.82" transform="translate(437.08 424.08) rotate(180)"/><rect id="_Rectangle_10" data-name="&lt;Rectangle&gt;" class="cls-37" x="145.74" y="207.13" width="7.61" height="9.82" transform="translate(299.08 424.08) rotate(180)"/><rect id="_Rectangle_11" data-name="&lt;Rectangle&gt;" class="cls-42" x="139.74" y="207.13" width="7.61" height="9.82" transform="translate(287.08 424.08) rotate(180)"/><rect id="_Rectangle_12" data-name="&lt;Rectangle&gt;" class="cls-37" x="24.73" y="207.13" width="7.61" height="9.82" transform="translate(57.07 424.08) rotate(180)"/><rect id="_Rectangle_13" data-name="&lt;Rectangle&gt;" class="cls-42" x="18.73" y="207.13" width="7.61" height="9.82" transform="translate(45.07 424.08) rotate(180)"/><rect id="_Rectangle_14" data-name="&lt;Rectangle&gt;" class="cls-37" x="95.54" y="207.13" width="7.61" height="9.82" transform="translate(198.69 424.08) rotate(180)"/><rect id="_Rectangle_15" data-name="&lt;Rectangle&gt;" class="cls-42" x="89.54" y="207.13" width="7.61" height="9.82" transform="translate(186.7 424.08) rotate(180)"/><rect id="_Rectangle_16" data-name="&lt;Rectangle&gt;" class="cls-37" x="154.64" y="114.69" width="81.67" height="94.26" transform="translate(390.94 323.64) rotate(180)"/><rect id="_Rectangle_17" data-name="&lt;Rectangle&gt;" class="cls-36" x="11.65" y="112.88" width="150.56" height="96.07" transform="translate(173.86 321.83) rotate(180)"/></g></g></g></svg>