<svg xmlns="http://www.w3.org/2000/svg" viewBox="0 0 128.23 299.51"><defs><style>.cls-1{isolation:isolate;}.cls-2,.cls-4,.cls-7{fill:#7c2721;}.cls-3,.cls-5{fill:#a4352b;}.cls-10,.cls-11,.cls-12,.cls-13,.cls-14,.cls-15,.cls-16,.cls-17,.cls-18,.cls-19,.cls-20,.cls-21,.cls-22,.cls-23,.cls-24,.cls-3,.cls-30,.cls-4,.cls-7,.cls-8,.cls-9{fill-rule:evenodd;}.cls-6{opacity:0.5;}.cls-7{opacity:0.6;}.cls-8{fill:#e73e2b;}.cls-9{fill:#5d7492;}.cls-10{fill:#b82825;}.cls-11{fill:#f9b398;}.cls-12,.cls-28{fill:#ed9675;}.cls-13{fill:#46505e;}.cls-14,.cls-26{fill:#6d301b;}.cls-15{fill:#fbb77b;}.cls-16{fill:#d0644d;}.cls-17{fill:#7a91b1;}.cls-18{fill:#5d7493;}.cls-19{fill:#ec9e69;}.cls-20{fill:#eea06a;}.cls-21{fill:#6c301b;}.cls-22{fill:#eda06b;}.cls-23{fill:#824228;}.cls-24,.cls-27{fill:#f8f7f6;}.cls-25,.cls-29{fill:#fde1e1;}.cls-29{mix-blend-mode:multiply;}.cls-30{fill:#e8e7e1;}.cls-31{fill:#dfc4c3;}</style>
<style>
  @keyframes eye__part {
    0%, 100% {
      transform: scale(1);
    }
    50% {
      transform: scale(0);
    }
  }
  @keyframes eye__part01 {
    0%, 100% {
      transform: translateX(-0.65px);
    }
    50% {
      transform: translateX(0.15px);
    }
  }
  .eye__part {
    <!-- animation-name: eye__part;
    animation-duration: 1s;
    animation-iteration-count: infinite;
    animation-timing-function: linear; -->
  }
  .right-eye__part01, .left-eye__part01 {
    animation-name: eye__part01;
    animation-duration: 1s;
    animation-iteration-count: infinite;
    animation-timing-function: cubic-bezier(.36,.07,.19,.97) both;
    animation-fill-mode: both;
  }
  .right-eye__part01 {
    transform-origin: 34.86px 27.87px;
  }
  .right-eye__part02 {
    transform-origin: 34.86px 27.87px;
  }
  .right-eye__part03 {
    transform-origin: 34.86px 27.87px;
  }
  .left-eye__part01 {
    transform-origin: 46.1px 27.93px;
  }
  .left-eye__part02 {
    transform-origin: 46.1px 27.93px;
  }
  .left-eye__part03 {
    transform-origin: 46.1px 27.93px;
  }
  @keyframes right-leg__part {
    10%, 90% {
        transform: translateY(-1.5px);
    }
    20%, 80% {
        transform: translateY(-0.5px);
    }
    30%, 50%, 70% {
        transform: translateY(-2px);
    }
    40%, 60% {
        transform: translateY(0px);
    }
  }
  .right-leg__part {
    transform-origin: 20.7px 269.69px;
    animation-name: right-leg__part;
    animation-duration: 2s;
    animation-iteration-count: infinite;
    animation-timing-function: cubic-bezier(.36,.07,.19,.97) both;
  }
  .right-leg__part01 {
  }
  .right-leg__part02 {
  }
  .right-leg__part03 {
  }
</style>
</defs><title>Asset 1</title><g class="cls-1"><g id="Layer_2" data-name="Layer 2"><g id="_6-7" data-name="6-7"><path class="cls-2" d="M37.61,272.77s6,.3,7.56-.85,1.24-1.22,0-1.46-8.37-.33-8.37-.33Z"/><path class="cls-3" d="M67.19,284c.28,1.24,0,2-.87,2.54s-6.25,1.78-17.51-2.54-10.62-4.71-11.16-9.1,3.81.2,3.81.2,15.41,6,16.88,6.39,6.71,2.28,7.22,2.28A12.11,12.11,0,0,1,67.19,284Z"/><path class="cls-2" d="M62.28,288.28a38.67,38.67,0,0,1-12.68-2.7c-7.4-2.77-14.4-6.17-15.51-7.12-.37-.32-1.7-1.5-1.38-1.87s-.74-8.7,0-8.7c3.12,0,3,8.47,3.12,8.54a63.22,63.22,0,0,0,14.39,7.49c8,3,14.16,3,15.54,1.89.38-.31,1.8-1.75,2-1.32.64,1.21-.53,2.38-.9,2.69C66,287.92,64.36,288.28,62.28,288.28Z"/><path class="cls-3" d="M46.52,270.22c-.3.14-.31.46-.43.71s-.23,0-.35.19c-.39.76-1.11.55-1.64.38a18.59,18.59,0,0,0-2.85-.21,49.78,49.78,0,0,0-6.12-.75c-.4,0-.77,0-.7.51.22,1.61.09,3.29,1,4.78a4.56,4.56,0,0,0,1.85,1.69c3.38,1.05,10.58,4.84,13.29,5.75,1.44.48,2.9.92,4.35,1.39.47.15.61,0,.63-.47a2.12,2.12,0,0,1,.48-1.65c.1-.1.22-.22.38-.16s.14.23.14.38c0,.32-.06.65-.08,1-.1,1.22,0,1.42,1.13,1.64a47,47,0,0,0,6.31,1.12,4.67,4.67,0,0,0,1.92-.11c.21-.08.41-.38.54-.16a3.14,3.14,0,0,0,.09-5.26C63.14,278.83,63.14,280.87,46.52,270.22Z"/><path class="cls-4" d="M43.24,270.76s.44.08-1.47-.63a14.71,14.71,0,0,1-1.63-.62l-2.41-.41a37.46,37.46,0,0,0-3.62,1,4.87,4.87,0,0,0,0,1.79,20.75,20.75,0,0,1,.32,2.94,5.56,5.56,0,0,0,.71,1.86A7.53,7.53,0,0,0,37,278.37c.81.53,3.54,1.39,1.84.46,0,0-2.21-5.78-.8-6.06a63.9,63.9,0,0,1,6.55-.85s2.17-.27,1.48-.72a20.38,20.38,0,0,0-4.21-.89l-1.93.66Z"/><path class="cls-2 right-leg__part right-leg__part01" d="M20.7,269.69a29.84,29.84,0,0,1-.58,5.46c-.58,2.74-2.76,12.26-2.33,16.18s7.05,8.58,12.62,8.15,5.28-4.44,5.42-7.28-3.12-19.15-2.62-22C33.41,269,20.7,269.69,20.7,269.69Z"/><path class="cls-5 right-leg__part right-leg__part02" d="M20.7,267.78a29.85,29.85,0,0,1-.58,5.46c-.58,2.74-2.76,12.26-2.33,16.18s7.05,8.59,12.62,8.15,5.28-4.44,5.42-7.28-3.12-19.15-2.62-22C33.41,267.07,20.7,267.78,20.7,267.78Z"/><g class="cls-6 right-leg__part right-leg__part03"><path class="cls-2" d="M33.48,271.36c.54-.45.36-.58,0,0Z"/><path class="cls-2" d="M33.31,271.46c.32-.39-.43-1.34-.43-1.34s2.58-1.78-2.18.64c-2.55,1.3-3.34,1.71-3.52,1.82l-2.71,1a16.62,16.62,0,0,0-1.21-5.88c-1.5.06-2.56.12-2.56.12a29.85,29.85,0,0,1-.58,5.46c-.58,2.74-2.76,12.26-2.33,16.18.22,1.94,1.94,4.06,4.3,5.65-1.55-2.88-.23-6.22,1-10.54a.63.63,0,0,0,.5.06,11.93,11.93,0,0,1,6.79-.23.68.68,0,0,0,.36-1.31,13.12,13.12,0,0,0-7.29.17c.11-.41.21-.82.31-1.25a12.92,12.92,0,0,1,8.2-.38c.85.2,1.22-1.12.36-1.31a15.1,15.1,0,0,0-8.24.11c.1-.55.19-1.11.26-1.69a12.49,12.49,0,0,1,2.51-.17l.17,0a8.15,8.15,0,0,1,2.66.54c.83.3,1.18-1,.36-1.31a9.62,9.62,0,0,0-2.51-.56l-.17,0a13,13,0,0,0-2.89.12c0-.44,0-.89.06-1.34a9.53,9.53,0,0,0,2.26.28c.51,0,6.08-3.56,6.41-4.32a4.31,4.31,0,0,1,.29-.55,5.11,5.11,0,0,1-.67.46A3.14,3.14,0,0,0,33.31,271.46Z"/></g><path class="cls-4" d="M31.37,271.19c.46-.23,1-.43,1.16-1.07Z"/><path class="cls-7" d="M55.83,276.76a6.28,6.28,0,0,0,.18-.82c0-.63-.34-.91-.94-.72-.28.09-.55.21-.82.32s-.44,0-.49-.33c-.13-1-.51-1.21-1.43-.88a16.14,16.14,0,0,1-2,.83.53.53,0,0,0-.43.74c.15.44.48.34.8.21l1.83-.72c.19.22,0,.35,0,.48,0,1.11.28,1.32,1.31.93l.49-.2c.44-.19.66-.06.48.41s-.29.84.09,1.13.78,0,1.13-.23.59-.38.91-.54.53-.35.39-.68-.49-.25-.77-.18S56.16,276.64,55.83,276.76Z"/><path class="cls-7" d="M48,274.79a2.45,2.45,0,0,0,.48-.19c.44-.29.86-.59,1.29-.9a.47.47,0,0,0,.18-.68c-.17-.29-.39-.28-.67-.17a3.94,3.94,0,0,0-1.46,1.09C47.52,274.21,47.54,274.56,48,274.79Z"/><path class="cls-4" d="M32.71,269.61l2,2.3Z"/><g id="kcO2D6"><path class="cls-8" d="M66.26,100.58Q65.85,95.48,65,90.42a106.84,106.84,0,0,0-2.37-11.58,22,22,0,0,0-9.33-12.55,26.82,26.82,0,0,0-9.8-4.09,24.89,24.89,0,0,0-3.63-.74c-.47-.07-1.74-.34-1.87,0s1.07.86,1.49,1.14c.67.45,1.52.34,2.24.64a4.74,4.74,0,0,1,3.47,3.82,9.9,9.9,0,0,1,.18,5.11c-.9,3.7-3.13,5.31-7,5.77a9.7,9.7,0,0,1-4.8-.94,17.66,17.66,0,0,1-7.82-5.7,24.18,24.18,0,0,1-1.73-3,2.28,2.28,0,0,0-.62-.95.83.83,0,0,0-.29,0,3.75,3.75,0,0,1-2-.54,34,34,0,0,0-4.86-2.11,2.15,2.15,0,0,0-1.78.1A23.18,23.18,0,0,0,6.74,71a5.81,5.81,0,0,0-1,2.35A71.22,71.22,0,0,0,4.05,85.79c-.24,3.74-.11,7.48-.13,11.22a54.83,54.83,0,0,0,.5,6.69c.12,1,.34,1.23,1.37,1.2a34.93,34.93,0,0,1,6.42.5,20.2,20.2,0,0,1,2.81.76c.84.26,1,.16,1.07-.71a71.43,71.43,0,0,0,.18-7.68,64.58,64.58,0,0,0-1.05-12.83c-.13-.72-.35-1.43-.52-2.19a1.06,1.06,0,0,1,.88,1.08c0,.44.16.87.15,1.32a82.75,82.75,0,0,0,.88,10.72c.53,5,1.21,10,2,15a6.36,6.36,0,0,0,.84,2.85.79.79,0,0,0,.71.13,5.56,5.56,0,0,0,1.57-1.65,16.46,16.46,0,0,0,2.53-3.71,1.25,1.25,0,0,1,1.28-.75,29.51,29.51,0,0,1,4.67.2,3.27,3.27,0,0,1,.52.11c.26.08.55.18.54.5s-.36.3-.61.32c-1.92.17-2.39.84-2.55,2.77a4.45,4.45,0,0,0,2.29,4.59,7.81,7.81,0,0,1,.69.55c2.25,1.71,4.24,3.74,6.48,5.47.4.31.71.83,1.35.65,1.31-1.83,3.33-1.71,5.2-1.83a34.18,34.18,0,0,1,6.78.44,4.7,4.7,0,0,1,2.57,1.25,4,4,0,0,0,3.63.68,1,1,0,0,0,.18-.61c.27-3.72.13-7.46.26-11.18q.1-2.91.14-5.81c0-1,.09-1,1.09-1,1.62,0,3.23,0,4.85,0,.43,0,.9.08,1.22-.33-.21-.52-.69-.37-1.06-.38-1.56,0-3.12,0-4.68,0-1.21,0-1.23-.05-1.27-1.22-.11-3.5-.44-7-.68-10.47-.28-4.05-.68-8.09-1.28-12.11a25.08,25.08,0,0,1,.91,3.26c1.17,5,2.24,9.94,3.05,15a6.88,6.88,0,0,0,.21,1,1.28,1.28,0,0,0,1.24,1c1.42,0,2.82.18,4.22.34A.81.81,0,0,0,66.26,100.58Z"/><path class="cls-9" d="M15,147.47q.19,3.61.38,7.23c.16,3,.39,6.05.47,9.08.21,7.8.67,15.59,1,23.39.21,4.44.38,14.71.59,19.15.32,6.68.67,13.35,1,20,.21,4.27.38,8.53.59,12.8.27,5.65.57,11.29.83,16.94q.3,6.66.54,13.33c0,1,6.12,6.22,7,5.86,2-.81,5.34-3.87,5.8-4l.27-.11a4.18,4.18,0,0,1,2.31-.48c3.1.29,6.22.32,9.31.78.44.06,1.42.17,1.42.17a1.55,1.55,0,0,0,.24-.86,1.87,1.87,0,0,0-1.6-1.31c-2-.3-3.93-.42-5.9-.54-2.46-.15-2.54-.11-2.42-2.54.14-2.7.28-5.41.45-8.11.16-2.44.27-4.88.41-7.32.16-2.88.32-5.76.48-8.64.15-2.5.26-5,.4-7.5q.24-4.28.48-8.55c.14-2.44.28-4.88.4-7.32.15-2.94.33-5.88.48-8.82q.2-3.75.41-7.5c.16-2.85.31-11.52.47-14.37q.21-3.66.41-7.32c.16-2.94.32-5.88.49-8.82.13-2.23.27-4.47.36-6.7a10.53,10.53,0,0,1,.86-3.93c.2-.45.63-1.06,0-1.43s-1,.18-1.26.57c-.95,1.29-2.34,1.33-3.72,1.45s-1.46.3-1.29,1.6a12.08,12.08,0,0,1,.08,1.5c0,2.56,0,5.13,0,7.7,0,6.75-.38,19.31-.41,26.05,0,3-.08,6-.11,9,0,3.83-.34,7.65-.49,11.47-.11,2.94-.28,5.88-.41,8.82s-.24,6.18-.47,9.26c-.1,1.38-.14,2.77-.18,4.15-.1,3.09-.26,6.18-.43,9.27-.22,4.14-.34,8.29-.64,12.44-.1,1.44-.1,2.88-.2,4.32a1.46,1.46,0,0,1-.81,1.34c-2.15,1.18-3.16,2.28-5.31,3.45-.82.45-1.13.26-1.18-.67-.15-3.09-.57-6.5-.71-9.59-.17-3.68-.81-7-1.08-10.68-.12-1.59-.34-3.21-.39-4.8q-.11-3.36-.26-6.71c-.22-4.7-.17-9.42-.79-14.11a45.11,45.11,0,0,1-.23-7A3,3,0,0,1,24,216.36c1.34-.93,1.36-1.06.62-2.52-1.12-2.21-.4-4.45-1.59-6.63a4.11,4.11,0,0,1-.41-1.88c-.09-2.39.19-4.77.22-7.16s-.61-10.41-.68-12.71c0-1.29-.12-2.59-.12-3.88,0-4.21-.15-8.44.2-12.64.46-5.42-.92-10.84-.85-16.26a13.33,13.33,0,0,1,.37-2.89,3.56,3.56,0,0,0,0-2.09c-.36-.44-.85-.33-1.31-.25-1.14.18-2.28.3-3.41.51A1.93,1.93,0,0,1,15,147.47Z"/><path class="cls-10" d="M57,123.41c-.67-.07-1.34-.12-2-.21a2.17,2.17,0,0,1-1.51-.8,2.77,2.77,0,0,0-1.72-1,29.54,29.54,0,0,0-10.67-.28,2.9,2.9,0,0,0-2.27,1.74c.21.39.63.39,1,.51A6.82,6.82,0,0,1,43.08,125c.23.61-.15.85-.63.91A23.69,23.69,0,0,0,38,127.09a3.74,3.74,0,0,1-2.26.08,2.7,2.7,0,0,0-1.49,0,28.63,28.63,0,0,1-4.52.74,4.19,4.19,0,0,1-3.31-.8,10.23,10.23,0,0,1-2.92-2.76c-.27-.49-.71-.53-1.22-.41-1.8.44-3.64.69-5.45,1.11a31.2,31.2,0,0,1-4.63.63c-.32,0-.74-.08-.83.42l0,0c.24.24.62-.06.86.21a56.23,56.23,0,0,1,.9,6c.39,2.94.75,5.88,1.14,8.82a2.9,2.9,0,0,0,.28,1,3.17,3.17,0,0,1,.37,2,1.12,1.12,0,0,0,1,.19c4.21-.5,8.44-.86,12.67-1.1,2.2-.13,4.4-.27,6.62-.24q6.4.07,12.81,0c2.24,0,4.47.15,6.7.26a1.33,1.33,0,0,0,.93-.17l.31-.88c.15-.49-.23-.55-.53-.6a14.27,14.27,0,0,0-1.75-.22c-4-.23-8.07-.17-12.1-.18s-8,0-12,.19c-1.64.1-3.29.25-4.93.33a1.38,1.38,0,0,1-1.21-1.94c.14-.3.42-.31.68-.31,1.06,0,2.12-.18,3.17-.16,3,0,6-.18,9-.22,3.41,0,6.82-.27,10.23-.47,3-.17,5.93-.47,8.9-.58a1.6,1.6,0,0,0,1.09-.28,16,16,0,0,0,.3-3.31,55.87,55.87,0,0,0,.21-5.7A26.23,26.23,0,0,0,57,123.41Z"/><path class="cls-11" d="M42.63,51.87a8.25,8.25,0,0,0,4.16-3.35,24.87,24.87,0,0,0,4.07-11.4,80,80,0,0,0,0-12,2.17,2.17,0,0,0-.13-.47s-.06,0-.05.06,0-.32,0-.42c-.91-3.35-4.1-5.49-7.59-5.9a27.74,27.74,0,0,1-3-.25,20.07,20.07,0,0,0-5.32,1A26.47,26.47,0,0,0,29,21.44a4.43,4.43,0,0,0-2.66,3.67,69.15,69.15,0,0,0-.58,8.1,10.54,10.54,0,0,1-.12,2.17,4.56,4.56,0,0,0,0,1.59,28.12,28.12,0,0,0,3.24,9.47,11.19,11.19,0,0,0,6.79,5.23,11,11,0,0,0,6.51.23A.71.71,0,0,1,42.63,51.87Z"/><path class="cls-12" d="M64.86,104.33a13.24,13.24,0,0,1-3.16.14q-1.77.05-3.54,0c-.58,0-.75.18-.76.75q-.05,5.57-.16,11.13c0,2.18-.11,4.35-.17,6.53.72-.42,0-1,.25-1.5a15.48,15.48,0,0,0,.24,2.59,8.52,8.52,0,0,0,3,4.7c1.77,1.35,3.79,1.1,5.76.65,2.41-.55,4.8-1.19,7.17-1.88a48.17,48.17,0,0,1,6.78-1.09.72.72,0,0,1,.43,0,14.92,14.92,0,0,0,4.23,1.12,7.27,7.27,0,0,0,5.13-.78A10,10,0,0,0,94.34,123a5.9,5.9,0,0,0,.16-1.22A2.19,2.19,0,0,0,91,120.14a1,1,0,0,1-1.12.17,1.68,1.68,0,0,0-1.13-.07,13.25,13.25,0,0,1-4.2.38c-3.69-.35-7,1.18-10.54,1.76a36.51,36.51,0,0,1-5.72.33c-.44,0-.61-.28-.84-.54-.22-.45.05-1-.16-1.42h0a.53.53,0,0,0-.25-.06c-1.19.13-1.19.13-1.37-1.06-.64-4.36-1.29-8.71-1.88-13.08-.14-1-.06-1.06.92-1.1a6,6,0,0,0,1.23-.11c.62-.15,1-.45.59-1.12A1.59,1.59,0,0,0,64.86,104.33Z"/><path class="cls-11" d="M41.85,63.08c-.36-.11-.13-.3-.49-.3a3.15,3.15,0,0,1-2.19-1.19,5.72,5.72,0,0,1-.63-2.16c-.26-1.5-.79-5.35-.79-5.35a5.86,5.86,0,0,1-1.94.82c-3,.27-4.36,1.77-6.63,3.71-.5.43-2.38,2.18-2.4,2.89a3,3,0,0,1-.62,1.71c-1,1.33-1.61,2.87-2.7,4.12,0,0,0,.11,0,.17A15.84,15.84,0,0,0,31,76.05a16,16,0,0,0,6.83,2.17c2.86.13,7-1.49,7.76-5.94a8.24,8.24,0,0,0-3-8.43C42.27,63.63,42.15,63.28,41.85,63.08Z"/><path class="cls-8" d="M57.38,9.17C56.1,7.8,47.59,8,47,7.46,45.41,6,45.31,4.82,43.25,3a11.65,11.65,0,0,0-8-2.95,16.35,16.35,0,0,0-9.82,2.37c-2.71,2.52-2.38,5.85-2.33,9.06A20.87,20.87,0,0,0,23.7,16c.19.81.4,1,1.06.53a50,50,0,0,1,11.68-5.41c.45-.24,1-.29,1.44-.55a7.77,7.77,0,0,1-1.15.43c-3.08,1.39-6,3-9,4.7a20,20,0,0,0-2,1.4c-.17.13-.4.27-.29.54s.31.21.51.23c4.4.32,8.29-.64,11.29-4.19s10.9-6.09,15.5-6a5.35,5.35,0,0,1,1.86.44C55,8.27,57.06,9.51,57.38,9.17Z"/><path class="cls-12" d="M33.42,18.18c-1.13.31-2.12.94-3.27,1.23a13.33,13.33,0,0,1-3.54.47,1.68,1.68,0,0,0-.9.14,5.07,5.07,0,0,0-1.59,3.45,34.32,34.32,0,0,0,.37,6.17,14.71,14.71,0,0,1-.14,3.08.72.72,0,0,1-.32.64c-.26.27-.29.67-.55.94a1.9,1.9,0,0,0-.69,2.08c.05.16,0,.32-.07.49-.22,1.09,0,1.45,1.12,1.68-.37.57-.5.62-.75.2s-.5-.92-1.14-.64c-.49.21-.58.79-.28,1.53a16.2,16.2,0,0,0,4,6.72c1.09,1.24.84,11.47.84,13.91,0,.48-1.19,1-1.68,1.23a3.11,3.11,0,0,1-.66,1.11,3.55,3.55,0,0,0-1,3.35c.08.51-.22,1,.13,1.52l.14,0a4.87,4.87,0,0,0,1.41-1.77c.52-.82,1-1.66,1.54-2.47.37-.55,1.19-3.51,3.12-4.7A31.45,31.45,0,0,1,36.3,55.1c1.16-.48,1.4-.05,1.44-1,.16-1.29,1.37-1.31,2.68-1.52a7.58,7.58,0,0,0,2.21-.68c-.51-.42-1,0-1.52,0a12.57,12.57,0,0,1-9.19-2.43c-2.38-1.74-3.56-4.25-4.52-6.88A18.34,18.34,0,0,1,25.89,36a84.44,84.44,0,0,1,.84-11.72,3.69,3.69,0,0,1,2.19-2.49,32.71,32.71,0,0,1,10-3.27,4.15,4.15,0,0,1,1.15-.16,20.64,20.64,0,0,0,3.47-.13c.52-.08.91-.35.86-.93s-.52-.66-1-.69a20.23,20.23,0,0,0-5.47.47,21.12,21.12,0,0,0-4,1.09A.55.55,0,0,1,33.42,18.18Z"/><path class="cls-10" d="M23.31,67.48a5.2,5.2,0,0,0,0-2,3.28,3.28,0,0,1,1.2-2.88c.36-.29.65-.62.32-1.12a.82.82,0,0,0-.68,0c-1.88,1-4,1.2-6,1.79A30.69,30.69,0,0,0,8.6,68,20.06,20.06,0,0,0,.44,82.37,75.6,75.6,0,0,0,.58,99.73c.18,1.67.21,3.35.37,5,0,.39-.64.79,0,1.15a27.27,27.27,0,0,1,9.45-.35,3.08,3.08,0,0,1,.5.14,6.34,6.34,0,0,0,2.44.63c.94.22,1.48.64,1.43,1.64a34.33,34.33,0,0,1,.08,4,1.61,1.61,0,0,0,.32,1.24,17.52,17.52,0,0,0,4.1.64.42.42,0,0,0,.25-.17,38.89,38.89,0,0,1-1.23-6.82c-.21-1.6-.61-3.16-.74-4.77s-.38-3-.48-4.45c-.14-2-.58-4-.77-6-.13-1.34-.32-2.68-.31-4a31.84,31.84,0,0,0-.16-4.14.71.71,0,0,0-.38-.63c-.39-.2-.76-.43-1.21-.69,2.2,7.92,1.86,16,1.61,24.12a22.18,22.18,0,0,0-6.5-1.47,33.93,33.93,0,0,0-3.7-.09c-.63,0-.9-.14-1-.86a102.52,102.52,0,0,1-.46-16.3,62,62,0,0,1,2-14.94,5.54,5.54,0,0,1,1.38-2.21,24.38,24.38,0,0,1,7-5.37,1.49,1.49,0,0,1,1.25-.09,39.52,39.52,0,0,1,5.42,2.34C21.94,67.53,22.58,68,23.31,67.48Z"/><path class="cls-13" d="M55.71,143c-7.09-.66-14.19-.4-21.28-.34a167.55,167.55,0,0,0-18.65,1.35c-.26,0-.53,0-.79,0a7.39,7.39,0,0,0,0,3.36c.32,1.05.43,1.05,1.85.83a40.75,40.75,0,0,1,4.84-.67,7.41,7.41,0,0,0,3-.13c3.28-.27,6.57-.51,9.86-.68,4.09-.21,8.18-.1,12.27-.13,2.26,0,4.53.14,6.79.3a2.41,2.41,0,0,0,1.87-.26Z"/><path class="cls-10" d="M64.86,104.33l1.75,0a.26.26,0,0,0,.14-.18,31.35,31.35,0,0,0-.5-3.54c-1.7-.08-3.37-.45-5.09-.37-.53,0-.84-.37-.92-.9-.93-6.06-2.24-12-3.72-18-.13-.54-.33-1.06-.5-1.6-.05-.17-.1-.38-.33-.33s-.22.3-.19.5c.27,1.76.57,3.52.8,5.29.18,1.36.28,2.74.39,4.11.24,3,.49,6,.69,8.94.11,1.67.2,3.35.18,5,0,.88.28,1.08,1.11,1.06C60.74,104.27,62.8,104.32,64.86,104.33Z"/><path class="cls-14" d="M24,33.44c.14.11.3.48.44,0a5.51,5.51,0,0,0,.2-1.15,23.42,23.42,0,0,0-.25-5.52,13.71,13.71,0,0,1,0-3.75,10.32,10.32,0,0,1,1.35-3c-1.94-.7-3.6,0-5.26,1a37.67,37.67,0,0,0-4.28,2.89A5.59,5.59,0,0,1,14.81,26c.54.19.83-.23,1.21-.33a.42.42,0,0,1,0,.47c-.64,2.1,1,7.64,2.21,8.12.5-.28-.28-1.22-.38-1.51a12,12,0,0,1-.69-4.52,3,3,0,0,1,.21-1.14c.46-1.46,2.06-1.86,3.52-.23a12.75,12.75,0,0,1,2.22,4.28A7.7,7.7,0,0,0,24,33.44Z"/><path class="cls-12" d="M17.27,26.85c-.59,1.08-.26,2.23-.21,3.34A8.84,8.84,0,0,0,17.78,33c.07.19,1.08,2.57,1.34,3.62a3.6,3.6,0,0,0,2.55,3c0-.08,0-.17,0-.25,0-.47-.12-1.06.49-1.19s.67.47.8.87.32.42.59.22a6.74,6.74,0,0,0,.68-.62.3.3,0,0,0,.07-.38c-.09-.15-.24,0-.37,0-1,.08-1.38-.51-1-1.4.08-.18.26-.31.13-.51-.58-.88.07-1.37.58-1.9-.7-2.19-1.15-4.49-2.68-6.32-.77-.92-1.59-1.78-3-1.21C17.77,27,17.52,26.84,17.27,26.85Z"/><path class="cls-11" d="M80.2,111.7a6.84,6.84,0,0,0,.2,2,2.31,2.31,0,0,0,3.1,1.47,1.14,1.14,0,0,1,.85-.09,8.06,8.06,0,0,0,2.43.33A2.15,2.15,0,0,0,89,114.27a2.22,2.22,0,0,0-.09-2.51,10.92,10.92,0,0,0-4.15-3.61c-2.6-1.11-4.53.2-4.55,3C80.2,111.34,80.21,111.52,80.2,111.7Z"/><path class="cls-11" d="M66.76,104.12l-.14.18c.06.45-.1.66-.58.78a9,9,0,0,1-1.93.11c-.56,0-.73.31-.65.8.57,3.81,1.15,7.62,1.72,11.44.15,1,.28,2,.38,3s.14,1,1,.65l.74-.29c0-3.47,0-6.94-.05-10.41C67.22,108.26,66.94,106.19,66.76,104.12Z"/><path class="cls-15" d="M67.33,120.74c.05.47-.18,1,.16,1.42C67.43,121.69,67.62,121.19,67.33,120.74Z"/><path class="cls-16" d="M12.29,126.26c-.23-.3-.56-.2-.86-.21C11.67,126.32,12,126.23,12.29,126.26Z"/><path class="cls-17" d="M55.43,146.74l-6.33-.29-.88,0c-2.53,0-5.06,0-7.59,0a161.69,161.69,0,0,0-18.45,1.08,2.93,2.93,0,0,0-.51.14c.19,1.31-.33,2.55-.43,3.83,0,.38-.09.76-.09,1.14,0,3.21.07,6.43,0,9.64-.16,6.05-.1,12.09.07,18.16.09,3.18.06,6.36.2,9.53s.28,12.32.38,15.58c0,.76.63,19.47,1.1,22.56a23.36,23.36,0,0,1,.2,3.07c.07,3.79.3,7.58.4,11.37.07,2.85,2.39,28.63,2.38,29.75,0,.71.5,1,1.16.63,2.09-1.08,4.82-2.67,5.68-3.28s1.07-1.26,1.06-2.67c0-2.28.2-4.57.31-6.86q.28-5.67.54-11.35c.11-2.35.23-4.69.34-7,.18-3.78.4-7.56.54-11.35.09-2.31.22-4.63.34-6.95.2-3.81.37-7.62.56-11.43.07-1.44.13-2.88.12-4.32-.06-5.77.1-17.37.25-23.13q.27-10,.3-20c0-.54-.14-1-.18-1.57s.13-.68.64-.69c.82,0,1.64-.12,2.45-.16s1.09-.63,1.57-1,.85-1.21,1.35-.92-.11,1-.36,1.46c-.9,1.54-.71,3.26-.84,4.89-.23,2.81-.24,5.63-.4,8.45-.2,3.57-.46,7.14-.68,10.71-.07,1.14-.08,8.11-.16,9.25-.21,2.84-.22,5.69-.4,8.53-.21,3.22-.38,6.44-.54,9.67-.11,2.14-.23,4.28-.35,6.42q-.27,4.83-.53,9.67c-.17,3.19-.36,6.39-.53,9.58s-.38,6.5-.54,9.76c-.1,2.05-.23,4.1-.35,6.15C37,258,35.87,269,36.9,269c1.4.12,9.84,1.78,9.84,1.78s.37-1.91.44-2.46c.66-4.84,1-9.71,1.4-14.57.51-5.68.94-11.37,1.37-17.06.28-3.7.48-7.4.77-11.09s.66-7.44,1-11.16c0-.38,0-.76,0-1.15-.55,0-.66.54-.85.91-.65,1.26-1.43,2.44-2.13,3.67a1.36,1.36,0,0,1-.52.58c-.18,0-.11-.18-.08-.27.66-2.14,2.87-8.72,3.93-9.48.13-2.88.29-5.75.4-8.63.19-5,.4-15.8,1-20.77.36-3.15.51-6.32.75-9.49q.37-5.1.7-10.2c0-.56,0-1.12,0-1.67-.59.28-.29.78-.32,1.17a16.25,16.25,0,0,0-.58-1.63,2.74,2.74,0,0,1-.24-1c0-.29,0-.65.32-.74s.39.27.49.5.11.35.35.31A85,85,0,0,0,55.43,146.74Z"/><path class="cls-8" d="M56.54,137.73c-3.61.05-7.2.41-10.8.69-1.2.09-2.41.12-3.61.15-2.56.07-5.11.24-7.67.25-3.58,0-7.17.22-10.75.32-.54,0-.67.25-.62.71a9.75,9.75,0,0,1,.18,1.75c0,.31.11.45.49.43,3.13-.2,6.27-.38,9.4-.56.26,0,.53,0,.8,0,5.22,0,10.44,0,15.65,0,2,0,3.92.22,5.89.33.27,0,.46.08.51.37A19.82,19.82,0,0,0,56.54,137.73Z"/><path class="cls-18" d="M52.08,208.67c-.77.25-3.41,7-4.26,9.78,0,.13-.16.29,0,.4s.39,0,.54-.16A17.45,17.45,0,0,0,50.13,216a30.48,30.48,0,0,1,1.61-2.72C51.9,212.27,52.08,208.78,52.08,208.67Z"/><path class="cls-17" d="M54.93,156.49c-.05-.1-.14-.2-.15-.3,0-.48-.14-1-.72-.88s-.58.59-.54,1a12.25,12.25,0,0,0,1.12,3.28c.26-.65-.06-1.24.27-1.73Q54.92,157.2,54.93,156.49Z"/><path class="cls-19" d="M41.85,63.08a1.26,1.26,0,0,0,.55,1,7.7,7.7,0,0,1,3.16,6c.05.73,0,1.47,0,2.21a8.78,8.78,0,0,0-1.59-8A4.23,4.23,0,0,0,41.85,63.08Z"/><path class="cls-20" d="M19.37,113.7c.1.42-.17.72-.32,1.07a.3.3,0,0,0,.09.4.25.25,0,0,0,.35-.17c.2-.48.86-.69.76-1.33l-.72,0Z"/><path class="cls-12" d="M44.82,22.7a9.7,9.7,0,0,0-1.65,3,4.24,4.24,0,0,0,.54,3.52,8.44,8.44,0,0,0,1.58,2.24c1.11,1.06.27,2.76-.75,3.21a8.19,8.19,0,0,1-4.34.59c-.84-.1-1.3-.79-1.58-1.61,0,.75,0,1.51,0,2.25a1,1,0,0,0,.63.89,7.94,7.94,0,0,0,7.29-1.48,2.49,2.49,0,0,0,.58-2.91,4.37,4.37,0,0,0-.8-1.55c-.24-.24-.09-.33.16-.46,1.78-.92,2-3.9.46-5.23-.76-.65-1.91-.08-2.31.28.19-1.09.93-1.56,2.3-1.54.12-.34-.17-.45-.36-.54A4.62,4.62,0,0,0,44.82,22.7Z"/><path class="cls-21" d="M36.66,21.24A13,13,0,0,0,32,23.18a.9.9,0,0,0-.37.63c-.06.45-.49,1-.09,1.32s.61-.34,1-.51a16.52,16.52,0,0,1,3.77-1.32,1.37,1.37,0,0,0,1.17-1.41C37.44,21.44,37.2,21.21,36.66,21.24Z"/><path class="cls-12" d="M34.61,30c1.76,0,2.44-.83,2.19-2.58a12.51,12.51,0,0,0-.31-1.55A1.38,1.38,0,0,0,35,24.79C32.75,24.69,29.37,30,34.61,30Z"/><path class="cls-12" d="M35.78,38.79a24.57,24.57,0,0,1-1.54,2.16c-.27.28-.16.52.25.54.14,0,.33,0,.41,0,.84-.79,1.52-.07,2.26.21a16.14,16.14,0,0,0,6.4.8c.28,0,.63-.15.61-.46s-.41-.18-.62-.18a24.37,24.37,0,0,1-4.45-.56A4.65,4.65,0,0,1,35.78,38.79Z"/><path class="cls-21" d="M44.82,22.7c.62.58,1.6.48,2.14,1.18a1.16,1.16,0,0,0,.72.15c.4-.11.86-.23,1-.68s-.27-.62-.55-.86c-.58-.5-1.42-.63-1.87-1.34-.18-.28-.4,0-.52.16C45.41,21.76,45.12,22.23,44.82,22.7Z"/><path class="cls-10" d="M15.67,23.19a3.64,3.64,0,0,0,.5.67c.42.07.68-.21,1-.44a29.17,29.17,0,0,1,5.21-3.17,3.74,3.74,0,0,1,2.29-.2c.39,0,.78,0,1.17.08a15.83,15.83,0,0,0,7.57-1.7,8.38,8.38,0,0,0,2.69-1.84c.9-1,2.18-1.81,3-2.85a2.43,2.43,0,0,1,2.54-.87c.86.07,1.72.18,2.57.3a6.66,6.66,0,0,1,4.51,3,1.81,1.81,0,0,1,.27.78,10.8,10.8,0,0,1,1.41,3.43c.22,1,6.7,0,8.85-3.17s.1-7.8-3.48-9.16C49.33,5.66,44.43,9,41.79,10a13,13,0,0,0-5.05,4,11.09,11.09,0,0,1-6.19,3.44,20,20,0,0,1-4.9.11c3.47-2.69,11.19-6.4,12.47-7.08a62,62,0,0,0-13.28,5.76c-.56.36-.73.48-.88-.37a30.66,30.66,0,0,1-.6-6.13c0-2,0-5.55,2.15-7.39A23.83,23.83,0,0,0,18.7,8.13c-2.9,4-3,7.83-3.1,12.12a1.6,1.6,0,0,1-.27,1C14.8,22,15.4,22.58,15.67,23.19ZM43.43,9.86l.05,0h0Z"/><path class="cls-11" d="M17.27,26.85c.32.36.59.56,1.08.15s.84-.11,1.25.12a6.06,6.06,0,0,1,2.18,2.56A13.63,13.63,0,0,1,23,33a3.94,3.94,0,0,0,.69,1.48,1.34,1.34,0,0,0,.35-1,18.94,18.94,0,0,0-2.28-5.91,4.53,4.53,0,0,0-1.55-1.62A1.85,1.85,0,0,0,17.27,26.85Z"/><path class="cls-22" d="M15,107.81c0,1-.07,2.05,0,3.07.05.76-.28,1-.95,1.19a8,8,0,0,0-2.64.81c1.43.21,2.72-.09,4,.25-.35-.33-.21-.76-.22-1.16A23.28,23.28,0,0,0,15,107.81Z"/><path class="cls-23" d="M41.67,16l-.37-.18a1,1,0,0,0-1,.48A4.06,4.06,0,0,0,41.67,16Z"/><path class="cls-24 eye__part left-eye__part left-eye__part03" d="M46.68,26.27c1.47.94.28,4.14-1,3.18a2.51,2.51,0,0,1-1.24-2C44.46,26.61,46.21,26,46.68,26.27Z"/><path class="cls-24 eye__part right-eye__part right-eye__part03" d="M35.77,28.95c.6-.52.81-2.51-.36-2.88a2.21,2.21,0,0,0-2.66,1.76C32.6,29.56,35.21,29.41,35.77,28.95Zm0-.23h0Z"/><path class="cls-12" d="M34,18.18a.73.73,0,0,0,.51,0,28.54,28.54,0,0,1,8.92-1.34c.38,0,.87-.08.86.51s-.4.64-.87.68c-1.1.08-2.2.22-3.3.33a7.09,7.09,0,0,0,2.61.27,11.34,11.34,0,0,1,4.52,1.79,7.83,7.83,0,0,1,3.55,5,23.3,23.3,0,0,0-.6-6.48c-.25-.8-1.67-4.52-4.64-4a33.83,33.83,0,0,0-3.79.93A2.08,2.08,0,0,1,41,16c.14-.07.31,0,.47-.06a3.28,3.28,0,0,0,1.2-.56.36.36,0,0,0,.14-.37c-.05-.15-.21-.17-.34-.18h-.17a20.22,20.22,0,0,0-6,1.46C35.31,17.23,34,18.18,34,18.18Z"/><path class="cls-14" d="M41.67,16c1.43-.31,2.87-.59,4.29-.94a2.18,2.18,0,0,1,2.19.67,13.33,13.33,0,0,1,1.19,1.35s-.33-.56-.44-.72a7,7,0,0,0-5.53-3.55,16.88,16.88,0,0,0-2.45-.18,2,2,0,0,0-1.56.72c-1,1-2.21,2.08-3.17,3.12,1.69-.4,3.14-.81,4.84-1.2.53-.12,1.09-.18,1.76-.28a3.54,3.54,0,0,1-1.48.84C41.29,16.15,41.49,16.06,41.67,16Z"/></g><path class="cls-25" d="M38.37,78.3l.67,0a7.93,7.93,0,0,0,7.24-6.47c.56-2.62.27-8.49-4.22-10a8.62,8.62,0,0,0-1.27-.33,5.64,5.64,0,0,1-1.44-.42l-1.2-.67-.52,1.64.73.49a6,6,0,0,0,2.06.68,7.21,7.21,0,0,1,1,.25l.06,0c3.33,1.07,3.5,5.88,3.06,7.91a6.12,6.12,0,0,1-5.6,5.07c-5,.26-10.22-3-12.43-6.25-1.37-2-2.57-5-2.11-6.75a1.71,1.71,0,0,1,1-1.19,3.19,3.19,0,0,0,1.18-1.78,1.42,1.42,0,0,0,0-.21s-.9.39-1.76.64a3,3,0,0,0-2.12,2.09c-.72,2.75,1.23,6.56,2.36,8.2A17.31,17.31,0,0,0,38.37,78.3Z"/><path class="cls-11" d="M41.85,63.08a4,4,0,0,0-1.08-.3c-.95,0-.94-.57-1.6-1.19a5.72,5.72,0,0,1-.63-2.16l-1.34,1.11v2.1l.68.77,2.36,1.14,1.31.46,1.47.61s1.21.62.64-.35A10,10,0,0,0,41.85,63.08Z"/><circle class="cls-26 eye__part right-eye__part right-eye__part01" cx="34.86" cy="27.87" r="1.08"/><circle class="cls-27 eye__part right-eye__part right-eye__part02" cx="34.09" cy="27.26" r="0.62"/><circle class="cls-26 eye__part left-eye__part left-eye__part01" cx="46.1" cy="27.93" r="1.03"/><circle class="cls-27 eye__part left-eye__part left-eye__part02" cx="45.37" cy="27.34" r="0.59"/><path class="cls-8" d="M45.07,7.83c.78.55,3.17-.43,2.05,0-9.53,3.67-12.27,9.71-17,9.75-2.5,0-1.88-.49-1.88-.49s11.17-6.57,11.65-7A49.37,49.37,0,0,1,45.07,7.83Z"/><path class="cls-10" d="M47,7.46c-1.06.13-4.13,1.09-9.85,3.39l-.41.14.34-.11-.76.31.36-.17-.25.1a50,50,0,0,0-11.68,5.41c-.53.35-.77.31-.95-.14C36.94,9.77,43,7.82,47,7.46Z"/><path class="cls-12" d="M22.43,31.12c-1.08-2.18-4.29-7.14-5.37-3.78s3.83,6.6,4.08,6.6S22.43,31.12,22.43,31.12Z"/><path class="cls-28" d="M38.82,52.85a6.32,6.32,0,0,1,.85-.15A10.6,10.6,0,0,0,48.39,47c3.12-5.68,3.49-10.84,3.06-17.81a62.11,62.11,0,0,0-1.06-9c-.06-.32-.11-.54-.12-.67l-1.18.09c0,.19.65.44.73.8a60.82,60.82,0,0,1,1,8.89c.41,6.76.07,11.74-2.92,17.17-2.38,4.34-5.18,5.17-7.09,5.43a6.51,6.51,0,0,0-1.06.19Z"/><path class="cls-29" d="M22.69,63.07A3,3,0,0,1,24.81,61c.86-.26,1.76-.64,1.76-.64a1.42,1.42,0,0,1,0,.21,3.19,3.19,0,0,1-1.18,1.78,1.71,1.71,0,0,0-1,1.19,5.43,5.43,0,0,0,.18,2.67h0a5.16,5.16,0,0,1-1.4,1.42A8,8,0,0,1,22.69,63.07Z"/><polygon class="cls-30" points="26.89 124.52 127.51 124.52 127.51 121.12 128.23 120.71 128.23 109.06 26.89 109.05 26.89 124.52"/><rect class="cls-31" x="26.46" y="109.05" width="28.12" height="15.47"/><path class="cls-12" d="M11.41,126.06a7.08,7.08,0,0,1,2.41-.32c2.87-.32,5.65-1.07,8.48-1.61.53-.1.83-.11,1.13.42,1,1.64,2.61,2.5,4.13,3.5a1.46,1.46,0,0,0,.77.1,22.17,22.17,0,0,0,5.84-.75,2.34,2.34,0,0,1,1.48,0,3.87,3.87,0,0,0,2.59-.11,16,16,0,0,1,4.35-1.07c.74,0,1-.63.67-1.4-.35.31-.69.18-1.06,0a25,25,0,0,1-7.13-4c-1.52-1.34-3.19-2.52-4.82-3.73A23,23,0,0,1,24.77,111c-.58-.89-.84-.93-1.32,0A21.33,21.33,0,0,1,19.36,116a1.4,1.4,0,0,0-.39,1.13c0,.69-.32,1-.94,1-.29,0-.59,0-.88,0H7.43c-1,0-1,0-1.09-1-.21-3.35-.34-6.69-.35-10,0-.71.28-1,1-1,1-.13,2-.11,3-.14.34,0,.79.14.94-.38a2.19,2.19,0,0,0-1.57-.42c-2.45,0-4.92-.3-7.35.3-.37.09-.76.11-1,.46.44,5,1,9.94,1.87,14.86,0,.09,0,.17.06.26.6,3.63.47,3.41,4.41,4.59A11.22,11.22,0,0,0,11.41,126.06Z"/><path class="cls-11" d="M19.37,113.7a24.79,24.79,0,0,0-4-.57c-.91-.71-2-.31-2.93-.43.56-.18,1.19-.27,1.79-.44a1,1,0,0,0,.85-1.13c-.07-1.11.64-4.65-1.29-4.94a19.5,19.5,0,0,0-2.84-.5,44,44,0,0,0-4.4.18c-.55.08-.79.25-.77.81.07,3.2.12,6.41.2,9.61,0,.26.12.51.15.77.15,1.39.15,1.39,1.53,1.39h9.63c.21,0,.41,0,.62,0,1.29-.11,1.31-.11,1.31-1.38a1.33,1.33,0,0,1,.5-1A18,18,0,0,0,24,110.31L25.92,113a21.44,21.44,0,0,0,5.14,5c1.72,1.27,3.4,2.6,5.05,4s3.82,2,5.76,3c.24.11.5.18.73.31.61.36.71.06.66-.47a8.43,8.43,0,0,0-3.58-1.73l-.84-.24a43.2,43.2,0,0,1-4.16-3.4c-1.55-1.41-3.16-2.73-4.84-4a3,3,0,0,1-1.45-2.92,12.41,12.41,0,0,0,0-1.33,1.92,1.92,0,0,1,2-2.15c.18,0,.35,0,.53,0s.71.1.73-.28a.83.83,0,0,0-.64-.93,18.77,18.77,0,0,0-2.35-.32c-1.12-.05-2.24,0-3.36,0-.46,0-.89.07-1.1.56-.93,2.14-2.58,3.79-4,5.61a11,11,0,0,1-.9,1.07C19.46,114.34,19.69,114,19.37,113.7Z"/><path class="cls-10" d="M16.16,106.38c0-.34-.26-1.13-.27-.93s-5.46-1.19-9.75-1.47c-5-.32-5.4.34-5.4,1.54,0,.2,0,.18.23.39,0,0,4.78-.58,5.37-.53s8.93.68,9.07,1.27.9.7,1,.53.17-.37.17-.37Z"/><path class="cls-4" d="M67.3,282.6c.66.78,1.61,3.39-.7,4.79s-1.42-2.57-1.42-2.57l1.58-1.16Z"/><path class="cls-10" d="M1,105.91a55.07,55.07,0,0,1,13.14.42c2.87.69,1.22.92,1.22.92s.2-1.17,0-1.24-2.24-.22-2.64-.31-4.55-.57-5.53-.6-1.55.07-2.65,0a11.15,11.15,0,0,0-1.72,0Z"/><path class="cls-3" d="M56.65,283.92c0,1.1-1.16,1.73.71,2s8.21,1.91,9.72-.4.29-2.88-.09-3-9,.55-9,.55Z"/><path class="cls-9" d="M36.12,154.7s1,8.58,1,11.78,2.75,0,2.75,0Z"/><path class="cls-9" d="M40,162.15a31.08,31.08,0,0,0,6.18-6.85s-3.12,6.79-5,8.28S40,162.15,40,162.15Z"/></g></g></g></svg>