<?xml version="1.0" encoding="utf-8"?>
<!-- Generator: Adobe Illustrator 23.0.2, SVG Export Plug-In . SVG Version: 6.00 Build 0)  -->
<svg version="1.1" id="Layer_1" xmlns="http://www.w3.org/2000/svg" xmlns:xlink="http://www.w3.org/1999/xlink" x="0px" y="0px"
	 viewBox="0 0 1000 1080" style="enable-background:new 0 0 1000 1080;" xml:space="preserve">
<style type="text/css">
	.st0{fill-rule:evenodd;clip-rule:evenodd;fill:url(#SVGID_1_);}
	.st1{fill-rule:evenodd;clip-rule:evenodd;fill:#CCCCCC;}
	.st2{fill-rule:evenodd;clip-rule:evenodd;fill:#414141;}
	.st3{fill-rule:evenodd;clip-rule:evenodd;fill:url(#SVGID_2_);}
	.st4{fill-rule:evenodd;clip-rule:evenodd;fill:#FFD251;}
	.st5{fill-rule:evenodd;clip-rule:evenodd;fill:#F5BE45;}
	.st6{fill-rule:evenodd;clip-rule:evenodd;fill:#F58E5C;}
	.st7{fill-rule:evenodd;clip-rule:evenodd;fill:#FFFFFF;}
	.st8{fill-rule:evenodd;clip-rule:evenodd;fill:#5A4A42;}
	.st9{fill-rule:evenodd;clip-rule:evenodd;fill:#363638;}
	.st10{fill-rule:evenodd;clip-rule:evenodd;fill:#535458;}
	.st11{fill-rule:evenodd;clip-rule:evenodd;fill:#696B6F;}
	.st12{opacity:0.12;fill:#2A110C;}
	.st13{fill:#F7A084;}
	.st14{fill:#F59079;}
	.st15{fill:#DBDADA;}
	.st16{fill:#D1D1D1;}
	.st17{fill:#ED3224;}
	.st18{fill:#BCBCBC;}
	.st19{fill:#BE1E2D;}
	.st20{fill:#E1E1E1;}
	.st21{fill:#AAABAB;}
	.st22{fill:#E9E9E9;}
	.st23{fill:#FFFFFF;}
	.st24{fill:#352219;}
	.st25{opacity:0.08;fill:#FFFFFF;}
	.st26{fill:#563428;}
	.st27{fill:#482A21;}
	.st28{opacity:0.1;}
	.st29{fill:#CE2827;}
	.st30{fill-rule:evenodd;clip-rule:evenodd;fill:#C23027;}
	.st31{fill-rule:evenodd;clip-rule:evenodd;fill:#EE4634;}
	.st32{fill:#484344;}
	.st33{opacity:0.6;}
	.st34{fill-rule:evenodd;clip-rule:evenodd;fill:#EF4E46;}
	.st35{fill-rule:evenodd;clip-rule:evenodd;fill:#EF524B;}
	.st36{fill-rule:evenodd;clip-rule:evenodd;fill:#F16A67;}
	.st37{fill-rule:evenodd;clip-rule:evenodd;fill:#3D3939;}
	.st38{fill-rule:evenodd;clip-rule:evenodd;fill:#FBCFC6;}
	.st39{fill:#554E4E;}
	.st40{fill:#3D3939;}
	.st41{fill-rule:evenodd;clip-rule:evenodd;fill:#A76A37;}
	.st42{fill-rule:evenodd;clip-rule:evenodd;fill:#8D5426;}
	.st43{fill-rule:evenodd;clip-rule:evenodd;fill:#A46633;}
	.st44{opacity:0.2;fill-rule:evenodd;clip-rule:evenodd;fill:#CF8B29;}
	.st45{fill:#E38646;}
	.st46{enable-background:new    ;}
	.st47{fill:#F58D4B;stroke:#F58D4B;stroke-width:0.4839;}
	.st48{fill:url(#SVGID_3_);}
	.st49{fill:#93291E;}
	.st50{fill:#AF2A24;}
	.st51{fill:#F2BBC4;}
	.st52{fill:#E1A4AB;}
	.st53{fill:#E13F26;}
	.st54{fill:#C55228;}
	.st55{fill:#F9AB5F;stroke:#F58D4B;stroke-width:0.4839;}
	.st56{opacity:0.5;fill:#E18758;}
	.st57{fill-rule:evenodd;clip-rule:evenodd;fill:#F6F4ED;}
	.st58{fill-rule:evenodd;clip-rule:evenodd;fill:#E9D5D5;}
	.st59{filter:url(#Adobe_OpacityMaskFilter);}
	.st60{fill:#060606;}
	.st61{mask:url(#SVGID_4_);fill:#FDD8AF;}
	.st62{fill-rule:evenodd;clip-rule:evenodd;fill:#D8A37C;}
	.st63{opacity:0.5;fill:#8D5426;}
	.st64{fill-rule:evenodd;clip-rule:evenodd;fill:#E5E3D9;}
	.st65{fill-rule:evenodd;clip-rule:evenodd;fill:#CA8A5A;}
	.st66{fill-rule:evenodd;clip-rule:evenodd;fill:#E89C69;}
	.st67{fill-rule:evenodd;clip-rule:evenodd;fill:#F8F6EC;}
</style>
<style type="text/css">
	@keyframes car {
		0% {
			transform: translate3d(-1000px, 0, 0);
		}

		24% {
			transform: translate3d(25px, 0, 0);
		}

		30% {
			transform: translate3d(-10px, 0, 0);
		}

		36% {
			transform: translate3d(5px, 0, 0);
		}

		40% {
			transform: translate3d(0, 0, 0);
		}

		60% {
			transform: translate3d(0, 0, 0);
		}

		100% {
			transform: translate3d(1000px, 0, 0);
		}
	}
	.car {
		animation-duration: 4s;
		animation-iteration-count: infinite;
		animation-timing-function: cubic-bezier(0.215, 0.61, 0.355, 1);
		animation-name: car;
	}
	@keyframes wheel {
		from {
			transform: rotate(0);
		}
		40% {
			transform: rotate(360deg);
		}
		60% {
			transform: rotate(360deg);
		}
		to {
			transform: rotate(720deg);
		}
	}
	.wheel {
		animation-name: wheel;
		animation-duration: 4s;
		animation-iteration-count: infinite;
		animation-timing-function: cubic-bezier(0.215, 0.61, 0.355, 1);
	}
	.wheel.i--1 {
		transform-origin: 771px 689px;
	}
	.wheel.i--2 {
		transform-origin: 207px 689px;
	}
</style>
<g>
	<g class="car">
		<linearGradient id="SVGID_1_" gradientUnits="userSpaceOnUse" x1="814.7325" y1="575.8036" x2="862.3328" y2="575.8036">
			<stop  offset="0" style="stop-color:#6A8890"/>
			<stop  offset="0.53" style="stop-color:#345C65"/>
			<stop  offset="1" style="stop-color:#02383C"/>
		</linearGradient>
		<path class="st0" d="M816.81,549.86c0,0,21.06,23.69,25.95,51.89C842.76,601.75,798.01,582.57,816.81,549.86z"/>
		<polygon class="st1" points="816.06,553.62 832.23,575.8 825.83,570.55 828.1,576.94 831.49,579.2 833.75,582.95 833.75,587.09 
			832.23,587.09 835.98,589.33 835.98,591.6 835.24,592.72 830.36,592.72 826.97,588.97 821.33,584.83 815.68,578.8 815.68,572.79 
			813.81,566.03 		"/>
		<path class="st2" d="M854.33,704.57c6.45-0.36,12.9-0.74,19.37-1.14l-27.21-88.48l-98.97-41.38l-91.37,3.38l-398.42,1.69
			L145.23,596.4l-19,108.17H854.33z"/>
		<path class="st2" d="M569.5,419.32l-19.27,4.59l-9.3,5.92c0,0,53.49,10.86,108.46,89.53l77.84-9.31
			C727.22,510.05,678.62,454,569.5,419.32z"/>
		<linearGradient id="SVGID_2_" gradientUnits="userSpaceOnUse" x1="107.4123" y1="519.635" x2="159.267" y2="519.635">
			<stop  offset="0" style="stop-color:#BB362D"/>
			<stop  offset="0.13" style="stop-color:#DC4D2E"/>
			<stop  offset="0.21" style="stop-color:#BD4A2A"/>
			<stop  offset="0.33" style="stop-color:#D35A38"/>
			<stop  offset="0.46" style="stop-color:#EB6A4E"/>
			<stop  offset="0.62" style="stop-color:#EC5F3B"/>
			<stop  offset="0.91" style="stop-color:#EC4F2A"/>
			<stop  offset="1" style="stop-color:#BB4D27"/>
			<stop  offset="1" style="stop-color:#BB4D27"/>
		</linearGradient>
		<path class="st3" d="M148.21,483.74l-4.59-2.56c-8.38-0.44-37.26,66.9-25.01,76.91C118.62,558.09,158.36,518.42,148.21,483.74z"/>
		<path class="st4" d="M170.6,437.22c4.95-9.38-22.32-10.89-17.17-17.91c0,0,257.88-41.43,416.07,0.01l-19.27,4.59
			c0,0,68.71,26,101.7,90.28l76.14-8.45c66.42,15.01,138.93,26.81,160.86,100.11l-0.84,62.59l6.77,6.77l-1.69,23.69l-8.47,2.53
			c0,0-18.13,5.38-27.43,5.38c0,0,4.8-94.56-82.51-93.57c-82.9-2.54-82.05,85.36-82.05,85.36l-404.52,0.01
			c0,0,8.05-89.24-87.5-85.37c-80.1,2.98-69,95.53-69,95.53l-11.85-3.39c0,0-11.85-73.59-14.37-96.43c0,0,8.46-15.23,8.46-29.61
			C113.92,579.34,133.38,476.13,170.6,437.22z"/>
		<path class="st5" d="M897.6,650.1l-4.44,48.81l-8.47,2.53c0,0-18.13,5.38-27.43,5.38c0,0,4.8-94.56-82.51-93.57
			c-82.9-2.54-82.05,85.36-82.05,85.36l-404.52,0.01c0,0,8.05-89.24-87.5-85.37c-80.1,2.98-69,95.53-69,95.53l-19.79-4.93
			c0,0-4.3-27.4-8.35-53.59c4.87-1.45,17.41-2.51,18.53-2.71c13.57-43.02,49.19-65.16,86.53-67.45
			c66.65-4.08,96.04,64.43,102.99,102.09c118.4-0.59,236.8-1.18,355.19-1.77c23.28-132.43,156.07-123.73,206.05-32.65
			C872.84,647.76,890.11,649.08,897.6,650.1z"/>
		<path class="st2" d="M230.99,435.48c-25.24,2.18-32.07,58.35-35.96,82.65H399.9l10.28-96.69
			C376.99,421.87,260.98,424.04,230.99,435.48L230.99,435.48z M629.05,518.14c-11.83-21.48-58.39-92.47-158.62-96.06
			c-17.51-0.63-34.95-0.82-51.96-0.71l-6.79,96.77H629.05z"/>
		<path class="st6" d="M589.32,493.12c0,0-10.15,18.61,3.4,33.83C592.72,526.95,640.09,508.35,589.32,493.12z"/>
		<path class="st7" d="M877.55,594.86c-11-29.24-28.53-40.73-53.13-53.01c-23.72-2.37-24.25,14.96-14.64,31.01
			C819.47,589.05,861.7,621.25,877.55,594.86z"/>
		<path class="st8" d="M414.25,544.71l-0.01-2.99c-0.02-2.76,1.68-5,3.78-5.02l44.93-0.25c2.1-0.01,3.82,2.22,3.83,4.97l0.01,2.99
			L414.25,544.71z"/>
		<path class="st8" d="M321.66,545.95l-0.01-2.99c-0.01-2.76,1.68-5.01,3.78-5.02l44.93-0.25c2.1-0.01,3.82,2.21,3.83,4.97
			l0.01,2.99L321.66,545.95z"/>
		<g class="wheel i--1">
			<path class="st9" d="M728.62,732.75c24.86,24.61,64.96,24.41,89.57-0.45c24.61-24.86,24.41-64.96-0.44-89.57
				c-24.86-24.61-64.96-24.41-89.58,0.45C703.56,668.03,703.76,708.13,728.62,732.75L728.62,732.75z M805.97,720.2L805.97,720.2
				c-17.93,18.11-47.14,18.25-65.25,0.32c-18.11-17.93-18.25-47.14-0.33-65.24c17.93-18.11,47.14-18.25,65.25-0.33
				C823.75,672.88,823.9,702.09,805.97,720.2z"/>
			<path class="st7" d="M772.92,635.39c28.91-0.14,52.46,23.18,52.61,52.09c0.14,28.91-23.18,52.47-52.09,52.61
				c-28.91,0.14-52.46-23.18-52.61-52.09C720.69,659.09,744.01,635.53,772.92,635.39z"/>
			<path class="st10" d="M772.96,641.61c-25.47,0.13-46.02,20.88-45.89,46.35c0.13,25.47,20.88,46.02,46.35,45.89
				c25.47-0.13,46.02-20.88,45.89-46.35C819.18,662.03,798.43,641.49,772.96,641.61z"/>
			<path class="st11" d="M782.43,700.13c6.23-6.3,6.18-16.46-0.11-22.69c-6.3-6.24-16.46-6.19-22.69,0.11
				c-6.24,6.3-6.19,16.46,0.11,22.69C766.03,706.47,776.19,706.42,782.43,700.13z"/>
			<path class="st7" d="M767.98,738.34l-2.92-34.9l-26.51,22.88l-4.68-4.64l22.62-26.74l-34.93-2.57l-0.03-6.59l34.9-2.92
				l-22.88-26.51l4.63-4.68l26.74,22.61l2.57-34.93l6.59-0.03l2.91,34.9l26.51-22.88l4.68,4.64l-22.62,26.74l34.93,2.57l0.03,6.59
				l-34.9,2.92l22.88,26.51l-4.64,4.68l-26.74-22.62l-2.57,34.93L767.98,738.34L767.98,738.34z M767.95,696.38l6.24-0.03l4.39-4.43
				l-0.03-6.24l-4.43-4.39l-6.24,0.03l-4.39,4.43l0.03,6.24L767.95,696.38z"/>
		</g>
		<g class="wheel i--2">
			<path class="st9" d="M164.28,732.75c24.86,24.61,64.96,24.41,89.57-0.45c24.61-24.86,24.41-64.96-0.44-89.57
				c-24.86-24.61-64.96-24.41-89.58,0.45C139.22,668.03,139.42,708.13,164.28,732.75L164.28,732.75z M241.63,720.2L241.63,720.2
				c-17.93,18.11-47.14,18.25-65.25,0.32c-18.11-17.93-18.25-47.14-0.33-65.24c17.93-18.11,47.14-18.25,65.25-0.33
				C259.41,672.88,259.56,702.09,241.63,720.2z"/>
			<path class="st7" d="M208.59,635.39c28.91-0.14,52.46,23.18,52.61,52.09c0.14,28.91-23.18,52.47-52.09,52.61
				c-28.91,0.14-52.46-23.18-52.61-52.09C156.35,659.09,179.67,635.53,208.59,635.39z"/>
			<path class="st10" d="M208.62,641.61c-25.47,0.13-46.02,20.88-45.89,46.35c0.13,25.47,20.88,46.02,46.35,45.89
				c25.47-0.13,46.02-20.88,45.89-46.35C254.84,662.03,234.09,641.49,208.62,641.61z"/>
			<path class="st11" d="M218.09,700.13c6.23-6.3,6.19-16.46-0.11-22.69c-6.3-6.24-16.46-6.19-22.69,0.11
				c-6.24,6.3-6.19,16.46,0.11,22.69C201.69,706.47,211.85,706.42,218.09,700.13z"/>
			<path class="st7" d="M203.64,738.34l-2.92-34.9l-26.51,22.88l-4.68-4.64l22.62-26.74l-34.93-2.57l-0.03-6.59l34.9-2.92
				l-22.88-26.51l4.63-4.68l26.74,22.61l2.57-34.93l6.59-0.03l2.91,34.9l26.51-22.88l4.68,4.64l-22.62,26.74l34.93,2.57l0.03,6.59
				l-34.9,2.92l22.88,26.51l-4.64,4.68l-26.74-22.62l-2.57,34.93L203.64,738.34L203.64,738.34z M203.61,696.38l6.24-0.03l4.39-4.43
				l-0.03-6.24l-4.43-4.39l-6.24,0.03l-4.39,4.43l0.03,6.24L203.61,696.38z"/>
		</g>
	</g>
	<g id="XMLID_2408_">
		<path id="XMLID_2473_" class="st12" d="M723.41,779.13c0,0-48.22,10.49-107.7,10.49c-59.48,0-107.7-10.49-107.7-10.49
			s48.22-10.49,107.7-10.49C675.19,768.64,723.41,779.13,723.41,779.13z"/>
		<g id="XMLID_2471_">
			<path id="XMLID_2472_" class="st13" d="M509.49,429.7c6.42,17.29,19.98,39.23,27.14,41.04c0.34,0.09,0.81,0.21,2.16-0.98
				c10.96-9.61,17.27-20.83,20.83-29.6c6.77,6.15,13.58,12.25,20.43,18.32c-5.52,8.45-13.37,18.26-24.34,27.88
				c-4.71,4.13-13.14,8.06-18.73,8.06c-1.84,0-3.69-0.23-5.54-0.7c-10.39-2.63-16.34-8.4-22.72-27.33
				c-4.04-12-4.97-18.75-6.68-24.25L509.49,429.7z"/>
		</g>
		<g id="XMLID_2469_">
			<path id="XMLID_2470_" class="st14" d="M554.02,474.44c-0.83-4.33-2.82-9.73-5.71-14.74c5.35-6.8,8.94-13.71,11.31-19.53
				c6.77,6.15,13.58,12.25,20.43,18.32c-5.52,8.45-13.37,18.26-24.34,27.88c-0.4,0.35-0.84,0.7-1.29,1.05
				C555.1,483.16,554.84,478.71,554.02,474.44z"/>
		</g>
		<path id="XMLID_2468_" class="st15" d="M598.09,408.09c0,0-31.71-1.36-48.81,40.88l19.47,20.21l6.44-23.32
			C575.2,445.87,590.28,419.12,598.09,408.09z"/>
		<path id="XMLID_2467_" class="st15" d="M666.69,425.85c-1.94-10.25-12.59-16-21.91-18.16c-7.18-1.67-14.67-1.62-21.99-1.46
			c-3.69,0.08-7.36,0.24-11.06,0.24c-4.17-0.01-8.51,0.2-12.61,1.28c-4.44,1.17-8.21,3.51-11.83,6.27
			c-4.39,3.33-8.18,7.45-11.02,12.18c-1.9,3.15-3.37,6.56-4.4,10.09c-10.01,34.27,7.35,111.02,7.35,111.02
			c30.94,8.18,99.52-12.49,77.55,0C656.76,547.29,672.55,456.82,666.69,425.85z"/>
		<g id="XMLID_2464_">
			<path id="XMLID_2466_" class="st16" d="M582.58,411.55c-2.67,8.86-2.25,19.26-1,27.66c4.51,30.47,29.59,59.14,60.54,64.1
				c7,1.12,14.21,1.12,21.17-0.06c-2.24,17.64-4.68,32.93-5.84,39.95c-12.62,0.58-55.54,10.09-78.24,4.09c0,0-9.6-42.45-10.41-78.31
				l-0.06,0.2l-19.47-20.21C558.55,426.07,572.11,415.99,582.58,411.55z"/>
			<path id="XMLID_2465_" class="st16" d="M656.76,547.29c0,0,0.26-1.47,0.69-4.09C662.04,542.99,662.62,543.96,656.76,547.29z"/>
		</g>
		<g id="XMLID_2462_">
			<path id="XMLID_2463_" class="st13" d="M660.37,453.43c1.14-0.43,2.27-0.87,3.42-1.29c7.12-2.59,14.49-4.67,21.61-7.32
				c5.28,10.6,11.19,23.63,14.7,35.07c12.15,39.62-0.25,86.41-0.9,93.25l-13.71-1.34c1.59-21.82,0.38-61.21-7.37-81.43
				C673.77,479.04,666.37,464.55,660.37,453.43z"/>
		</g>
		<g id="XMLID_2460_">
			<path id="XMLID_2461_" class="st14" d="M675.96,470.63c-1.06,3.03-1.74,6.32-2.07,9.72c-4.12-9.09-9.18-18.89-13.52-26.92
				c1.14-0.43,2.27-0.87,3.42-1.29c7.12-2.59,14.49-4.67,21.61-7.32c1.65,3.31,3.36,6.88,5.04,10.54
				C684.09,457.66,678.65,462.93,675.96,470.63z"/>
		</g>
		<path id="XMLID_2459_" class="st17" d="M576.3,574.02c1.21,10.13,78.14-0.57,78.14-0.57l9.99-52.88l-94.36-2.24
			C570.07,518.33,574.2,556.5,576.3,574.02z"/>
		<g id="XMLID_2457_">
			<path id="XMLID_2458_" class="st17" d="M608.25,707.85c-10.2,1.4-20.42,2.9-30.69,3.56c-7.89-103.31-7.13-196.31-7.49-193.08
				l37.39,40.61C608.38,556.02,601.57,600.99,608.25,707.85z"/>
		</g>
		<g id="XMLID_2455_">
			<path id="XMLID_2456_" class="st17" d="M659.85,629.71c-11.92,3.55-23.91,6.84-35.8,10.46c-5.61-72.3,5.83-93.81,5.64-93.27
				l34.74-26.32C664.42,520.57,657.47,559.2,659.85,629.71z"/>
		</g>
		<g id="XMLID_2453_">
			<path id="XMLID_2454_" class="st17" d="M588.18,626.2c7.89-0.28,13.67-5.4,17.34-12c-0.17,24.17,5.49,74.63,5.49,124.37
				c-10.2,1.4-24.26-1.9-34.53-1.24c-2.45-32.05-3.11-89.99-4.3-118.48C575.99,623.45,581.28,626.45,588.18,626.2z"/>
		</g>
		<g id="XMLID_2451_">
			<path id="XMLID_2452_" class="st17" d="M637.65,626.78c9.42,0.88,17.13-2.81,21.88-9.13c0.45,27.5,7.83,80.2,7.83,116.9
				c-8.79,0.9-28.66,0.96-30.7,1.07c-8.04-35.16-13.01-90.82-13.68-114.94C626.75,624.05,631.97,626.25,637.65,626.78z"/>
		</g>
		<polygon id="XMLID_2450_" class="st17" points="572.37,522.86 583.24,464.36 638.45,464.36 646.02,527.27 		"/>
		<path id="XMLID_2449_" class="st17" d="M590.97,409.62c-7.88,19.71-8.09,51.8-8.03,53.24l10.35-0.82
			c-0.46-10.75-0.06-42.36,9.99-55.23C600.76,406.46,594.48,407.43,590.97,409.62z"/>
		<path id="XMLID_2448_" class="st17" d="M638.56,406.79c-10.57,19.6-9.18,57.57-9.11,57.57h9.26c-0.44-14.36,0.14-42.05,9.15-55.63
			C646.34,406.78,642.06,406.29,638.56,406.79z"/>
		<path id="XMLID_2447_" class="st18" d="M591.09,473.93c0,0-14.29,35.31,15.41,34.33c29.71-0.98,20.92-34.33,20.92-34.33H591.09z"
			/>
		<path id="XMLID_2446_" class="st15" d="M650.12,409.29c0,0,22.28,4.86,40.6,36.52l-26.29,22.07l-22.05-32.37L650.12,409.29z"/>
		<polygon id="XMLID_2445_" class="st18" points="642.9,560.64 613,570.12 585.46,560.27 606.64,578.09 623.01,576.87 		"/>
		<path id="XMLID_2444_" class="st19" d="M634.07,733.8c-0.5-0.01,5,21.26,5,21.26l28.28-2.82l1.42-19.57
			C668.78,732.67,651.62,734.18,634.07,733.8z"/>
		<path id="XMLID_2443_" class="st15" d="M665.7,749.7c-1.74-2.19-4-4.05-6.69-4.83c-1.42-0.42-2.91-0.52-4.39-0.45
			c-7.02,0.37-15.78,6.5-16.44,14.07c-0.55,6.4,0.14,13.35,0.09,19.85l33.91-0.45c-1.02-7.22-1.24-14.62-3.24-21.57
			c-0.66-2.31-1.57-4.43-3.03-6.34C665.85,749.89,665.78,749.79,665.7,749.7z"/>
		<path id="XMLID_2442_" class="st20" d="M646.68,765.35c0,0-6.47-19.44,8.88-19.31c15.35,0.13,9.8,18.68,9.8,18.68L646.68,765.35z"
			/>
		<path id="XMLID_2441_" class="st21" d="M646.69,760.31c-0.37,3.41,17.42,1.32,17.42-0.63
			C664.11,757.72,647.07,756.77,646.69,760.31z"/>
		<path id="XMLID_2440_" class="st15" d="M609.16,750.56c-0.83-0.91-1.96-1.54-3.18-1.49c-1.02,0.04-1.96,0.53-2.89,0.96
			c-4.49,2.11-9.46,3.2-14.43,3.14c-1.34-0.02-2.78-0.15-3.79-1.02c-0.61-0.53-1-1.27-1.47-1.92c-1.51-2.12-4.07-3.46-6.68-3.5
			c-3.59-0.05-5.52,2.11-7.73,4.49c-12.02,12.96-25.02,6.46-27.08,13.59c-1.13,3.89-1.46,5.68-1.54,6.5
			c0.21,0.18,0.41,0.37,0.59,0.56c1.85,1.47,5.59,1.96,7.76,2.57c3.45,0.98,6.98,1.96,10.51,2.62c6.31,1.19,13.13-0.59,19.4-1.51
			c10.18-1.49,20.3-2.69,30.52-2.96c0.49-0.01,1.33-9.27,1.39-10.09c0.29-3.41,1.07-7.47-0.52-10.65
			C609.82,751.4,609.52,750.95,609.16,750.56z"/>
		<path id="XMLID_2439_" class="st21" d="M579.56,773.19c-11.8,2.98-27.41,2.36-38.52-3.53c-0.66-0.35-1.46,0.03-1.59,0.76
			c-0.28,1.58-0.07,1.61-0.07,1.61s5.69,7.1,25.21,7.1c13.64,0,19.6-1.53,21.98-2.63c0.75-0.34,1.62,0.15,1.73,0.97v0
			c0.11,0.79,0.8,1.38,1.6,1.35l17.93-0.61c0.78-0.03,2.48-0.6,2.6-1.37c0.28-1.7,0.47-4.77,0.55-7.64
			c0.02-0.59-0.46-1.08-1.05-1.05C604.58,768.39,586.38,771.47,579.56,773.19z"/>
		<path id="XMLID_2438_" class="st22" d="M637.61,773.18c0,0-0.85-10.75,17.96-11.99c18.81-1.24,16.74,12.55,16.74,12.55
			L637.61,773.18z"/>
		<path id="XMLID_2437_" class="st21" d="M636.91,774.25l-0.23,2.96c-0.1,1.32,0.97,2.44,2.3,2.39l32.57-1.18
			c1.62-0.06,3-1.4,2.91-3.02c-0.11-1.87-1.51-3.93-7.2-3.8c-8.48,0.18-23.4,0.67-28.47,0.84
			C637.79,772.48,636.99,773.26,636.91,774.25z"/>
		<path id="XMLID_2436_" class="st19" d="M573.68,734.55c-0.51-0.13-0.08,12.18-0.08,12.18s9.56,9.33,22.11,8.28
			c12.55-1.04,14.35-3.15,14.35-3.15l3.43-15.49C613.48,736.37,586.05,737.69,573.68,734.55z"/>
		<g id="XMLID_2432_">
			<path id="XMLID_2435_" class="st21" d="M560.06,766.51c2.86-1.11,1.18-6.65,0.37-8.91c-1.39,0.66-2.76,1.16-4.08,1.55
				C556.49,761.85,557.24,767.6,560.06,766.51z"/>
			<path id="XMLID_2434_" class="st21" d="M567.03,763.6c2.68-0.67-0.24-7.06-1.35-9.29c-0.91,0.72-1.81,1.35-2.71,1.91
				C563.31,758.52,564.42,764.26,567.03,763.6z"/>
			<path id="XMLID_2433_" class="st21" d="M568.25,751.99c0.7,1.3,4.46,8.02,6.89,5.92c2.03-1.76-2.21-6.38-4.38-8.52
				c-0.59,0.57-1.17,1.19-1.76,1.83C568.75,751.49,568.5,751.74,568.25,751.99z"/>
		</g>
		<path id="XMLID_2431_" class="st21" d="M646.69,754.25c-0.37,3.41,17.42,1.32,17.42-0.63
			C664.11,751.66,647.07,750.72,646.69,754.25z"/>
		<path id="XMLID_2430_" class="st13" d="M511.24,435.63c0,0-0.55-10.24-3.74-16.42c-3.19-6.18-6.2-12.2-5.47-16.04
			c0.72-3.84-0.35-4.25-1.4-4.8c-1.06-0.55-5.38,1.9-5.35,6.43s2.51,11.89,1.26,13.02c-1.25,1.14-9.59-2.4-13.46-2.13
			c-3.86,0.27-8.7,3.2-8.67,5.22c0.02,2.02,2.33,3.02,2.33,3.02s-2.32,2.25-2.39,3.82c-0.07,1.57,2.29,3.59,2.29,3.59
			s-2.14,2.9-1.73,4.31c0.41,1.4,2.88,2.89,2.88,2.89s-1.69,1.9-1.17,3.68c0.52,1.78,4.26,4.39,12.18,7.02
			c7.92,2.63,14.71,3.5,16.53,2.66C507.14,451.05,511.24,435.63,511.24,435.63z"/>
		<path id="XMLID_2429_" class="st14" d="M606.36,411.31c0.04,4.57,6.51,6.5,10.98,6.48c5.91-0.03,14.52-3.08,13.48-9.32
			l-3.53-21.37c-0.38-4.39-4.91-7.75-10.06-7.48l-2.39,0.13c-5.16,0.27-9.06,4.08-8.69,8.47
			C606.16,388.22,606.36,411.29,606.36,411.31z"/>
		<path id="XMLID_2428_" class="st14" d="M579.91,352.39c3.63-0.53,7.16,2.99,7.88,7.88c0.72,4.88-1.64,9.28-5.27,9.81
			c-3.63,0.53-7.16-2.99-7.88-7.88C573.92,357.31,576.28,352.92,579.91,352.39z"/>
		<path id="XMLID_2427_" class="st13" d="M610.13,312.23l12.24,0.15c16.12,0.2,29.17,18.24,28.98,34.36l-0.27,22.11
			c-0.2,16.12-13.55,29.15-29.68,28.95l-12.24-0.15c-16.12-0.2-29.15-13.55-28.95-29.68l0.27-22.11
			C580.67,329.74,594,312.03,610.13,312.23z"/>
		<path id="XMLID_2426_" class="st13" d="M655.53,351.95c3.5,1.07,5.17,5.74,3.73,10.44c-1.43,4.7-5.43,7.65-8.93,6.59
			c-3.5-1.07-5.17-5.74-3.73-10.44C648.04,353.84,652.04,350.89,655.53,351.95z"/>
		<path id="XMLID_2425_" class="st14" d="M614.12,394.22c19.81-0.29,31.38-13.03,34.22-31.16c0.96,0.1,1.93,0.14,2.94,0.04
			c3.27-0.32,6.88-2.76,8.33-5.88c0.29,1.59,0.2,3.38-0.35,5.18c-1.34,4.39-4.9,7.2-8.21,6.7c-0.33,16.01-13.62,28.91-29.66,28.71
			l-12.24-0.15c-14.57-0.18-26.57-11.11-28.62-25.1C585.91,383.52,591.74,394.55,614.12,394.22z"/>
		<path id="XMLID_2424_" class="st23" d="M600.49,372.52l24.26,0.26c1.43,0.02,2.42,1.68,1.87,3.17
			c-2.57,6.87-7.82,11.56-13.88,11.5c-6.06-0.06-11.38-4.86-14.06-11.79C598.09,374.15,599.06,372.5,600.49,372.52z"/>
		<path id="XMLID_2423_" class="st24" d="M598.62,349.03c2.15,0.93,2.86,4.59,1.58,8.17c-1.27,3.58-4.04,5.73-6.19,4.8
			c-2.15-0.93-2.86-4.59-1.58-8.17C593.71,350.25,596.48,348.1,598.62,349.03z"/>
		<path id="XMLID_2422_" class="st25" d="M599.68,358.45c-1.41,2.82-3.77,4.38-5.66,3.56c-2.15-0.93-2.86-4.59-1.58-8.17
			c0.46-1.31,1.13-2.42,1.89-3.26C595.22,352.19,598.85,357.4,599.68,358.45z"/>
		<path id="XMLID_2421_" class="st24" d="M633.31,350.26c2.15,0.93,2.86,4.59,1.58,8.17c-1.27,3.58-4.04,5.73-6.19,4.8
			c-2.15-0.93-2.86-4.59-1.58-8.17C628.39,351.47,631.16,349.33,633.31,350.26z"/>
		<path id="XMLID_2420_" class="st25" d="M634.36,359.67c-1.41,2.82-3.77,4.38-5.66,3.56c-2.15-0.93-2.86-4.59-1.58-8.17
			c0.46-1.31,1.13-2.42,1.89-3.26C629.91,353.41,633.54,358.62,634.36,359.67z"/>
		<path id="XMLID_2419_" class="st26" d="M580.39,352.34c0,0-5.5-45.75,36.9-47.81c41.55-2.03,33.98,47.94,33.98,47.94
			s-2.21,1.06-3.26-3.12c-2.4-9.54-8.53-27.58-16.27-27.52c0,0-10.84,5.32-18.59,5.05c-8.67-0.31-14.4-5-14.4-5
			C592.07,322.11,583.11,338.8,580.39,352.34z"/>
		<path id="XMLID_2418_" class="st26" d="M649.81,330.16c-3.26-4.79-7-9.19-10.59-13.7c-2.43-0.2-4.87-0.29-7.31-0.51
			c-1.85-0.16-3.7-0.59-5.55-0.93c-4.26-0.37-8.55-0.78-12.39-2.8c-0.31-0.16-0.57-0.35-0.8-0.56c-3.24-0.47-6.48-0.92-9.72-1.23
			c-0.73-0.07-1.35-0.31-1.85-0.67c-0.4,0.05-0.79,0.09-1.19,0.14c-3.27,0.41-8.65,0.77-12.21,2.75c3.43,5.97,8.85,7.77,8.85,7.77
			s35.43-5.57,40.72-1.82c5.29,3.75,13.52,29.78,13.52,29.78s1.93-4.63,3.73-10.85C653.26,335.1,651.5,332.65,649.81,330.16z"/>
		<path id="XMLID_2417_" class="st26" d="M580.39,352.34c0,0-6.5-43.44,9.37-42.1c15.87,1.34-4.7,17.62-4.7,17.62L580.39,352.34z"/>
		<path id="XMLID_2416_" class="st27" d="M587.14,310.47c-12.5,3.49-6.76,41.87-6.76,41.87c2.72-13.54,11.69-30.23,18.36-30.46
			C598.75,321.88,592.63,318.2,587.14,310.47z"/>
		<path id="XMLID_2415_" class="st28" d="M649.81,330.16c-3.26-4.79-7-9.19-10.59-13.7c-2.43-0.2-4.87-0.29-7.31-0.51
			c-1.85-0.16-3.7-0.59-5.55-0.93c-4.26-0.37-8.55-0.78-12.39-2.8c-0.31-0.16-0.57-0.35-0.8-0.56c-3.24-0.47-6.48-0.92-9.72-1.23
			c-0.73-0.07-1.35-0.31-1.85-0.67c-0.4,0.05-0.79,0.09-1.19,0.14c-4.53,0.56-13.1,1.03-15.29,5.82c-0.85,1.85-2.52,2.18-3.97,1.6
			c-3.1,8.75-2.12,23.34-1.37,30.61c11.61,5.25,25.34,7.06,37.44,7.1c11.56,0.04,23.18-1.6,34.3-4.88c0.07-0.78,0.14-1.73,0.19-2.83
			c0.66-1.7,2.01-5.34,3.3-9.8C653.26,335.1,651.5,332.65,649.81,330.16z"/>
		<path id="XMLID_2414_" class="st26" d="M638.81,309.25c0.33,0.02,0.67,0.03,1,0.04c1.76,5.69-4.99,3.58-13.04-0.53
			C630.79,308.88,634.8,309.04,638.81,309.25z"/>
		<path id="XMLID_2413_" class="st19" d="M638.37,334.17c-6.47-6.95-16.73-9.25-25.79-10.5c-6.81-0.94-13.43-0.82-19.81,0.75
			c-6.54-2.74-10.94-6.05-10.17-9.95c2.41-12.23,12.46-19.61,24.38-22.3c16.91-3.82,37.6,1.78,45.62,16.29
			c4.88,8.83,5,19.49,3.13,29.03c-0.27,1.35-0.57,2.7-0.95,4.03c-0.14,0.48-0.71,0.73-1.2,0.53c-6.66-2.72-10.88-4.5-13.55-5.68
			C639.58,335.62,639.03,334.88,638.37,334.17z"/>
		<path id="XMLID_2412_" class="st17" d="M594.7,306.61c8.93,1.45,19.37,1.23,27.19-3.88c3.75-2.45,6.75-6,8.65-10.05
			c-7.62-2.03-15.97-2.22-23.56-0.51c-8.38,1.89-15.83,6.1-20.35,12.69C589.29,305.57,591.99,306.17,594.7,306.61z"/>
		<path id="XMLID_2411_" class="st29" d="M570.11,334.55c0,0,0.8,3.97,9,3.97c0,0,7.31-14.65,23.08-12.84
			c15.76,1.81,24.45,8.13,24.45,8.13s-28.94-24.02-41.54-17.25C572.49,323.33,570.01,330.13,570.11,334.55z"/>
		<path id="XMLID_2410_" class="st17" d="M650.11,340.63c0,0-20.65,3.19-27.73-1.37c-7.07-4.56-9.71-19.41-26.65-20.37
			c-16.94-0.96-25.61,15.66-25.61,15.66s-2.2-7.9,9-17.98C590.3,306.47,633.44,308.95,650.11,340.63z"/>
		<path id="XMLID_2409_" class="st19" d="M570.11,332.19c0,0,8.67-16.62,25.61-15.66c16.94,0.96,19.58,15.81,26.65,20.37
			c6.03,3.89,21.94,2.14,26.49,1.55c0.42,0.72,0.84,1.43,1.24,2.18c0,0-20.65,3.19-27.73-1.37c-7.07-4.56-9.71-19.41-26.65-20.37
			c-16.94-0.96-25.61,15.66-25.61,15.66s-0.3-1.09-0.11-2.98C570.05,331.97,570.11,332.19,570.11,332.19z"/>
	</g>
</g>
<g>
	<path class="st30" d="M325.16,799.85c0.24,1.51-0.86,1.58,0.05,2.4c0.91,0.82,4.81,3.46,9.5,3.46c4.69,0,2.12-6.91,2.05-7.07
		c-0.07-0.16-1.37-0.98-1.37-0.98l-5.41-0.55l-3.25,0.92L325.16,799.85z"/>
	<path class="st30" d="M330.68,801.55c0,3.19-2.92,4.24-5.47,2.34l-40.81-30.38c-2.56-1.91-4.65-6.08-4.65-9.27v-78.81
		c0-3.19,2.19-4.38,4.87-2.65l40.38,26.16c2.68,1.74,5.69,5.77,5.69,8.96V801.55z"/>
	<path class="st31" d="M460.33,800.38c-0.06,3.19-0.41,4.93-3.6,4.93l-121.91,0c-3.19,0-4.98-1.39-4.98-4.58V717.9
		c0-3.19,1.79-5.8,4.98-5.8h123.55c3.19,0,3.46,2.26,3.4,5.45L460.33,800.38z"/>
	<path class="st32" d="M282.37,684.46c0.13,0.02,0.43,0.09,0.9,0.4l40.38,26.16c2.39,1.55,8.24,3.55,11.17,3.55h123.55
		c0.88,0,1.7,0.34,2.31,0.97c0.61,0.62,0.94,1.45,0.93,2.33l-1.44,83.65c-0.03,1.83-1.61,3.38-3.44,3.38H334.9
		c-0.04,0-0.07,0-0.11,0l-0.05,0l-0.05,0l-0.08,0c-3.83-0.04-7.13-2.27-7.74-2.83l-0.09-0.08l-0.09-0.07l-40.81-30.38
		c-1.95-1.45-3.66-4.86-3.66-7.29v-78.81C282.21,684.91,282.3,684.6,282.37,684.46L282.37,684.46z M282.3,681.99
		c-1.52,0-2.56,1.25-2.56,3.44v78.81c0,3.19,2.09,7.36,4.65,9.27l40.81,30.38c0.91,0.82,4.81,3.46,9.5,3.46c0.01,0,0.02,0,0.04,0
		c0.03,0,0.05,0,0.07,0h121.91c3.19,0,5.85-2.61,5.9-5.8l1.44-83.65c0.06-3.19-2.51-5.8-5.7-5.8H334.82c-2.36,0-7.78-1.82-9.83-3.15
		l-40.38-26.16C283.78,682.24,282.99,681.99,282.3,681.99L282.3,681.99z"/>
	<g class="st33">
		<polygon class="st30" points="328.5,714.98 327.62,751.5 460.92,747.02 462.12,715.27 		"/>
	</g>
	<g>
		<g>
			<path class="st30" d="M330.34,712.1l-7.28,19.81c-1.1,2.99-4.14,3.95-6.75,2.12l-39.36-26.15c-2.62-1.83-3.9-5.79-2.85-8.81
				l7.23-19.23L330.34,712.1z"/>
		</g>
		<g>
			<path class="st32" d="M319.07,736.41c-1.23,0-2.48-0.41-3.6-1.19l-39.36-26.15c-3.17-2.22-4.66-6.82-3.38-10.47l7.75-19.46
				l3.37,0.34l-7.16,18.81c-0.8,2.3,0.21,5.42,2.2,6.81l37.56,24.95c0.85,0.59,1.76,0.78,2.56,0.53c0.8-0.25,1.44-0.92,1.8-1.89
				l7.25-19.56l3.96,2.79l-7.6,20.5c-0.68,1.85-2.04,3.22-3.74,3.75C320.16,736.33,319.62,736.41,319.07,736.41z"/>
		</g>
	</g>
	<g>
		<path class="st34" d="M463.65,711.68l-0.06-0.24l-0.3-0.16l-64.13-32.94c0,0-114.95-0.01-116.8-0.01c-1.85,0-1.03,1.53-1.03,1.53
			l52.26,33.32L463.65,711.68z"/>
		<path class="st32" d="M334.28,711.59l-3.93,0.57l-49.54-31.68c-0.31-0.27-0.61-0.77-0.41-1.3c0.31-0.85,1.47-0.85,1.97-0.85
			L334.28,711.59z"/>
		<path class="st32" d="M395.67,678.34l66.86,34.39h0.97l0.77-0.17l0.88-0.22l-0.14-0.6l-62.17-32.49c0,0-1.77-0.92-4.13-0.92
			L395.67,678.34z"/>
	</g>
	<g>
		<g>
			<path class="st35" d="M331.22,711.91l3.66,19.47c0.59,3.14,3.68,5.71,6.87,5.72l122.1,0.44c3.19,0.01,5.25-2.53,4.58-5.65
				l-4.36-20.17L331.22,711.91z"/>
		</g>
	</g>
	<path class="st36" d="M333.1,714.06c11.88,2.81,54.51,6.14,75.05,6.14c20.55,0,48.65-4.64,53.73-6.18l-1.31-2.29
		c0,0-37.29-0.58-57.83-0.58c-20.54,0-70.12,0.45-70.12,0.45L333.1,714.06z"/>
	<g>
		<path class="st32" d="M463.87,739c-0.01,0-0.02,0-0.03,0l-122.1-0.44c-3.86-0.01-7.58-3.11-8.29-6.91l-3.79-20.11l3.49-0.69
			l1.13,0.73l3.21,17.72c0.46,2.45,2.96,4.53,5.45,4.54c0,0,119.65,0.44,119.65,0.44c1.09,0,2.01-0.39,2.59-1.11
			c0.58-0.72,0.34-1.71,0.11-2.78l-4.82-19.25l4.54,0.59l4.83,19.86c0.41,1.92,0,3.82-1.13,5.22
			C467.57,738.22,465.85,739,463.87,739z"/>
	</g>
	<polygon class="st37" points="319.54,755.47 312.76,750.54 312.76,794.63 319.54,799.67 	"/>
	<polygon class="st37" points="293.25,735.98 286.47,731.05 286.47,775.13 293.25,780.18 	"/>
	<polygon class="st38" points="358.51,704.49 349.2,699.12 329.65,699.12 337.91,704.49 	"/>
	<g>
		<path class="st39" d="M253.75,800.28c-19.52,0-30.56-1.52-36.13-4.92c-1.36-0.83-2.39-1.77-3.14-2.83
			c-1.6-2.26-1.88-5.02-0.79-7.76c3.25-8.18,15.43-8.88,50.17-8.02c0.27,0.01,0.53,0.01,0.79,0.01c16.26,0,18.69-22.72,19.78-35.91
			c0.42-5.16,2.04-5.89,2.04-9.81c0,0,6.68,5.23,6.78,4.93c-0.19,0.59-0.49,3.86-0.63,5.55c-0.83,10.1-2.77,40.16-27.93,40.17
			c-0.34,0-0.68,0-1.03-0.01c-16.07-0.4-36.91-1.07-43.64,1.08c-0.98,0.31-1.77,0.74-2.35,1.26c-2.11,1.85-1.56,4.73,2.5,6.69
			c2.09,1.02,5.12,1.79,9.2,2.05c10.96,0.71,34.33-0.74,45.05-1.13c29.82-1.09,30.83-5.93,33.97-15.09c1.35-3.94,1.26-22.83,4.58-26
			l6.59,4.93c-1.87,1.79-2.26,20.45-3.39,23.74c-3.47,10.11-5.98,19.33-41.44,20.63C266.83,800.13,259.87,800.28,253.75,800.28z"/>
	</g>
	<g>
		<path class="st40" d="M308.38,776.55c-2.03,5.91-3.18,10.03-11.77,12.49c-2.08,0.6,7.31,5.88,9.41,4.67
			c6.66-3.83,8.25-9.03,10.13-14.49c1.13-3.29,1.52-21.95,3.39-23.74l-6.59-4.93C309.64,753.71,309.74,772.6,308.38,776.55z"/>
		<path class="st40" d="M268.73,776.22c1.7,1.21,3.49,2.48,5.31,3.78c16.32-6.46,17.86-29.8,18.57-38.47
			c0.14-1.69,0.43-4.96,0.63-5.55c-0.1,0.3-6.78-4.93-6.78-4.93c-1.19,1.44-1.61,4.64-2.04,9.81
			C283.44,752.85,281.33,772.72,268.73,776.22z"/>
	</g>
</g>
<g>
	<polygon class="st41" points="279.65,613.03 275.3,627.85 331.44,667.29 343.5,663.59 	"/>
	<polygon class="st41" points="395.32,628.52 338.51,622.41 279.58,612.69 343.37,663.52 457.85,678.14 406.11,645.16 	"/>
	<polygon class="st42" points="342.17,683.16 456.42,696.15 457.85,678.16 343.39,662.86 	"/>
	<g>
		<g>
			<g>
				<polygon class="st43" points="268.84,709.33 342.62,684.41 343.62,663.66 269.21,691.49 				"/>
			</g>
		</g>
		<path class="st44" d="M342.97,674.33l-0.35,5.8l-41.23,18.34c-0.54-0.89-0.91-1.79-1.09-2.7c-0.38-1.95,0.32-10.87,2.17-16.41
			l11.08-4.56C320.56,674.54,331.14,674.29,342.97,674.33z"/>
	</g>
	<path class="st44" d="M342.99,669.54c7.06,0.07,14.43,0.25,21.7,0.59c10.39-0.29,43.66,2.7,53.49,3.33l1.15,0.32
		c13.83,3.6,16.88,17.35,16.27,19.83c-0.09,0.36-0.21,0.72-0.35,1.07l-93.16-10.27L342.99,669.54z"/>
	<g>
		<g>
			<path class="st45" d="M310.49,677.93c0.26-0.2,29.94-1.64,57.88-0.33c27.99-0.77,59,3.92,59.25,4.17
				c2.4,2.38,1.27,7.94,0.67,10.32c-1.25,5.04-7.52,10.28-19.87,13.62c-10.86,3.15-25.46,4.82-40.68,4.63
				c-15.22-0.1-29.73-2.04-40.43-5.4c-12.17-3.57-18.92-8.33-19.92-13.39C306.92,689.15,307.29,680.43,310.49,677.93z"/>
			<g>
				<g class="st46">
					<g>
						<path class="st47" d="M391.39,668.94c0.8,0.11,1.65,0.19,2.44,0.3c0.28,0.04,0.55,0.09,0.82,0.14
							c1.16,0.23,1.83,0.68,2.93,0.93c0.26,0.06,0.54,0.11,0.84,0.15c0.61,0.09,1.27,0.15,1.87,0.24c0.37,0.05,0.71,0.11,1.01,0.19
							c1.05,0.29,2.23,0.52,3.2,0.82c0.98,0.31,1.5,0.74,2.41,1.07c0.91,0.33,1.82,0.64,2.65,0.98c0.83,0.35,1.85,0.64,2.6,1.01
							c0.75,0.36,1.52,0.73,2.18,1.1c0.66,0.38,0.4,0.88,0.98,1.27c0.58,0.39,1.63,0.71,2.12,1.11c0.49,0.4,0.32,0.85,0.72,1.26
							c0.4,0.41,0.97,0.79,1.27,1.21c0.3,0.42,1.11,0.8,1.31,1.22c0.2,0.42,0.07,0.84,0.17,1.26c0.1,0.42,0.44,0.84,0.44,1.26
							c0,0.42-0.49,0.82-0.59,1.24c-0.1,0.42,0.48,0.87,0.28,1.28c-0.2,0.41-0.01,0.86-0.31,1.27c-0.29,0.4-2.08,0.65-2.48,1.05
							c-0.39,0.39-0.2,0.85-0.69,1.24c-0.49,0.39-0.85,0.79-1.42,1.15c-0.58,0.37-1.49,0.67-2.15,1.02
							c-0.67,0.35-1.54,0.65-2.29,0.98c-0.76,0.34-0.62,0.89-1.45,1.2c-0.83,0.31-1.95,0.56-2.85,0.85
							c-0.91,0.29-2.67,0.28-3.64,0.55c-0.98,0.27-1.61,0.65-2.65,0.89c-1.04,0.24-2.01,0.5-3.11,0.72
							c-1.1,0.22-1.73,0.69-2.88,0.88c-1.16,0.19-3.06-0.09-4.26,0.07c-1.2,0.16-1.99,0.59-3.23,0.73
							c-1.24,0.13-2.19,0.57-3.46,0.67c-1.27,0.1-2.98-0.3-4.28-0.23c-1.3,0.07-2.57,0.11-3.9,0.15c-1.31,0.04-2.56,0.21-3.89,0.22
							c-1.33,0.01-2.65-0.14-3.99-0.17c-1.33-0.02-2.72,0.34-4.05,0.29c-1.32-0.06-2.64-0.27-3.97-0.35
							c-0.27-0.02-0.54-0.05-0.8-0.09c-0.8-0.12-1.57-0.3-2.38-0.42c-0.19-0.03-0.38-0.05-0.58-0.07c-1.29-0.12-2.93,0.14-4.21-0.01
							c-0.05-0.01-0.09-0.01-0.14-0.02c-1.19-0.17-2-0.69-3.2-0.86c-1.21-0.17-2.94,0.02-4.14-0.15c-0.04-0.01-0.08-0.01-0.12-0.02
							c-1.21-0.21-1.75-0.81-2.9-1.04c-0.16-0.03-0.33-0.06-0.5-0.09c-0.85-0.12-1.85-0.17-2.69-0.29
							c-0.24-0.03-0.47-0.07-0.68-0.12c-1.11-0.26-1.81-0.69-2.85-0.97c-0.24-0.07-0.52-0.12-0.83-0.16
							c-0.67-0.09-1.44-0.16-2.1-0.25c-0.35-0.05-0.68-0.11-0.94-0.19c-0.98-0.31-1.75-0.71-2.65-1.03
							c-0.91-0.33-0.66-0.95-1.49-1.29c-0.83-0.35-2.95-0.42-3.7-0.78c-0.75-0.36-0.77-0.87-1.44-1.25
							c-0.67-0.38-2.16-0.65-2.73-1.04c-0.58-0.39,0.07-0.94-0.42-1.34c-0.49-0.4-1.34-0.77-1.73-1.18
							c-0.39-0.41-0.42-0.85-0.72-1.26c-0.3-0.42-0.67-0.83-0.87-1.25c-0.2-0.42,0.39-0.84,0.29-1.27c-0.1-0.42-1.25-0.85-1.25-1.27
							c0-0.42,0.24-0.84,0.34-1.26c0.1-0.41,0.45-0.82,0.65-1.24c0.2-0.41,0.22-0.84,0.52-1.25c0.29-0.4,1.02-0.76,1.41-1.16
							c0.39-0.39,0.88-0.77,1.37-1.16c0.49-0.38-0.19-0.96,0.39-1.33c0.58-0.37,1.29-0.74,1.95-1.09c0.67-0.35,2.69-0.42,3.43-0.75
							c0.76-0.34,0.82-0.84,1.65-1.15c0.83-0.31,1.49-0.7,2.39-0.99c0.91-0.29,2.47-0.37,3.44-0.64c0.98-0.27,1.42-0.75,2.46-0.99
							c1.05-0.24,2.82-0.16,3.92-0.38c1.11-0.22,1.67-0.72,2.82-0.9c1.15-0.19,2.36-0.37,3.56-0.54c1.2-0.16,2.29-0.45,3.53-0.58
							c1.24-0.13,3.07,0.27,4.34,0.17c1.27-0.1,2.46-0.25,3.76-0.32c1.3-0.07,2.51-0.25,3.83-0.29c1.32-0.04,2.64-0.04,3.98-0.04
							c1.33-0.01,2.65,0.08,3.99,0.1c1.33,0.03,2.59,0.24,3.93,0.29c1.32,0.06,2.58,0.12,3.91,0.21c1.31,0.09,2.91-0.3,4.22-0.18
							c0.34,0.03,0.67,0.07,1,0.12c0.74,0.11,1.46,0.24,2.19,0.35c0.19,0.03,0.39,0.05,0.58,0.07c1.26,0.15,2.58,0.69,3.83,0.87
							c1.25,0.18,2.03,0.27,3.22,0.47C391.07,668.9,391.23,668.92,391.39,668.94L391.39,668.94z M389.62,666.95
							c-7.25-1.04-14.84-1.61-22.56-1.69c-7.45-0.08-14.72,0.3-21.58,1.11c-6.87,0.82-12.99,2.04-18.2,3.63
							c-3.49,1.06-7.75,2.18-12.41,5.85c-2.84,2.24-4.18,4.62-3.97,7.06c0.2,2.36,1.82,4.69,4.82,6.92c3,2.23,7.23,4.25,12.56,6
							c5.52,1.81,12,3.26,19.25,4.3c7.25,1.04,14.84,1.61,22.56,1.69c7.45,0.08,14.71-0.29,21.58-1.11
							c6.86-0.82,12.99-2.04,18.2-3.63c5.39-1.64,9.57-3.61,12.41-5.86c2.84-2.24,4.18-4.62,3.97-7.06
							c-0.2-2.36-1.82-4.69-4.82-6.92c-3-2.23-7.23-4.25-12.56-6C403.35,669.43,396.87,667.99,389.62,666.95L389.62,666.95z"/>
						<path class="st45" d="M347.52,700.14c-7.25-1.04-13.73-2.48-19.25-4.3c-5.34-1.75-9.56-3.77-12.56-6
							c-3-2.23-4.62-4.56-4.82-6.92c-0.21-2.45,1.13-4.83,3.97-7.06c2.84-2.24,7.02-4.21,12.41-5.85c5.21-1.59,11.33-2.81,18.2-3.63
							c6.86-0.82,14.13-1.19,21.58-1.11c7.72,0.08,15.31,0.65,22.56,1.69c7.25,1.04,13.73,2.48,19.25,4.29
							c5.33,1.75,9.56,3.77,12.56,6c3,2.23,4.62,4.56,4.82,6.92c0.2,2.45-1.13,4.82-3.97,7.06c-2.84,2.24-7.02,4.21-12.41,5.86
							c-5.21,1.59-11.33,2.81-18.2,3.63c-6.87,0.82-14.13,1.19-21.58,1.11C362.36,701.74,354.77,701.17,347.52,700.14L347.52,700.14
							z M390.42,666.31c-30.79-4.41-65.54-0.27-77.61,9.25c-12.07,9.52,3.11,20.8,33.9,25.21c30.8,4.41,65.54,0.26,77.61-9.25
							C436.39,682,421.21,670.72,390.42,666.31L390.42,666.31z"/>
						
							<linearGradient id="SVGID_3_" gradientUnits="userSpaceOnUse" x1="5000.4277" y1="803.2919" x2="5000.4277" y2="867.6703" gradientTransform="matrix(-0.9972 -0.0753 -0.0754 0.9971 5417.6143 221.9126)">
							<stop  offset="0" style="stop-color:#FFD360"/>
							<stop  offset="0.7878" style="stop-color:#FCBA45"/>
							<stop  offset="1" style="stop-color:#FBB23D"/>
						</linearGradient>
						<path class="st48" d="M386.58,668.84c-0.84-0.12-1.74-0.22-2.69-0.33c-0.3-0.03-0.61-0.07-0.9-0.1
							c-0.26-0.03-0.51-0.06-0.79-0.1c-0.45-0.06-0.85-0.13-1.25-0.2c-0.34-0.06-0.65-0.11-0.94-0.15
							c-0.14-0.02-0.27-0.04-0.39-0.05c-0.19,0.01-0.49,0.04-0.71,0.06c-0.89,0.09-2.11,0.2-3.49,0.11
							c-1.14-0.07-2.28-0.14-3.68-0.2c-0.86-0.04-1.62-0.11-2.29-0.18c-0.55-0.05-1.06-0.11-1.42-0.11
							c-0.62-0.01-1.19-0.03-1.76-0.05c-0.72-0.03-1.4-0.05-2.01-0.05c-0.17,0-0.33,0-0.5,0c-1.14,0-2.21,0.01-3.25,0.04
							c-0.47,0.01-1.03,0.06-1.63,0.12c-0.59,0.05-1.26,0.12-1.99,0.16c-0.62,0.03-1.28,0.09-1.97,0.16
							c-0.51,0.05-1.03,0.1-1.58,0.14c-1.37,0.11-2.69-0.01-3.64-0.1c-0.22-0.02-0.52-0.05-0.71-0.06
							c-0.36,0.05-0.78,0.13-1.21,0.21c-0.56,0.11-1.19,0.23-1.9,0.32c-0.95,0.13-2.01,0.29-3.34,0.5c-0.13,0.03-0.42,0.15-0.6,0.23
							c-0.5,0.21-1.11,0.46-2.06,0.65c-0.99,0.19-2.05,0.25-2.9,0.29c-0.28,0.02-0.69,0.04-0.87,0.06
							c-0.15,0.05-0.41,0.18-0.59,0.27c-0.4,0.21-0.9,0.46-1.67,0.67c-0.76,0.21-1.61,0.33-2.29,0.43
							c-0.34,0.05-0.86,0.13-0.99,0.17c-0.36,0.12-0.73,0.28-1.11,0.46c-0.35,0.16-0.71,0.32-1.13,0.48
							c-0.11,0.04-0.28,0.21-0.39,0.31c-0.24,0.23-0.54,0.52-1.13,0.78c-0.77,0.34-1.9,0.51-2.73,0.64
							c-0.22,0.03-0.53,0.08-0.69,0.11l-0.09,0.05c-0.56,0.3-1.15,0.6-1.61,0.9c-0.02,0.06,0,0.18,0.02,0.27
							c0.05,0.29,0.1,0.66-0.37,1.03l-0.17,0.13c-0.42,0.33-0.82,0.65-1.14,0.96c-0.22,0.22-0.51,0.43-0.76,0.6
							c-0.25,0.18-0.49,0.35-0.6,0.49c-0.14,0.19-0.21,0.41-0.28,0.65c-0.05,0.17-0.11,0.35-0.19,0.53
							c-0.08,0.18-0.19,0.34-0.29,0.5c-0.15,0.24-0.28,0.46-0.34,0.66c-0.04,0.17-0.1,0.34-0.16,0.5c-0.09,0.24-0.17,0.46-0.17,0.67
							c0.04,0.06,0.23,0.19,0.36,0.28c0.35,0.25,0.8,0.56,0.89,0.93c0.07,0.31-0.07,0.59-0.19,0.82c-0.07,0.14-0.16,0.31-0.12,0.38
							c0.12,0.25,0.32,0.51,0.53,0.79c0.1,0.13,0.2,0.26,0.3,0.39c0.16,0.22,0.25,0.42,0.33,0.62c0.09,0.21,0.17,0.41,0.33,0.57
							c0.13,0.14,0.41,0.31,0.71,0.48c0.31,0.19,0.67,0.4,0.95,0.63c0.46,0.38,0.42,0.74,0.38,1.03c-0.01,0.08-0.03,0.2-0.01,0.26
							c0.14,0.06,0.48,0.16,0.71,0.24c0.6,0.18,1.33,0.41,1.88,0.72c0.51,0.29,0.75,0.59,0.95,0.82c0.08,0.1,0.19,0.23,0.28,0.31
							c0.18,0.03,0.44,0.07,0.63,0.1c0.9,0.13,2.13,0.31,3.02,0.68c0.84,0.35,1.09,0.74,1.28,1.03c0.05,0.08,0.12,0.19,0.18,0.25
							c0.41,0.15,0.77,0.3,1.12,0.45c0.42,0.17,0.81,0.34,1.2,0.47c0.02,0,0.04,0.01,0.08,0.01c0.19,0.03,0.47,0.06,0.77,0.09
							c0.41,0.04,0.86,0.09,1.33,0.16c0.62,0.09,1.14,0.19,1.59,0.32c0.7,0.19,1.23,0.4,1.7,0.58c0.34,0.14,0.7,0.28,0.96,0.34
							c0,0,0.02,0,0.1,0.02c0.22,0.03,0.57,0.06,0.93,0.1c0.53,0.05,1.13,0.11,1.76,0.19c0.32,0.05,0.62,0.1,0.9,0.15
							c1.13,0.23,1.8,0.55,2.33,0.8c0.11,0.05,0.26,0.13,0.38,0.18c0.19,0,0.44,0,0.63,0c0.91-0.01,2.17-0.02,3.42,0.16
							c1.2,0.17,2.01,0.45,2.65,0.67c0.15,0.05,0.36,0.12,0.5,0.17c0.2,0,0.51-0.02,0.72-0.03c0.9-0.04,2.02-0.09,3.25,0.03
							c0.33,0.03,0.66,0.07,1,0.12c0.57,0.08,1.08,0.18,1.52,0.26c0.32,0.06,0.62,0.12,0.86,0.15c0.11,0.02,0.16,0.02,0.16,0.02
							c0.76,0.05,1.47,0.13,2.1,0.2c0.57,0.06,1.11,0.12,1.55,0.14c0.18-0.01,0.55-0.06,0.8-0.09c0.83-0.1,1.87-0.22,3.13-0.2
							c0.79,0.01,1.52,0.06,2.16,0.1c0.6,0.03,1.17,0.07,1.61,0.07c0.42,0,0.96-0.04,1.53-0.09c0.63-0.05,1.35-0.1,2.15-0.13
							c1.31-0.04,2.49-0.08,3.68-0.14c1.35-0.07,2.6,0.06,3.52,0.15c0.2,0.02,0.47,0.05,0.67,0.07c0.19-0.04,0.47-0.11,0.66-0.16
							c0.63-0.16,1.42-0.36,2.46-0.47c0.15-0.02,0.51-0.13,0.74-0.19c0.58-0.17,1.3-0.38,2.3-0.51c1.26-0.17,2.56-0.12,3.5-0.09
							c0.2,0.01,0.48,0.02,0.67,0.02c0.17-0.05,0.4-0.14,0.57-0.21c0.5-0.19,1.11-0.43,2.01-0.6c0.64-0.13,1.26-0.28,1.92-0.44
							c0.33-0.08,0.66-0.16,1.02-0.24c0.29-0.07,0.62-0.19,0.97-0.33c0.42-0.16,0.89-0.34,1.51-0.51c0.89-0.24,1.91-0.34,2.73-0.43
							c0.27-0.03,0.66-0.07,0.81-0.09c0.44-0.14,0.88-0.26,1.32-0.38c0.5-0.14,0.96-0.26,1.31-0.39c0.07-0.05,0.17-0.18,0.24-0.27
							c0.19-0.26,0.44-0.59,1.11-0.89c0.33-0.15,0.67-0.29,1-0.42c0.44-0.18,0.86-0.34,1.17-0.51c0.35-0.19,0.72-0.35,1.08-0.5
							c0.38-0.16,0.74-0.32,0.97-0.46c0.29-0.19,0.53-0.4,0.79-0.63c0.17-0.15,0.34-0.3,0.54-0.46c0.11-0.09,0.16-0.24,0.2-0.41
							c0.06-0.23,0.14-0.49,0.41-0.76c0.41-0.4,1.3-0.68,1.94-0.87c0.16-0.05,0.39-0.12,0.51-0.16c0.07-0.13,0.08-0.3,0.09-0.47
							c0.01-0.2,0.03-0.44,0.14-0.68c0.04-0.08-0.04-0.24-0.12-0.4c-0.12-0.24-0.25-0.51-0.18-0.81c0.06-0.25,0.21-0.47,0.35-0.67
							c0.12-0.19,0.24-0.36,0.24-0.5c0-0.18-0.1-0.38-0.2-0.6c-0.09-0.19-0.18-0.38-0.23-0.59c-0.05-0.21-0.05-0.4-0.06-0.59
							c0-0.22-0.01-0.43-0.09-0.61c-0.05-0.11-0.26-0.27-0.48-0.43c-0.28-0.21-0.59-0.45-0.79-0.72c-0.13-0.18-0.37-0.38-0.61-0.59
							c-0.2-0.17-0.41-0.35-0.59-0.54c-0.27-0.28-0.35-0.54-0.42-0.76c-0.06-0.17-0.11-0.33-0.22-0.43
							c-0.12-0.1-0.43-0.24-0.75-0.39c-0.42-0.19-0.89-0.4-1.27-0.66c-0.48-0.33-0.61-0.64-0.71-0.9c-0.04-0.11-0.1-0.26-0.17-0.31
							c-0.53-0.3-1.14-0.59-1.78-0.91l-0.28-0.13c-0.31-0.15-0.75-0.31-1.21-0.47c-0.41-0.15-0.84-0.3-1.26-0.48
							c-0.59-0.24-1.25-0.48-1.96-0.73c-0.18-0.07-0.36-0.13-0.55-0.2c-0.59-0.21-1.02-0.43-1.4-0.63c-0.3-0.16-0.59-0.3-0.85-0.38
							c-0.43-0.13-0.98-0.26-1.56-0.41c-0.48-0.11-0.97-0.23-1.47-0.37c0,0-0.06-0.02-0.25-0.04c-0.2-0.03-0.46-0.06-0.73-0.09
							c-0.35-0.04-0.74-0.08-1.14-0.14c-0.54-0.08-1.01-0.16-1.43-0.26c-0.83-0.2-1.44-0.43-1.92-0.62
							c-0.28-0.11-0.63-0.24-0.82-0.28c-0.12-0.02-0.25-0.05-0.42-0.07c-0.29-0.04-0.64-0.08-1-0.12c-0.44-0.05-0.93-0.11-1.44-0.18
							c-0.24-0.03-0.46-0.07-0.68-0.1c-1.04-0.18-1.76-0.43-2.35-0.63C387.06,668.98,386.73,668.87,386.58,668.84L386.58,668.84z"/>
						<path class="st49" d="M399.59,680.57c-0.54-0.11-0.81-0.32-0.6-0.48c0.22-0.16,0.83-0.2,1.37-0.09
							c0.54,0.11,0.81,0.32,0.59,0.48C400.75,680.64,400.13,680.68,399.59,680.57L399.59,680.57z M404.42,679.5
							c-0.65-0.13-0.97-0.39-0.72-0.57c0.26-0.19,1-0.24,1.65-0.11c0.65,0.13,0.97,0.39,0.71,0.58
							C405.81,679.58,405.07,679.63,404.42,679.5L404.42,679.5z M404.4,677.56c-4.87-0.97-10.72-0.96-12.64,0.45
							c-0.3,0.22-0.15,0.8-0.25,1.03c-0.53,1.29,1.81,2.79,5.93,3.61c4.87,0.97,10.38,0.61,12.3-0.8c0.63-0.46,0.95-1.9,0.81-3.09
							c-0.02-0.13-0.08-0.11-0.13-0.19C409.75,677.59,407.44,678.16,404.4,677.56L404.4,677.56z"/>
						<path class="st45" d="M390.31,669.79c0.51,0.07,1,0.13,1.44,0.18c0.37,0.04,0.71,0.08,1,0.12c0.17,0.03,0.31,0.05,0.42,0.07
							c0.19,0.04,0.53,0.17,0.82,0.28c0.48,0.19,1.09,0.42,1.92,0.62c0.42,0.1,0.88,0.18,1.43,0.26c0.4,0.06,0.8,0.1,1.14,0.14
							c0.27,0.03,0.53,0.06,0.73,0.09c0.18,0.03,0.24,0.04,0.24,0.04c0.5,0.13,0.99,0.25,1.47,0.37c0.58,0.14,1.13,0.27,1.56,0.41
							c0.25,0.08,0.54,0.23,0.85,0.38c0.38,0.2,0.81,0.42,1.4,0.63c0.18,0.07,0.37,0.13,0.55,0.2c0.7,0.25,1.37,0.49,1.96,0.73
							c0.42,0.17,0.85,0.33,1.26,0.48c0.47,0.17,0.9,0.32,1.21,0.47l0.28,0.13c0.64,0.31,1.25,0.61,1.78,0.91
							c0.07,0.05,0.13,0.21,0.17,0.31c0.1,0.26,0.23,0.57,0.71,0.9c0.39,0.26,0.86,0.47,1.27,0.66c0.32,0.14,0.63,0.28,0.75,0.39
							c0.12,0.09,0.17,0.25,0.22,0.43c0.07,0.23,0.16,0.48,0.42,0.76c0.19,0.19,0.39,0.37,0.59,0.54c0.25,0.21,0.48,0.41,0.61,0.59
							c0.2,0.27,0.51,0.51,0.79,0.72c0.22,0.17,0.43,0.32,0.48,0.43c0.09,0.18,0.09,0.39,0.09,0.61c0.01,0.19,0.01,0.38,0.06,0.59
							c0.05,0.21,0.14,0.4,0.23,0.59c0.1,0.22,0.2,0.42,0.2,0.6c0,0.14-0.12,0.31-0.24,0.5c-0.13,0.2-0.29,0.42-0.35,0.67
							c-0.07,0.3,0.06,0.57,0.18,0.81c0.08,0.16,0.16,0.32,0.12,0.4c-0.11,0.24-0.13,0.48-0.14,0.68c-0.01,0.17-0.02,0.34-0.09,0.47
							c-0.12,0.04-0.35,0.11-0.51,0.16c-0.65,0.2-1.54,0.47-1.94,0.87c-0.27,0.27-0.35,0.53-0.41,0.76
							c-0.05,0.17-0.09,0.33-0.2,0.41c-0.2,0.16-0.37,0.31-0.54,0.46c-0.26,0.23-0.5,0.44-0.79,0.63c-0.23,0.14-0.59,0.3-0.97,0.46
							c-0.36,0.15-0.73,0.31-1.08,0.5c-0.31,0.17-0.73,0.33-1.17,0.51c-0.33,0.13-0.67,0.27-1,0.42c-0.67,0.3-0.92,0.62-1.11,0.89
							c-0.07,0.09-0.17,0.22-0.24,0.27c-0.34,0.13-0.81,0.25-1.31,0.39c-0.43,0.12-0.88,0.24-1.32,0.38
							c-0.15,0.02-0.54,0.06-0.81,0.09c-0.82,0.08-1.84,0.18-2.73,0.43c-0.62,0.17-1.09,0.36-1.51,0.51
							c-0.35,0.14-0.67,0.26-0.97,0.33c-0.35,0.08-0.69,0.16-1.02,0.24c-0.66,0.16-1.28,0.31-1.92,0.44
							c-0.9,0.18-1.52,0.41-2.01,0.6c-0.17,0.07-0.4,0.16-0.57,0.21c-0.19,0-0.47-0.01-0.67-0.02c-0.95-0.03-2.24-0.08-3.5,0.09
							c-1.01,0.13-1.72,0.34-2.3,0.51c-0.24,0.07-0.59,0.17-0.74,0.19c-1.05,0.11-1.83,0.31-2.46,0.47
							c-0.2,0.05-0.48,0.12-0.66,0.16c-0.2-0.02-0.47-0.05-0.67-0.07c-0.92-0.09-2.17-0.23-3.52-0.15c-1.19,0.06-2.37,0.1-3.68,0.14
							c-0.8,0.02-1.51,0.08-2.15,0.13c-0.57,0.04-1.11,0.09-1.53,0.09c-0.43,0-1-0.03-1.61-0.07c-0.64-0.04-1.37-0.08-2.16-0.1
							c-1.26-0.02-2.3,0.1-3.13,0.2c-0.25,0.03-0.62,0.08-0.8,0.09c-0.43-0.02-0.98-0.08-1.55-0.14c-0.63-0.07-1.34-0.14-2.1-0.2
							c0,0-0.05,0-0.16-0.02c-0.23-0.03-0.54-0.09-0.86-0.15c-0.45-0.09-0.95-0.18-1.52-0.26c-0.34-0.05-0.67-0.09-1-0.12
							c-1.23-0.11-2.35-0.06-3.25-0.03c-0.22,0.01-0.52,0.02-0.72,0.03c-0.15-0.05-0.35-0.12-0.5-0.17
							c-0.64-0.22-1.45-0.5-2.65-0.67c-1.25-0.18-2.5-0.17-3.42-0.16c-0.19,0-0.44,0-0.63,0c-0.12-0.05-0.27-0.12-0.38-0.18
							c-0.53-0.26-1.2-0.58-2.33-0.8c-0.28-0.06-0.57-0.11-0.9-0.15c-0.62-0.09-1.22-0.14-1.76-0.19c-0.36-0.03-0.71-0.07-0.93-0.1
							c-0.07-0.01-0.1-0.02-0.1-0.02c-0.26-0.06-0.62-0.2-0.96-0.34c-0.47-0.18-1-0.39-1.7-0.58c-0.45-0.13-0.97-0.22-1.59-0.32
							c-0.47-0.07-0.92-0.12-1.33-0.16c-0.3-0.03-0.57-0.06-0.77-0.09c-0.03-0.01-0.06-0.01-0.08-0.01
							c-0.38-0.12-0.78-0.29-1.2-0.47c-0.35-0.15-0.71-0.3-1.12-0.45c-0.06-0.06-0.13-0.17-0.18-0.25
							c-0.18-0.29-0.44-0.68-1.28-1.03c-0.89-0.37-2.12-0.55-3.02-0.68c-0.19-0.03-0.45-0.07-0.63-0.1c-0.1-0.08-0.2-0.21-0.28-0.31
							c-0.2-0.24-0.45-0.53-0.95-0.82c-0.54-0.31-1.28-0.54-1.88-0.72c-0.23-0.07-0.57-0.18-0.71-0.24c-0.02-0.06,0-0.18,0.01-0.26
							c0.04-0.29,0.08-0.65-0.38-1.03c-0.29-0.23-0.64-0.45-0.95-0.63c-0.3-0.18-0.58-0.34-0.71-0.48
							c-0.15-0.16-0.24-0.36-0.33-0.57c-0.09-0.2-0.17-0.4-0.33-0.62c-0.09-0.13-0.2-0.27-0.3-0.39c-0.21-0.28-0.41-0.54-0.53-0.79
							c-0.04-0.08,0.05-0.24,0.12-0.38c0.12-0.22,0.27-0.5,0.19-0.82c-0.09-0.37-0.53-0.68-0.89-0.93
							c-0.13-0.09-0.32-0.22-0.36-0.28c0-0.21,0.08-0.43,0.17-0.67c0.06-0.16,0.12-0.33,0.16-0.5c0.05-0.21,0.19-0.43,0.34-0.66
							c0.1-0.16,0.21-0.33,0.29-0.5c0.09-0.18,0.14-0.36,0.19-0.53c0.07-0.23,0.14-0.45,0.28-0.65c0.1-0.14,0.34-0.31,0.6-0.49
							c0.26-0.18,0.54-0.38,0.76-0.6c0.32-0.32,0.71-0.63,1.14-0.96l0.17-0.13c0.47-0.37,0.41-0.73,0.37-1.03
							c-0.01-0.09-0.03-0.21-0.02-0.27c0.47-0.3,1.05-0.6,1.61-0.9l0.09-0.05c0.16-0.03,0.47-0.08,0.69-0.11
							c0.82-0.12,1.96-0.29,2.73-0.64c0.59-0.27,0.89-0.55,1.13-0.78c0.11-0.11,0.28-0.27,0.39-0.31c0.42-0.16,0.78-0.32,1.13-0.48
							c0.38-0.17,0.75-0.34,1.11-0.46c0.13-0.04,0.65-0.12,0.99-0.17c0.69-0.1,1.54-0.22,2.29-0.43c0.77-0.21,1.27-0.47,1.67-0.67
							c0.18-0.09,0.44-0.22,0.59-0.27c0.18-0.02,0.59-0.04,0.87-0.06c0.85-0.05,1.91-0.1,2.9-0.29c0.95-0.19,1.56-0.44,2.06-0.65
							c0.19-0.08,0.47-0.19,0.6-0.23c1.33-0.22,2.39-0.38,3.34-0.5c0.71-0.09,1.34-0.22,1.9-0.32c0.44-0.08,0.85-0.16,1.21-0.21
							c0.19,0.01,0.49,0.04,0.71,0.06c0.95,0.09,2.27,0.21,3.64,0.1c0.56-0.05,1.08-0.1,1.58-0.14c0.69-0.07,1.35-0.13,1.97-0.16
							c0.73-0.04,1.4-0.1,1.99-0.16c0.6-0.06,1.16-0.11,1.63-0.12c1.04-0.03,2.11-0.04,3.25-0.04c0.17,0,0.33,0,0.5,0
							c0.61,0,1.29,0.02,2.01,0.05c0.56,0.02,1.14,0.04,1.76,0.05c0.36,0.01,0.87,0.06,1.42,0.11c0.67,0.06,1.43,0.14,2.29,0.18
							c1.41,0.06,2.55,0.12,3.68,0.2c1.38,0.09,2.6-0.03,3.49-0.11c0.22-0.02,0.52-0.05,0.71-0.06c0.12,0.01,0.25,0.03,0.39,0.05
							c0.29,0.04,0.61,0.09,0.94,0.15c0.4,0.07,0.8,0.13,1.25,0.2c0.28,0.04,0.53,0.07,0.79,0.1c0.3,0.04,0.6,0.07,0.9,0.1
							c0.95,0.11,1.84,0.21,2.69,0.33c0.15,0.03,0.48,0.15,0.71,0.23c0.58,0.2,1.31,0.45,2.35,0.63
							C389.85,669.72,390.07,669.76,390.31,669.79L390.31,669.79z M387.69,667.99c-1.25-0.18-2.56-0.32-3.83-0.47
							c-0.2-0.02-0.39-0.05-0.58-0.07c-0.74-0.11-1.46-0.24-2.19-0.35c-0.33-0.05-0.66-0.09-1-0.12c-1.31-0.12-2.91,0.26-4.22,0.18
							c-1.33-0.09-2.58-0.15-3.91-0.21c-1.33-0.06-2.6-0.27-3.93-0.29c-1.34-0.02-2.66-0.11-3.99-0.1c-1.33,0-2.66,0.01-3.98,0.04
							c-1.32,0.04-2.54,0.22-3.83,0.29c-1.3,0.07-2.49,0.22-3.76,0.32c-1.28,0.1-3.1-0.3-4.34-0.17c-1.24,0.13-2.33,0.42-3.53,0.58
							c-1.2,0.16-2.41,0.35-3.56,0.54c-1.15,0.19-1.72,0.69-2.82,0.9c-1.1,0.22-2.87,0.13-3.92,0.38c-1.04,0.24-1.48,0.73-2.46,0.99
							c-0.97,0.27-2.53,0.35-3.44,0.64c-0.9,0.29-1.55,0.67-2.39,0.99c-0.83,0.31-0.89,0.82-1.65,1.15
							c-0.75,0.33-2.76,0.4-3.43,0.75c-0.66,0.35-1.37,0.72-1.95,1.09c-0.57,0.37,0.11,0.94-0.39,1.33
							c-0.49,0.39-0.98,0.76-1.37,1.16c-0.39,0.4-1.12,0.76-1.41,1.16c-0.3,0.41-0.32,0.84-0.52,1.25c-0.2,0.42-0.55,0.82-0.65,1.24
							c-0.1,0.42-0.34,0.84-0.34,1.26c0,0.43,1.15,0.85,1.25,1.27c0.1,0.42-0.49,0.85-0.29,1.27c0.2,0.42,0.57,0.83,0.87,1.25
							c0.3,0.42,0.33,0.85,0.72,1.26c0.39,0.41,1.25,0.78,1.73,1.18c0.49,0.4-0.16,0.95,0.42,1.34c0.58,0.39,2.07,0.66,2.73,1.04
							c0.67,0.38,0.69,0.89,1.44,1.25c0.75,0.36,2.87,0.44,3.7,0.78c0.83,0.34,0.58,0.96,1.49,1.29c0.9,0.32,1.67,0.72,2.65,1.03
							c0.26,0.08,0.59,0.14,0.94,0.19c0.67,0.09,1.44,0.15,2.1,0.25c0.31,0.04,0.59,0.1,0.83,0.16c1.04,0.28,1.74,0.71,2.85,0.97
							c0.21,0.05,0.44,0.09,0.68,0.12c0.84,0.12,1.84,0.17,2.69,0.29c0.17,0.02,0.34,0.05,0.5,0.09c1.15,0.23,1.69,0.83,2.9,1.04
							c0.04,0.01,0.08,0.01,0.12,0.02c1.19,0.17,2.93-0.03,4.14,0.15c1.21,0.17,2.02,0.7,3.2,0.86c0.05,0.01,0.09,0.01,0.14,0.02
							c1.28,0.15,2.92-0.11,4.21,0.01c0.2,0.02,0.39,0.04,0.58,0.07c0.81,0.12,1.58,0.3,2.38,0.42c0.26,0.04,0.52,0.07,0.8,0.09
							c1.32,0.09,2.64,0.3,3.97,0.35c1.33,0.06,2.72-0.31,4.05-0.29c1.34,0.03,2.66,0.18,3.99,0.17c1.33-0.01,2.58-0.18,3.89-0.22
							c1.32-0.04,2.6-0.08,3.9-0.15c1.3-0.07,3.01,0.33,4.28,0.23c1.27-0.1,2.22-0.54,3.46-0.67c1.24-0.13,2.03-0.57,3.23-0.73
							c1.2-0.16,3.1,0.12,4.26-0.07c1.15-0.19,1.78-0.66,2.88-0.88c1.1-0.22,2.07-0.48,3.11-0.72c1.04-0.24,1.66-0.62,2.65-0.89
							c0.98-0.27,2.74-0.26,3.64-0.55c0.9-0.29,2.02-0.53,2.85-0.85c0.83-0.31,0.69-0.87,1.45-1.2c0.74-0.33,1.62-0.62,2.29-0.98
							c0.66-0.35,1.57-0.65,2.15-1.02c0.57-0.37,0.93-0.77,1.42-1.15c0.49-0.38,0.3-0.84,0.69-1.24c0.4-0.4,2.18-0.64,2.48-1.05
							c0.3-0.41,0.12-0.86,0.31-1.27c0.2-0.42-0.38-0.87-0.28-1.28c0.1-0.42,0.59-0.82,0.59-1.24c0-0.42-0.34-0.84-0.44-1.26
							c-0.1-0.42,0.03-0.84-0.17-1.26c-0.2-0.42-1.01-0.81-1.31-1.22c-0.3-0.42-0.87-0.79-1.27-1.21c-0.39-0.41-0.23-0.85-0.72-1.26
							c-0.49-0.4-1.54-0.72-2.12-1.11c-0.58-0.39-0.32-0.9-0.98-1.27c-0.66-0.38-1.43-0.74-2.18-1.1c-0.75-0.36-1.77-0.66-2.6-1.01
							c-0.83-0.34-1.74-0.66-2.65-0.98c-0.9-0.33-1.43-0.76-2.41-1.07c-0.97-0.3-2.16-0.54-3.2-0.82c-0.3-0.08-0.64-0.14-1.01-0.19
							c-0.6-0.09-1.26-0.15-1.87-0.24c-0.3-0.04-0.58-0.09-0.84-0.15c-1.1-0.26-1.76-0.7-2.93-0.93c-0.26-0.05-0.53-0.1-0.82-0.14
							c-0.79-0.11-1.64-0.19-2.44-0.3c-0.16-0.02-0.32-0.05-0.48-0.07C389.72,668.66,388.94,668.17,387.69,667.99L387.69,667.99z"/>
						<path class="st50" d="M404.52,675.92c-4.88-0.7-10.39-0.04-12.3,1.47c-1.92,1.51,0.49,3.3,5.37,4
							c4.88,0.7,10.39,0.04,12.31-1.47C411.81,678.41,409.4,676.62,404.52,675.92L404.52,675.92z"/>
						<path class="st51" d="M405.48,677.13c0.66,0.09,0.98,0.33,0.72,0.54c-0.26,0.2-0.99,0.29-1.65,0.2
							c-0.66-0.09-0.98-0.33-0.72-0.53C404.09,677.12,404.83,677.04,405.48,677.13L405.48,677.13z"/>
						<path class="st51" d="M400.51,678.59c0.54,0.08,0.81,0.28,0.6,0.45c-0.21,0.17-0.83,0.24-1.37,0.16
							c-0.54-0.08-0.81-0.28-0.6-0.45C399.35,678.58,399.96,678.51,400.51,678.59L400.51,678.59z"/>
						<path class="st52" d="M394.97,679.03c0.35,0.05,0.53,0.18,0.39,0.29c-0.14,0.11-0.54,0.16-0.89,0.11
							c-0.36-0.05-0.53-0.18-0.39-0.29C394.22,679.02,394.62,678.98,394.97,679.03L394.97,679.03z"/>
						<path class="st51" d="M404.91,679.45c0.76,0.11,1.14,0.39,0.84,0.62c-0.3,0.24-1.16,0.34-1.92,0.23
							c-0.76-0.11-1.14-0.39-0.84-0.62C403.29,679.44,404.15,679.34,404.91,679.45L404.91,679.45z"/>
						<path class="st53" d="M394.09,684.15c0.81,0.11,1.21,0.41,0.89,0.66c-0.31,0.25-1.23,0.36-2.03,0.24
							c-0.81-0.12-1.21-0.41-0.89-0.66C392.37,684.14,393.28,684.03,394.09,684.15L394.09,684.15z"/>
						<path class="st53" d="M379.61,688.02c0.87,0.12,1.31,0.45,0.97,0.71c-0.34,0.27-1.33,0.39-2.21,0.26
							c-0.87-0.12-1.3-0.44-0.96-0.71C377.75,688.01,378.74,687.89,379.61,688.02L379.61,688.02z"/>
						<path class="st53" d="M369.11,685.94c0.8,0.11,1.2,0.41,0.89,0.66c-0.32,0.25-1.22,0.35-2.02,0.24
							c-0.8-0.12-1.2-0.41-0.88-0.66C367.4,685.93,368.31,685.82,369.11,685.94L369.11,685.94z"/>
						<path class="st53" d="M359.22,685.97c0.8,0.11,1.2,0.41,0.88,0.66c-0.32,0.25-1.22,0.35-2.02,0.24
							c-0.8-0.12-1.2-0.41-0.88-0.66C357.51,685.96,358.41,685.86,359.22,685.97L359.22,685.97z"/>
						<path class="st53" d="M353.61,688.2c0.8,0.11,1.2,0.41,0.88,0.66c-0.31,0.25-1.22,0.36-2.02,0.24
							c-0.8-0.11-1.2-0.41-0.88-0.66C351.91,688.19,352.81,688.08,353.61,688.2L353.61,688.2z"/>
						<path class="st53" d="M392.31,673.22c0.8,0.12,1.2,0.41,0.88,0.66c-0.31,0.25-1.22,0.36-2.02,0.24
							c-0.8-0.11-1.2-0.41-0.88-0.66C390.6,673.21,391.51,673.11,392.31,673.22L392.31,673.22z"/>
						<path class="st53" d="M359.53,682.46c1.49,0.21,2.22,0.76,1.64,1.22c-0.58,0.46-2.26,0.66-3.75,0.45
							c-1.49-0.21-2.22-0.76-1.64-1.22C356.37,682.44,358.05,682.24,359.53,682.46L359.53,682.46z"/>
						<path class="st53" d="M351.86,680.14c0.92,0.13,1.37,0.47,1.01,0.75c-0.36,0.29-1.4,0.41-2.32,0.28
							c-0.92-0.13-1.37-0.47-1.01-0.75C349.9,680.13,350.94,680.01,351.86,680.14L351.86,680.14z"/>
						<path class="st53" d="M376.26,677.39c1.16,0.16,1.73,0.59,1.27,0.95c-0.45,0.36-1.76,0.51-2.91,0.35
							c-1.16-0.17-1.73-0.59-1.28-0.95C373.8,677.38,375.11,677.22,376.26,677.39L376.26,677.39z"/>
						<path class="st53" d="M367.34,675.26c1.12,0.16,1.67,0.57,1.24,0.92c-0.44,0.35-1.7,0.5-2.83,0.34
							c-1.12-0.16-1.67-0.57-1.24-0.92C364.96,675.25,366.22,675.1,367.34,675.26L367.34,675.26z"/>
						<path class="st53" d="M388.56,681.27c1.3,0.19,1.94,0.66,1.43,1.06c-0.51,0.4-1.97,0.57-3.27,0.39
							c-1.3-0.19-1.94-0.66-1.43-1.06C385.8,681.26,387.26,681.09,388.56,681.27L388.56,681.27z"/>
						<path class="st53" d="M404.6,682.85c0.71,0.1,1.06,0.36,0.78,0.58c-0.28,0.22-1.08,0.31-1.79,0.21l0,0
							c-0.71-0.1-1.06-0.36-0.78-0.58C403.1,682.84,403.9,682.75,404.6,682.85L404.6,682.85z"/>
						<path class="st53" d="M411.35,684.1c0.45,0.06,0.67,0.23,0.49,0.37c-0.17,0.14-0.68,0.2-1.13,0.13
							c-0.45-0.07-0.67-0.23-0.49-0.37C410.4,684.09,410.91,684.03,411.35,684.1L411.35,684.1z"/>
						<path class="st53" d="M409.91,687.54c0.45,0.07,0.67,0.23,0.5,0.37c-0.18,0.14-0.68,0.2-1.13,0.13
							c-0.45-0.06-0.67-0.23-0.49-0.37C408.96,687.54,409.46,687.48,409.91,687.54L409.91,687.54z"/>
						<path class="st53" d="M399.28,674.42c0.45,0.07,0.67,0.23,0.49,0.37c-0.17,0.14-0.68,0.2-1.13,0.14
							c-0.45-0.06-0.67-0.23-0.49-0.37C398.32,674.42,398.83,674.36,399.28,674.42L399.28,674.42z"/>
						<path class="st53" d="M369.72,671.91c0.45,0.06,0.67,0.23,0.5,0.37c-0.18,0.14-0.68,0.2-1.13,0.13
							c-0.45-0.06-0.67-0.23-0.49-0.37C368.77,671.91,369.28,671.85,369.72,671.91L369.72,671.91z"/>
						<path class="st53" d="M351.13,670.56c0.45,0.07,0.67,0.23,0.49,0.37c-0.17,0.14-0.68,0.2-1.13,0.13
							c-0.44-0.06-0.67-0.23-0.49-0.36C350.17,670.56,350.68,670.5,351.13,670.56L351.13,670.56z"/>
						<path class="st53" d="M330.25,681.76c0.45,0.07,0.67,0.23,0.49,0.37c-0.18,0.14-0.68,0.2-1.13,0.14
							c-0.45-0.06-0.67-0.23-0.5-0.37C329.3,681.76,329.8,681.7,330.25,681.76L330.25,681.76z"/>
						<path class="st53" d="M339.07,693.09c0.45,0.07,0.67,0.23,0.5,0.37c-0.18,0.14-0.68,0.2-1.13,0.13
							c-0.45-0.06-0.67-0.23-0.49-0.37C338.11,693.09,338.62,693.03,339.07,693.09L339.07,693.09z"/>
						<path class="st53" d="M366.54,696.88c0.45,0.06,0.67,0.23,0.49,0.37c-0.17,0.14-0.68,0.2-1.13,0.13
							c-0.45-0.06-0.67-0.23-0.49-0.37C365.59,696.88,366.09,696.82,366.54,696.88L366.54,696.88z"/>
						<path class="st53" d="M397.75,692.59c0.45,0.06,0.67,0.23,0.49,0.37c-0.18,0.14-0.68,0.2-1.13,0.13
							c-0.45-0.06-0.67-0.23-0.49-0.37C396.8,692.59,397.3,692.53,397.75,692.59L397.75,692.59z"/>
						<path class="st53" d="M405.13,689.22c0.83,0.12,1.23,0.42,0.91,0.68c-0.32,0.26-1.26,0.37-2.08,0.25
							c-0.83-0.12-1.24-0.42-0.91-0.68C403.37,689.22,404.3,689.11,405.13,689.22L405.13,689.22z"/>
						<path class="st53" d="M389.86,686.55c0.83,0.12,1.23,0.42,0.91,0.68c-0.33,0.26-1.25,0.37-2.08,0.25
							c-0.82-0.12-1.23-0.42-0.91-0.67C388.1,686.54,389.03,686.43,389.86,686.55L389.86,686.55z"/>
						<path class="st53" d="M370.29,695.13c0.85,0.12,1.27,0.43,0.93,0.7c-0.33,0.26-1.29,0.38-2.14,0.26
							c-0.85-0.12-1.27-0.43-0.93-0.7C368.48,695.12,369.44,695.01,370.29,695.13L370.29,695.13z"/>
						<path class="st53" d="M340.79,689.42c0.9,0.13,1.34,0.46,0.99,0.74c-0.35,0.28-1.37,0.4-2.26,0.27
							c-0.9-0.13-1.34-0.46-0.99-0.73C338.88,689.41,339.9,689.29,340.79,689.42L340.79,689.42z"/>
						<path class="st53" d="M331.77,682.72c1.03,0.15,1.54,0.52,1.13,0.84c-0.4,0.32-1.56,0.46-2.59,0.31
							c-1.03-0.15-1.53-0.52-1.13-0.84C329.58,682.71,330.74,682.57,331.77,682.72L331.77,682.72z"/>
						<path class="st53" d="M326.09,679.9c1.61,0.23,2.4,0.82,1.77,1.32c-0.63,0.5-2.44,0.71-4.05,0.48
							c-1.6-0.23-2.4-0.82-1.77-1.31C322.68,679.89,324.49,679.67,326.09,679.9L326.09,679.9z"/>
						<path class="st49" d="M390.54,695.01c-0.29-0.05-0.54-0.14-0.67-0.25c-0.25-0.2,0.05-0.41,0.66-0.46
							c0.29-0.02,0.61,0,0.88,0.05c0.29,0.05,0.54,0.14,0.67,0.25c0.25,0.21-0.05,0.41-0.66,0.45
							C391.13,695.08,390.81,695.06,390.54,695.01L390.54,695.01z M387.57,692.79c-0.25-0.05-0.47-0.12-0.57-0.21
							c-0.21-0.18,0.04-0.35,0.57-0.39c0.25-0.02,0.52,0,0.75,0.04c0.25,0.04,0.46,0.12,0.57,0.21c0.21,0.18-0.04,0.35-0.57,0.39
							C388.07,692.85,387.8,692.83,387.57,692.79L387.57,692.79z M390.57,691.82c-1.75-0.31-3.76-0.44-5.64-0.3
							c-2.49,0.18-4.27,0.55-4.75,1.3c-0.09,0.14-0.03,0.51-0.04,0.67c-0.01,0.3,0.17,0.63,0.55,0.95c0.82,0.69,2.4,1.24,4.28,1.58
							c1.2,0.21,2.53-0.05,3.84-0.03c0.61,0.01,1.2,0.37,1.8,0.33c0.93-0.07,1.8-0.63,2.48-0.8c1.72-0.43,2.55-0.71,2.24-1.49
							c-0.08-0.2,0.21-0.76-0.03-0.97C394.5,692.37,392.45,692.15,390.57,691.82L390.57,691.82z"/>
						<path class="st54" d="M390.45,690.99c-1.75-0.25-3.76-0.3-5.64-0.1c-3.91,0.42-5.8,1.8-4.22,3.06
							c0.82,0.66,2.41,1.16,4.3,1.43c1.75,0.25,3.76,0.3,5.64,0.1c3.91-0.43,5.8-1.8,4.22-3.07
							C393.93,691.76,392.34,691.26,390.45,690.99L390.45,690.99z"/>
						<path class="st52" d="M388.3,691.49c0.26,0.04,0.47,0.1,0.58,0.19c0.21,0.17-0.04,0.35-0.57,0.41
							c-0.25,0.03-0.52,0.02-0.76-0.01c-0.25-0.04-0.47-0.1-0.57-0.19c-0.21-0.17,0.04-0.35,0.56-0.41
							C387.8,691.45,388.07,691.45,388.3,691.49L388.3,691.49z"/>
						<path class="st51" d="M384.98,693.93c0.21,0.03,0.39,0.09,0.48,0.16c0.18,0.14-0.04,0.3-0.47,0.34
							c-0.21,0.02-0.43,0.02-0.62-0.01c-0.21-0.03-0.39-0.09-0.48-0.16c-0.18-0.14,0.03-0.3,0.47-0.34
							C384.55,693.89,384.78,693.9,384.98,693.93L384.98,693.93z"/>
						<path class="st51" d="M391.41,693.5c0.29,0.04,0.54,0.12,0.67,0.22c0.24,0.2-0.05,0.41-0.66,0.48
							c-0.29,0.03-0.61,0.03-0.88-0.01c-0.3-0.04-0.54-0.12-0.67-0.22c-0.25-0.2,0.05-0.41,0.66-0.48
							C390.82,693.45,391.14,693.46,391.41,693.5L391.41,693.5z"/>
						<path class="st49" d="M352.92,674.29c-0.25-0.04-0.45-0.1-0.56-0.19c-0.21-0.17,0.04-0.35,0.55-0.41
							c0.25-0.03,0.51-0.02,0.75,0.01c0.25,0.04,0.45,0.1,0.56,0.19c0.21,0.17-0.04,0.35-0.56,0.41
							C353.42,674.33,353.15,674.33,352.92,674.29L352.92,674.29z M359.97,674.07c-0.12-0.02-0.21-0.05-0.26-0.09
							c-0.1-0.08,0.02-0.16,0.26-0.19c0.11-0.01,0.24-0.01,0.35,0.01c0.12,0.02,0.21,0.04,0.26,0.09c0.1,0.08-0.02,0.16-0.26,0.19
							C360.2,674.08,360.08,674.08,359.97,674.07L359.97,674.07z M356.72,673.15c-0.21-0.03-0.39-0.09-0.48-0.16
							c-0.18-0.14,0.03-0.3,0.47-0.35c0.21-0.02,0.44-0.02,0.64,0.01c0.21,0.03,0.39,0.09,0.48,0.16c0.18,0.14-0.03,0.3-0.47,0.35
							C357.15,673.19,356.92,673.18,356.72,673.15L356.72,673.15z M359.27,672.22c-1.49-0.21-3.19-0.25-4.78-0.07
							c-1.88,0.21-3.44,0.21-3.97,0.78c-0.15,0.15-0.2,0.74-0.22,0.9c-0.05,0.29,0.29,0.66,0.65,0.96c0.69,0.56,1.99,0.66,3.57,0.88
							c1.05,0.15,2.07,0.16,3.22,0.12c0.48-0.02,1.12,0.33,1.59,0.27c1.29-0.15,2.28-0.98,2.97-1.32c0.82-0.4,1.09-0.18,1.07-1.03
							c-0.01-0.3-0.02-0.5-0.07-0.57c-0.07-0.09-0.32,0.36-0.43,0.27C362.18,672.87,360.85,672.45,359.27,672.22L359.27,672.22z"/>
						<path class="st50" d="M359.24,671.44c-1.49-0.21-3.19-0.25-4.78-0.07c-3.29,0.38-4.87,1.56-3.54,2.64
							c0.69,0.56,2.02,0.98,3.61,1.21c1.48,0.21,3.18,0.25,4.78,0.07c3.29-0.38,4.88-1.56,3.54-2.64
							C362.15,672.09,360.82,671.66,359.24,671.44L359.24,671.44z"/>
						<path class="st51" d="M357.32,671.86c0.21,0.03,0.39,0.09,0.48,0.16c0.18,0.15-0.03,0.3-0.47,0.35
							c-0.21,0.02-0.44,0.02-0.64-0.01c-0.21-0.03-0.39-0.09-0.48-0.16c-0.18-0.14,0.03-0.3,0.47-0.36
							C356.9,671.83,357.12,671.83,357.32,671.86L357.32,671.86z"/>
						<path class="st51" d="M354.96,674.45c0.11,0.02,0.21,0.05,0.26,0.09c0.1,0.08-0.02,0.17-0.26,0.19
							c-0.12,0.01-0.24,0.01-0.35-0.01c-0.11-0.02-0.21-0.04-0.26-0.09c-0.1-0.08,0.02-0.16,0.26-0.19
							C354.73,674.43,354.85,674.43,354.96,674.45L354.96,674.45z"/>
						<path class="st51" d="M360.28,673.01c0.12,0.02,0.21,0.05,0.26,0.09c0.1,0.08-0.02,0.17-0.26,0.19
							c-0.12,0.01-0.24,0.01-0.35-0.01c-0.12-0.02-0.22-0.05-0.26-0.09c-0.09-0.08,0.02-0.16,0.26-0.19
							C360.05,672.99,360.18,672.99,360.28,673.01L360.28,673.01z"/>
						<path class="st51" d="M353.63,672.92c0.25,0.04,0.46,0.1,0.57,0.19c0.21,0.17-0.04,0.35-0.55,0.41
							c-0.25,0.03-0.52,0.02-0.75-0.01c-0.24-0.04-0.45-0.1-0.56-0.19c-0.21-0.17,0.04-0.36,0.55-0.41
							C353.13,672.88,353.4,672.89,353.63,672.92L353.63,672.92z"/>
						<path class="st49" d="M399.2,687.93c-0.15-0.02-0.28-0.07-0.35-0.12c-0.13-0.11,0.02-0.22,0.34-0.26
							c0.15-0.02,0.32-0.01,0.46,0.01c0.15,0.02,0.28,0.06,0.35,0.12c0.13,0.1-0.03,0.22-0.34,0.26
							C399.51,687.95,399.34,687.95,399.2,687.93L399.2,687.93z M404.14,688.22c-0.22-0.03-0.4-0.09-0.49-0.16
							c-0.18-0.15,0.03-0.31,0.48-0.36c0.22-0.03,0.45-0.02,0.65,0.01c0.21,0.03,0.39,0.09,0.49,0.16c0.18,0.15-0.03,0.31-0.48,0.36
							C404.57,688.25,404.34,688.25,404.14,688.22L404.14,688.22z M401.4,687.01c-0.18-0.03-0.34-0.08-0.42-0.14
							c-0.16-0.13,0.03-0.27,0.41-0.31c0.18-0.02,0.38-0.02,0.56,0.01c0.18,0.03,0.34,0.08,0.42,0.14c0.16,0.13-0.03,0.27-0.41,0.31
							C401.77,687.04,401.57,687.04,401.4,687.01L401.4,687.01z M403.6,686.2c-1.29-0.18-2.76-0.22-4.15-0.06
							c-1.82,0.21-3.04-0.06-3.38,0.52c-0.19,0.33-0.08,1.09,0.34,1.43c0.6,0.49,1.76,0.49,3.13,0.69c1.29,0.18,2.75,0.94,4.13,0.78
							c2.51-0.29,4-1.83,3.49-2.67c-0.07-0.11-0.3,0.48-0.43,0.36C406.13,686.76,404.97,686.39,403.6,686.2L403.6,686.2z"/>
						<path class="st54" d="M403.67,685.17c-1.29-0.18-2.76-0.22-4.14-0.06c-2.85,0.33-4.22,1.37-3.06,2.31
							c0.6,0.49,1.75,0.85,3.12,1.05c1.29,0.18,2.76,0.22,4.15,0.06c2.85-0.33,4.22-1.37,3.06-2.31
							C406.2,685.73,405.04,685.36,403.67,685.17L403.67,685.17z"/>
						<path class="st52" d="M402.01,685.54c0.18,0.02,0.34,0.08,0.42,0.14c0.15,0.13-0.03,0.27-0.41,0.31
							c-0.18,0.02-0.38,0.02-0.55-0.01c-0.18-0.03-0.34-0.07-0.42-0.14c-0.16-0.13,0.02-0.27,0.41-0.31
							C401.64,685.51,401.84,685.52,402.01,685.54L402.01,685.54z"/>
						<path class="st51" d="M399.72,686.54c0.16,0.02,0.29,0.06,0.35,0.12c0.13,0.11-0.02,0.22-0.34,0.26
							c-0.15,0.02-0.32,0.02-0.46-0.01c-0.15-0.02-0.28-0.06-0.35-0.12c-0.13-0.1,0.02-0.22,0.34-0.26
							C399.42,686.51,399.58,686.52,399.72,686.54L399.72,686.54z"/>
						<path class="st51" d="M399.97,687.8c0.1,0.01,0.18,0.04,0.23,0.08c0.09,0.07-0.02,0.14-0.22,0.17c-0.1,0.01-0.2,0.01-0.3,0
							c-0.1-0.01-0.18-0.04-0.23-0.08c-0.08-0.07,0.02-0.14,0.22-0.17C399.77,687.79,399.88,687.79,399.97,687.8L399.97,687.8z"/>
						<path class="st51" d="M404.85,686.68c0.21,0.03,0.39,0.09,0.49,0.16c0.18,0.15-0.03,0.31-0.48,0.36
							c-0.22,0.03-0.45,0.02-0.65-0.01c-0.21-0.03-0.39-0.09-0.49-0.16c-0.18-0.15,0.03-0.31,0.48-0.36
							C404.42,686.64,404.65,686.65,404.85,686.68L404.85,686.68z"/>
					</g>
				</g>
			</g>
			<g>
				<path class="st49" d="M337.02,677.62c-0.18-0.03-0.33-0.09-0.4-0.16c-0.15-0.14,0.03-0.29,0.4-0.34
					c0.18-0.02,0.37-0.02,0.53,0.01c0.18,0.03,0.33,0.08,0.4,0.16c0.15,0.14-0.03,0.29-0.4,0.34
					C337.37,677.66,337.19,677.65,337.02,677.62L337.02,677.62z M340.34,677.58c-0.25-0.04-0.46-0.12-0.56-0.22
					c-0.21-0.2,0.04-0.41,0.56-0.47c0.25-0.03,0.51-0.02,0.74,0.01c0.25,0.04,0.46,0.12,0.57,0.22c0.21,0.19-0.04,0.41-0.56,0.47
					C340.83,677.63,340.57,677.62,340.34,677.58L340.34,677.58z M339.72,674.91c-1.47-0.24-3.16-0.29-4.74-0.09
					c-2.1,0.27-4.06,1.18-4.06,1.18s-0.11,0.72-0.09,0.9c0.02,0.27,0.3,0.67,0.58,0.94c0.69,0.65,2.06,0.82,3.65,1.08
					c1.47,0.24,3.13,0.62,4.71,0.42c0.52-0.07,0.98-0.49,1.41-0.6c2.3-0.58,3.27-1.37,2.15-2.42
					C342.65,675.67,341.31,675.17,339.72,674.91L339.72,674.91z"/>
				<path class="st50" d="M339.71,674.24c-1.47-0.25-3.16-0.29-4.74-0.09c-3.29,0.42-4.89,1.77-3.56,3.02
					c0.69,0.65,2.02,1.14,3.61,1.4c1.47,0.25,3.16,0.29,4.74,0.09c3.29-0.42,4.89-1.77,3.56-3.02
					C342.64,675,341.3,674.51,339.71,674.24L339.71,674.24z"/>
				<path class="st51" d="M337.54,676.48c0.18,0.03,0.33,0.08,0.4,0.16c0.15,0.14-0.03,0.29-0.4,0.34
					c-0.18,0.02-0.37,0.02-0.53-0.01c-0.18-0.03-0.33-0.08-0.4-0.16c-0.15-0.14,0.03-0.29,0.4-0.34
					C337.19,676.44,337.38,676.45,337.54,676.48L337.54,676.48z"/>
				<path class="st51" d="M335.43,677.69c0.11,0.02,0.21,0.06,0.26,0.1c0.1,0.09-0.02,0.19-0.26,0.22
					c-0.12,0.02-0.24,0.01-0.35-0.01c-0.11-0.02-0.21-0.05-0.26-0.1c-0.09-0.09,0.02-0.19,0.26-0.22
					C335.2,677.67,335.32,677.68,335.43,677.69L335.43,677.69z"/>
				<path class="st51" d="M341.07,676.24c0.25,0.04,0.46,0.12,0.56,0.22c0.21,0.19-0.04,0.41-0.56,0.47
					c-0.25,0.03-0.51,0.03-0.74-0.01c-0.25-0.04-0.46-0.12-0.57-0.22c-0.21-0.19,0.04-0.41,0.56-0.47
					C340.57,676.19,340.83,676.2,341.07,676.24L341.07,676.24z"/>
			</g>
			<g>
				<path class="st49" d="M347.35,686.46c-0.12-0.02-0.22-0.06-0.27-0.12c-0.09-0.1,0.02-0.22,0.26-0.25
					c0.12-0.02,0.24-0.01,0.35,0.01c0.12,0.02,0.22,0.06,0.26,0.12c0.1,0.1-0.02,0.22-0.26,0.25
					C347.58,686.48,347.46,686.48,347.35,686.46L347.35,686.46z M346.24,685.83c-0.18-0.03-0.33-0.1-0.4-0.18
					c-0.15-0.16,0.03-0.33,0.4-0.39c0.18-0.03,0.37-0.02,0.53,0.01c0.18,0.04,0.33,0.1,0.4,0.18c0.15,0.16-0.03,0.34-0.4,0.39
					C346.6,685.87,346.41,685.86,346.24,685.83L346.24,685.83z M342.18,684.41c-0.21-0.04-0.39-0.11-0.49-0.22
					c-0.18-0.19,0.04-0.4,0.48-0.47c0.21-0.03,0.44-0.02,0.64,0.01c0.22,0.04,0.4,0.12,0.49,0.22c0.18,0.19-0.04,0.4-0.48,0.47
					C342.6,684.46,342.37,684.45,342.18,684.41L342.18,684.41z M346.94,682.93c-1.48-0.28-3.18-0.33-4.77-0.1
					c-1.86,0.28-3.4,0.03-3.97,0.77c-0.19,0.25-0.2,1.16-0.21,1.43c-0.02,0.36,0.26,0.95,0.59,1.31c0.69,0.75,2.03,1.31,3.63,1.62
					c1.48,0.28,3.18,0.33,4.77,0.1c2.62-0.39,4.17-1.45,4.05-2.59c-0.03-0.3,0.12-1.14-0.15-1.44
					C350.19,683.28,348.54,683.23,346.94,682.93L346.94,682.93z"/>
				<path class="st50" d="M346.95,681.91c-1.48-0.28-3.18-0.33-4.77-0.1c-3.31,0.5-4.91,2.06-3.59,3.5
					c0.69,0.75,2.03,1.31,3.63,1.61c1.48,0.28,3.18,0.33,4.77,0.1c3.31-0.49,4.92-2.06,3.59-3.5
					C349.89,682.77,348.54,682.21,346.95,681.91L346.95,681.91z"/>
				<path class="st52" d="M342.81,682.71c0.21,0.04,0.4,0.12,0.49,0.22c0.18,0.19-0.04,0.4-0.48,0.47
					c-0.21,0.03-0.44,0.02-0.64-0.01c-0.22-0.04-0.4-0.12-0.49-0.22c-0.18-0.19,0.04-0.4,0.48-0.47
					C342.38,682.67,342.61,682.67,342.81,682.71L342.81,682.71z"/>
				<path class="st52" d="M346.77,684.24c0.18,0.04,0.33,0.1,0.4,0.18c0.15,0.16-0.03,0.34-0.4,0.39c-0.18,0.03-0.36,0.02-0.53-0.01
					c-0.17-0.04-0.33-0.1-0.4-0.18c-0.15-0.16,0.03-0.34,0.4-0.39C346.42,684.21,346.61,684.21,346.77,684.24L346.77,684.24z"/>
				<path class="st51" d="M341.25,685.32c0.11,0.02,0.21,0.06,0.26,0.12c0.1,0.11-0.02,0.22-0.26,0.26
					c-0.11,0.02-0.24,0.01-0.34-0.01c-0.12-0.02-0.22-0.06-0.26-0.12c-0.1-0.1,0.02-0.22,0.26-0.25
					C341.02,685.29,341.14,685.3,341.25,685.32L341.25,685.32z"/>
				<path class="st52" d="M347.7,685.07c0.12,0.02,0.21,0.06,0.26,0.12c0.1,0.11-0.02,0.22-0.26,0.25
					c-0.11,0.02-0.24,0.01-0.34-0.01c-0.12-0.02-0.21-0.06-0.27-0.12c-0.09-0.11,0.02-0.22,0.26-0.25
					C347.47,685.04,347.59,685.05,347.7,685.07L347.7,685.07z"/>
			</g>
			<g>
				<path class="st49" d="M355.69,695.14c-0.26-0.04-0.48-0.12-0.59-0.22c-0.22-0.19,0.04-0.4,0.58-0.47
					c0.26-0.03,0.54-0.02,0.78,0.01c0.26,0.04,0.48,0.12,0.59,0.22c0.22,0.19-0.05,0.4-0.58,0.47
					C356.2,695.18,355.93,695.18,355.69,695.14L355.69,695.14z M360.55,695.08c-0.36-0.06-0.67-0.16-0.83-0.3
					c-0.3-0.27,0.06-0.56,0.82-0.66c0.36-0.04,0.75-0.03,1.09,0.02c0.36,0.06,0.67,0.16,0.83,0.31c0.3,0.27-0.06,0.56-0.82,0.65
					C361.27,695.15,360.89,695.14,360.55,695.08L360.55,695.08z M355.94,692.85c-0.31-0.05-0.57-0.14-0.71-0.26
					c-0.26-0.23,0.05-0.48,0.7-0.56c0.31-0.04,0.64-0.03,0.93,0.02c0.31,0.05,0.58,0.14,0.71,0.26c0.26,0.23-0.05,0.48-0.7,0.56
					C356.56,692.91,356.23,692.9,355.94,692.85L355.94,692.85z M359.63,691.38c-2.16-0.34-4.64-0.41-6.96-0.13
					c-2.79,0.34-5.01,0.22-5.79,1.14c-0.26,0.3-0.35,1.37-0.34,1.7c0.02,0.4,0.46,0.94,0.91,1.34c1.01,0.9,2.7,1.2,5.04,1.56
					c0.24,0.04,1.06-0.11,1.31-0.08c1.97,0.25,3.86,0.84,5.92,0.59c0.96-0.11,1.67-0.94,2.41-1.15c2.15-0.59,3.52-0.85,3.49-1.83
					c-0.01-0.4,0.12-1.36-0.33-1.76C364.29,691.87,361.96,691.75,359.63,691.38L359.63,691.38z"/>
				<path class="st54" d="M359.55,690.41c-2.16-0.34-4.63-0.41-6.96-0.13c-4.83,0.58-7.16,2.45-5.22,4.18
					c1.01,0.9,2.97,1.58,5.31,1.95c2.16,0.34,4.63,0.41,6.96,0.13c4.83-0.58,7.16-2.46,5.22-4.19
					C363.85,691.46,361.88,690.78,359.55,690.41L359.55,690.41z"/>
				<path class="st51" d="M356.89,691.08c0.31,0.05,0.57,0.14,0.71,0.26c0.26,0.23-0.05,0.48-0.7,0.56
					c-0.31,0.04-0.64,0.03-0.93-0.02c-0.31-0.05-0.58-0.14-0.71-0.26c-0.26-0.23,0.05-0.48,0.7-0.56
					C356.26,691.03,356.6,691.04,356.89,691.08L356.89,691.08z"/>
				<path class="st51" d="M356.48,693.5c0.26,0.04,0.48,0.12,0.59,0.22c0.22,0.19-0.04,0.4-0.58,0.47
					c-0.26,0.03-0.53,0.02-0.78-0.01c-0.26-0.04-0.48-0.12-0.59-0.22c-0.22-0.19,0.04-0.4,0.58-0.47
					C355.96,693.45,356.24,693.46,356.48,693.5L356.48,693.5z"/>
				<path class="st51" d="M353.38,695.19c0.17,0.03,0.31,0.08,0.39,0.14c0.14,0.13-0.03,0.26-0.38,0.3
					c-0.17,0.02-0.35,0.02-0.5-0.01c-0.17-0.03-0.31-0.08-0.39-0.14c-0.14-0.12,0.03-0.26,0.38-0.3
					C353.05,695.16,353.23,695.17,353.38,695.19L353.38,695.19z"/>
				<path class="st51" d="M361.65,693.18c0.36,0.06,0.67,0.16,0.83,0.3c0.3,0.27-0.06,0.56-0.82,0.65
					c-0.36,0.04-0.75,0.03-1.09-0.02c-0.37-0.06-0.67-0.16-0.83-0.3c-0.3-0.27,0.06-0.56,0.82-0.65
					C360.92,693.12,361.31,693.13,361.65,693.18L361.65,693.18z"/>
			</g>
			<g>
				<path class="st49" d="M373.68,685.26c-0.18-0.03-0.34-0.09-0.42-0.16c-0.15-0.15,0.03-0.31,0.42-0.36
					c0.19-0.03,0.38-0.02,0.55,0.01c0.18,0.03,0.34,0.09,0.42,0.16c0.15,0.15-0.03,0.31-0.41,0.36
					C374.05,685.3,373.86,685.29,373.68,685.26L373.68,685.26z M377.19,684.29c-0.25-0.04-0.47-0.12-0.58-0.23
					c-0.22-0.2,0.04-0.43,0.58-0.5c0.26-0.03,0.53-0.03,0.77,0.01c0.26,0.04,0.47,0.12,0.59,0.23c0.21,0.2-0.04,0.43-0.58,0.5
					C377.71,684.34,377.43,684.33,377.19,684.29L377.19,684.29z M373.92,682.6c-0.22-0.04-0.41-0.1-0.5-0.2
					c-0.18-0.17,0.04-0.37,0.49-0.43c0.22-0.03,0.46-0.02,0.66,0.01c0.22,0.04,0.4,0.1,0.5,0.19c0.19,0.18-0.03,0.37-0.49,0.43
					C374.36,682.65,374.13,682.64,373.92,682.6L373.92,682.6z M376.57,681.47c-1.54-0.26-3.31-0.31-4.96-0.08
					c-1.83,0.25-3.29,0.25-3.92,0.89c-0.54,0.55-0.41,1.71,0.23,2.32c0.71,0.68,2.1,1.19,3.74,1.46c1.54,0.26,3.3,0.3,4.96,0.08
					c2.08-0.28,3.51-0.92,4-1.68c0.31-0.49,0.34-1.61-0.2-2.13C379.7,681.66,378.21,681.74,376.57,681.47L376.57,681.47z"/>
				<path class="st50" d="M376.56,680.75c-1.54-0.26-3.31-0.3-4.96-0.08c-3.42,0.46-5.07,1.9-3.69,3.21
					c0.72,0.68,2.09,1.19,3.73,1.46c1.44,0.24,3.2,0.32,4.96,0.08c3.42-0.46,5.07-1.9,3.68-3.21
					C379.59,681.53,378.2,681.02,376.56,680.75L376.56,680.75z"/>
				<path class="st51" d="M374.57,681.26c0.22,0.04,0.41,0.11,0.5,0.2c0.19,0.17-0.03,0.37-0.49,0.43
					c-0.22,0.03-0.46,0.02-0.66-0.01c-0.22-0.04-0.4-0.1-0.5-0.2c-0.19-0.18,0.04-0.37,0.49-0.43
					C374.13,681.22,374.37,681.23,374.57,681.26L374.57,681.26z"/>
				<path class="st51" d="M374.23,684.02c0.18,0.03,0.34,0.09,0.42,0.16c0.16,0.15-0.03,0.31-0.41,0.36
					c-0.18,0.03-0.38,0.02-0.55-0.01c-0.18-0.03-0.34-0.09-0.42-0.16c-0.15-0.15,0.03-0.31,0.41-0.36
					C373.86,683.99,374.05,683.99,374.23,684.02L374.23,684.02z"/>
				<path class="st51" d="M377.95,682.85c0.26,0.04,0.47,0.12,0.58,0.23c0.22,0.2-0.04,0.43-0.58,0.5
					c-0.26,0.03-0.53,0.03-0.78-0.02c-0.26-0.04-0.47-0.12-0.58-0.23c-0.22-0.2,0.04-0.43,0.57-0.5
					C377.44,682.8,377.72,682.81,377.95,682.85L377.95,682.85z"/>
			</g>
			<g>
				<path class="st49" d="M380.64,675.21c-0.07-0.01-0.13-0.04-0.16-0.08c-0.06-0.07,0.01-0.14,0.16-0.17
					c0.07-0.01,0.15-0.01,0.22,0c0.07,0.02,0.13,0.04,0.16,0.08c0.06,0.07-0.01,0.14-0.16,0.17
					C380.78,675.23,380.71,675.22,380.64,675.21L380.64,675.21z M379.03,674.48c-0.07-0.01-0.13-0.04-0.16-0.08
					c-0.06-0.07,0.01-0.14,0.16-0.17c0.07-0.01,0.15-0.01,0.22,0c0.07,0.01,0.13,0.04,0.16,0.08c0.06,0.07-0.01,0.14-0.16,0.17
					C379.18,674.5,379.1,674.49,379.03,674.48L379.03,674.48z M377.71,673.73c-0.11-0.02-0.2-0.06-0.25-0.12
					c-0.09-0.1,0.02-0.22,0.25-0.26c0.11-0.02,0.23-0.02,0.34,0.01c0.11,0.02,0.2,0.06,0.25,0.12c0.09,0.11-0.02,0.22-0.25,0.26
					C377.93,673.76,377.81,673.75,377.71,673.73L377.71,673.73z M381.36,674.36c-0.15-0.03-0.28-0.08-0.35-0.16
					c-0.13-0.15,0.02-0.31,0.35-0.36c0.16-0.03,0.32-0.02,0.47,0.01c0.15,0.03,0.29,0.09,0.35,0.16c0.13,0.15-0.03,0.31-0.35,0.36
					C381.67,674.39,381.51,674.39,381.36,674.36L381.36,674.36z M379.39,673.51c-0.13-0.03-0.24-0.07-0.3-0.14
					c-0.11-0.13,0.02-0.27,0.3-0.31c0.13-0.02,0.28-0.02,0.4,0.01c0.13,0.03,0.24,0.08,0.3,0.14c0.11,0.13-0.02,0.27-0.3,0.31
					C379.66,673.53,379.52,673.53,379.39,673.51L379.39,673.51z M381,672.68c-0.93-0.18-2-0.21-3-0.05
					c-2.07,0.34-3.29,0.78-2.51,1.96c0.51,0.76,1.54,1.22,2.53,1.41c0.93,0.18,2,0.21,3,0.05c2.07-0.34,3.13-1.92,2.29-2.87
					C382.88,672.7,381.99,672.88,381,672.68L381,672.68z"/>
				<path class="st50" d="M380.93,671.96c-0.93-0.18-2-0.21-3-0.05c-2.07,0.34-3.07,1.38-2.24,2.32c0.43,0.49,1.26,0.85,2.26,1.05
					c0.93,0.18,2,0.21,3,0.05c2.07-0.34,3.07-1.38,2.24-2.32C382.76,672.52,381.93,672.15,380.93,671.96L380.93,671.96z"/>
				<path class="st51" d="M379.83,672.34c0.13,0.03,0.25,0.07,0.3,0.14c0.11,0.12-0.02,0.26-0.3,0.31c-0.13,0.02-0.28,0.02-0.4-0.01
					c-0.13-0.03-0.25-0.07-0.3-0.14c-0.11-0.13,0.02-0.27,0.3-0.31C379.57,672.31,379.71,672.31,379.83,672.34L379.83,672.34z"/>
				<path class="st51" d="M378.09,672.64c0.11,0.02,0.21,0.06,0.25,0.12c0.09,0.11-0.02,0.22-0.25,0.26c-0.11,0.02-0.23,0.02-0.33,0
					c-0.11-0.02-0.2-0.06-0.26-0.12c-0.09-0.11,0.02-0.22,0.26-0.26C377.86,672.62,377.98,672.62,378.09,672.64L378.09,672.64z"/>
				<path class="st51" d="M378.33,674.61c0.07,0.01,0.13,0.04,0.16,0.08c0.06,0.07-0.01,0.14-0.16,0.17c-0.07,0.01-0.15,0.01-0.22,0
					c-0.07-0.01-0.13-0.04-0.16-0.08c-0.06-0.07,0.01-0.14,0.16-0.17C378.19,674.59,378.27,674.59,378.33,674.61L378.33,674.61z"/>
				<path class="st51" d="M379.3,673.52c0.07,0.01,0.13,0.04,0.16,0.08c0.06,0.07-0.01,0.14-0.16,0.17c-0.07,0.01-0.15,0.01-0.22,0
					c-0.07-0.02-0.13-0.04-0.16-0.08c-0.06-0.07,0.01-0.14,0.16-0.17C379.15,673.5,379.23,673.5,379.3,673.52L379.3,673.52z"/>
				<path class="st51" d="M380.9,674.25c0.07,0.01,0.13,0.04,0.16,0.07c0.06,0.07-0.01,0.15-0.16,0.17c-0.07,0.01-0.15,0.01-0.22,0
					c-0.07-0.01-0.13-0.04-0.16-0.08c-0.06-0.07,0.01-0.14,0.16-0.17C380.75,674.23,380.83,674.23,380.9,674.25L380.9,674.25z"/>
				<path class="st51" d="M381.87,673.12c0.15,0.03,0.28,0.09,0.35,0.16c0.13,0.15-0.03,0.31-0.35,0.36
					c-0.16,0.02-0.33,0.02-0.47-0.01c-0.16-0.03-0.29-0.09-0.35-0.16c-0.13-0.15,0.03-0.31,0.35-0.36
					C381.56,673.09,381.72,673.09,381.87,673.12L381.87,673.12z"/>
			</g>
			<g>
				<path class="st55" d="M391.43,667.49c0.8,0.11,1.65,0.19,2.44,0.31c0.28,0.04,0.55,0.09,0.81,0.14
					c1.17,0.23,1.83,0.67,2.93,0.93c0.26,0.06,0.55,0.11,0.85,0.15c0.61,0.09,1.27,0.15,1.87,0.24c0.36,0.05,0.71,0.11,1,0.19
					c1.05,0.28,2.23,0.52,3.2,0.82c0.98,0.31,1.5,0.74,2.41,1.07c0.91,0.33,1.82,0.64,2.65,0.98c0.83,0.35,1.85,0.65,2.61,1.01
					c0.75,0.36,1.51,0.72,2.18,1.1c0.66,0.38,0.4,0.88,0.98,1.27c0.58,0.39,1.63,0.71,2.12,1.11c0.49,0.4,0.32,0.85,0.72,1.26
					c0.4,0.41,0.97,0.79,1.26,1.2c0.3,0.42,1.11,0.8,1.31,1.22c0.2,0.42,0.07,0.84,0.17,1.26c0.1,0.42,0.44,0.84,0.44,1.26
					c0,0.42-0.49,0.82-0.59,1.24c-0.1,0.42,0.47,0.87,0.28,1.28c-0.2,0.41-0.01,0.86-0.32,1.27c-0.29,0.4-2.08,0.65-2.48,1.05
					c-0.39,0.39-0.2,0.85-0.69,1.24c-0.49,0.39-0.85,0.79-1.42,1.15c-0.58,0.37-1.49,0.67-2.15,1.02c-0.67,0.35-1.55,0.65-2.29,0.98
					c-0.75,0.34-0.62,0.89-1.45,1.2c-0.83,0.32-1.95,0.56-2.85,0.85c-0.91,0.29-2.67,0.28-3.65,0.55c-0.98,0.27-1.6,0.65-2.65,0.89
					c-1.04,0.25-2.01,0.51-3.11,0.72c-1.1,0.22-1.73,0.69-2.88,0.88c-1.16,0.19-3.06-0.09-4.26,0.07c-1.2,0.16-1.99,0.6-3.23,0.73
					c-1.24,0.13-2.19,0.57-3.46,0.67c-1.27,0.1-2.98-0.3-4.28-0.23c-1.3,0.07-2.57,0.11-3.9,0.14c-1.32,0.04-2.56,0.21-3.89,0.22
					c-1.33,0.01-2.65-0.14-3.99-0.17c-1.33-0.02-2.72,0.34-4.05,0.28c-1.32-0.06-2.64-0.26-3.96-0.35c-0.27-0.02-0.54-0.05-0.8-0.09
					c-0.8-0.12-1.57-0.3-2.38-0.41c-0.19-0.03-0.38-0.05-0.58-0.07c-1.29-0.12-2.93,0.14-4.22-0.01c-0.04-0.01-0.09-0.01-0.14-0.02
					c-1.19-0.17-2-0.69-3.2-0.86c-1.21-0.17-2.95,0.02-4.14-0.15c-0.04-0.01-0.08-0.01-0.12-0.02c-1.21-0.21-1.75-0.81-2.9-1.04
					c-0.16-0.03-0.33-0.06-0.5-0.09c-0.85-0.12-1.84-0.17-2.69-0.29c-0.24-0.04-0.47-0.07-0.68-0.12c-1.11-0.26-1.81-0.69-2.85-0.97
					c-0.24-0.06-0.52-0.11-0.83-0.16c-0.67-0.1-1.44-0.15-2.11-0.25c-0.35-0.05-0.68-0.11-0.94-0.19c-0.98-0.31-1.75-0.71-2.65-1.03
					c-0.91-0.33-0.66-0.95-1.49-1.29c-0.83-0.34-2.95-0.42-3.7-0.78c-0.75-0.36-0.77-0.87-1.44-1.25c-0.67-0.38-2.16-0.65-2.73-1.04
					c-0.58-0.39,0.07-0.94-0.42-1.34c-0.49-0.4-1.34-0.77-1.74-1.18c-0.39-0.41-0.42-0.85-0.72-1.26c-0.3-0.42-0.67-0.83-0.87-1.25
					c-0.2-0.42,0.39-0.84,0.29-1.27c-0.1-0.42-1.25-0.85-1.25-1.27c0-0.42,0.24-0.84,0.34-1.26c0.1-0.42,0.44-0.82,0.65-1.24
					c0.2-0.41,0.22-0.84,0.52-1.25c0.29-0.4,1.02-0.76,1.42-1.16c0.39-0.39,0.88-0.77,1.37-1.15c0.49-0.39-0.19-0.96,0.39-1.33
					c0.58-0.37,1.29-0.74,1.96-1.09c0.67-0.36,2.69-0.42,3.43-0.75c0.75-0.33,0.82-0.84,1.65-1.15c0.83-0.32,1.48-0.7,2.38-0.99
					c0.91-0.29,2.47-0.37,3.45-0.64c0.98-0.27,1.38,0.35,2.41,0.11c1.04-0.24,2.84-0.29,3.94-0.51c1.1-0.22,1.73-0.69,2.88-0.88
					c1.16-0.19,2.29-0.65,3.49-0.81c1.2-0.16,2.16-0.26,3.41-0.39c1.24-0.13,3.36,0.75,4.63,0.65c1.28-0.1,2.28-0.86,3.58-0.93
					c1.3-0.07,2.62-0.11,3.94-0.14c1.31-0.04,2.6,0.04,3.93,0.04c1.32-0.01,2.58,0.31,3.92,0.34c1.33,0.02,2.61,0.1,3.95,0.16
					c1.32,0.06,2.7,0.07,4.02,0.16c1.31,0.09,2.86-0.08,4.16,0.04c0.34,0.03,0.65-0.22,0.98-0.17c0.74,0.1,1.53,0.4,2.27,0.5
					c0.19,0.03,0.41-0.02,0.61,0c0.79,0.09,2-0.85,3.72-0.6c1.25,0.18,2.03,0.67,3.22,0.88
					C391.1,667.45,391.26,667.47,391.43,667.49L391.43,667.49z M389.65,665.5c-7.25-1.04-14.84-1.61-22.56-1.69
					c-7.45-0.08-14.71,0.29-21.58,1.11c-6.86,0.82-12.99,2.04-18.2,3.63c-5.39,1.64-9.28,4.32-12.41,5.85
					c-4.23,2.08-5.95,6.17-5.74,8.62c0.2,2.36,3.54,4.95,6.54,7.18c3,2.23,7.23,4.25,12.56,6c5.52,1.81,12,3.26,19.25,4.3
					c7.25,1.04,14.84,1.61,22.56,1.69c7.46,0.08,14.72-0.29,21.58-1.11c6.87-0.82,12.99-2.04,18.2-3.63
					c5.39-1.64,9.57-3.62,12.41-5.86c2.84-2.24,4.22-6.43,4.02-8.87c-0.2-2.36-1.82-4.69-4.82-6.92c-3-2.23-7.22-4.25-12.56-6
					C403.38,667.98,396.91,666.54,389.65,665.5L389.65,665.5z"/>
			</g>
		</g>
		<path class="st56" d="M396.24,681.67c2.37,0.33,3.55,1.15,2.62,1.83c-0.93,0.68-3.6,0.97-5.98,0.64
			c-2.37-0.33-3.54-1.15-2.61-1.83C391.19,681.63,393.87,681.34,396.24,681.67L396.24,681.67z"/>
		<path class="st56" d="M371.05,683.41c2.67,0.42,4,1.37,2.95,2.12c-1.05,0.75-4.06,1.01-6.74,0.58c-2.67-0.42-3.99-1.37-2.95-2.12
			C365.36,683.24,368.38,682.98,371.05,683.41L371.05,683.41z"/>
		<path class="st56" d="M365.58,687.03c1.76,0.28,2.62,0.9,1.94,1.39c-0.69,0.49-2.67,0.66-4.42,0.38c-1.76-0.28-2.62-0.9-1.94-1.39
			C361.84,686.92,363.82,686.75,365.58,687.03L365.58,687.03z"/>
		<path class="st56" d="M347.17,673.2c1.76,0.28,2.62,0.9,1.94,1.39c-0.69,0.49-2.67,0.66-4.42,0.38c-1.76-0.28-2.62-0.9-1.94-1.39
			C343.43,673.1,345.41,672.93,347.17,673.2L347.17,673.2z"/>
		<path class="st56" d="M370.35,672.02c1.76,0.28,2.63,0.9,1.94,1.39c-0.69,0.49-2.67,0.66-4.43,0.38c-1.75-0.28-2.62-0.9-1.93-1.39
			C366.62,671.92,368.6,671.75,370.35,672.02L370.35,672.02z"/>
		<path class="st56" d="M368.15,692.62c1.34,0.31,2.01,0.84,1.48,1.18c-0.52,0.34-2.04,0.35-3.39,0.04
			c-1.34-0.32-2.01-0.84-1.48-1.18C365.29,692.33,366.81,692.31,368.15,692.62L368.15,692.62z"/>
		<path class="st56" d="M383.08,694.35c2.68,0.42,4,1.37,2.95,2.12c-1.04,0.75-4.06,1-6.74,0.58c-2.68-0.43-4-1.37-2.95-2.12
			C377.39,694.19,380.41,693.93,383.08,694.35L383.08,694.35z"/>
		<path class="st56" d="M383.58,676.28c1.87,0.29,2.79,0.96,2.06,1.48c-0.73,0.52-2.84,0.7-4.71,0.41c-1.87-0.3-2.79-0.96-2.06-1.48
			C379.61,676.17,381.72,675.99,383.58,676.28L383.58,676.28z"/>
		<path class="st56" d="M385.27,680.46c2.24,0.41,3.35,1.43,2.46,2.28c-0.88,0.85-3.42,1.2-5.65,0.79
			c-2.24-0.41-3.34-1.43-2.46-2.28C380.5,680.41,383.03,680.05,385.27,680.46L385.27,680.46z"/>
		<path class="st56" d="M376.64,688.46c2.62,0.48,3.91,1.67,2.88,2.67c-1.03,0.99-3.99,1.41-6.61,0.93
			c-2.62-0.48-3.9-1.67-2.88-2.67C371.07,688.39,374.03,687.98,376.64,688.46L376.64,688.46z"/>
		<path class="st56" d="M395.35,675.53c2.24,0.41,3.34,1.43,2.46,2.28c-0.89,0.85-3.42,1.2-5.66,0.8c-2.24-0.41-3.34-1.43-2.46-2.28
			C390.58,675.47,393.11,675.12,395.35,675.53L395.35,675.53z"/>
		<path class="st56" d="M349.32,680.4c3.85,0.73,5.75,2.51,4.23,3.96c-1.52,1.45-5.87,2.03-9.73,1.29
			c-3.85-0.74-5.75-2.51-4.23-3.96C341.11,680.25,345.47,679.67,349.32,680.4L349.32,680.4z"/>
		<path class="st56" d="M368.49,676.78c2.33,0.44,3.47,1.52,2.56,2.39c-0.92,0.88-3.54,1.23-5.87,0.78
			c-2.33-0.45-3.47-1.52-2.55-2.39C363.53,676.68,366.16,676.33,368.49,676.78L368.49,676.78z"/>
		<path class="st56" d="M339.69,688.02c2.33,0.44,3.47,1.52,2.56,2.39c-0.92,0.88-3.55,1.22-5.87,0.78
			c-2.33-0.45-3.47-1.52-2.55-2.39C334.74,687.92,337.36,687.57,339.69,688.02L339.69,688.02z"/>
		<path class="st56" d="M347.48,691.33c2.33,0.44,3.47,1.52,2.56,2.39c-0.92,0.88-3.54,1.22-5.87,0.78
			c-2.32-0.44-3.47-1.52-2.55-2.39C342.52,691.24,345.15,690.89,347.48,691.33L347.48,691.33z"/>
		<path class="st56" d="M404.26,684.12c2.38,0.33,3.55,1.15,2.62,1.83c-0.93,0.68-3.61,0.96-5.98,0.64
			c-2.37-0.33-3.54-1.15-2.62-1.83C399.21,684.08,401.89,683.79,404.26,684.12L404.26,684.12z"/>
		<path class="st56" d="M391.87,689.42c3.82,0.53,5.71,1.85,4.22,2.94c-1.5,1.1-5.81,1.55-9.62,1.03c-3.82-0.53-5.7-1.85-4.21-2.94
			C383.74,689.35,388.05,688.89,391.87,689.42L391.87,689.42z"/>
	</g>
	<polygon class="st57" points="387.11,726.11 456.95,696.5 458.06,678.11 388.28,706.8 	"/>
	<polygon class="st58" points="387.15,726.11 268.09,709.86 269.25,690.6 388.34,706.38 	"/>
	<polygon class="st42" points="280.64,613.12 276.3,627.95 331.92,667.02 344.5,663.69 	"/>
	<defs>
		<filter id="Adobe_OpacityMaskFilter" filterUnits="userSpaceOnUse" x="269.25" y="662.41" width="188.81" height="44.38">
			<feColorMatrix  type="matrix" values="1 0 0 0 0  0 1 0 0 0  0 0 1 0 0  0 0 0 1 0"/>
		</filter>
	</defs>
	<mask maskUnits="userSpaceOnUse" x="269.25" y="662.41" width="188.81" height="44.38" id="SVGID_4_">
		<g class="st59">
			<polygon class="st23" points="262.34,708.69 461.57,727.49 465.45,663.51 266.21,644.71 			"/>
			<path class="st60" d="M307.97,687.09c1,5.06,9.72-6.1,21.9-2.53c10.7,3.36,21.79,1.93,37.01,2.03
				c15.22,0.19,26.65,10.66,37.51,7.51c12.34-3.34,17.39-1.76,18.64-6.81c0.59-2.37,6.99-3.15,4.59-5.53
				c-0.03-0.03-0.5-0.12-1.36-0.26c-0.57-2.03-2.14-4.02-4.69-5.92c-3.02-2.24-7.26-4.27-12.61-6.03
				c-5.52-1.82-12.01-3.26-19.28-4.3c-2.55-0.37-5.18-0.68-7.8-0.92c-4.82-0.46-9.8-0.71-14.77-0.77
				c-7.46-0.08-14.73,0.29-21.6,1.11c-6.88,0.82-13.01,2.04-18.23,3.63c-3.91,1.19-7.08,2.95-9.63,4.36
				c-0.99,0.55-1.93,1.07-2.8,1.5c-1.89,0.92-3.32,2.28-4.3,3.74c-0.02,0-0.04,0.01-0.05,0.01
				C307.29,680.43,307.5,684.71,307.97,687.09z M387.16,671.14c0.58,0.2,1.31,0.45,2.35,0.62c0.22,0.04,0.44,0.07,0.68,0.11
				c0.51,0.07,1,0.13,1.44,0.18c0.37,0.04,0.71,0.08,1,0.12c0.17,0.02,0.31,0.05,0.42,0.07c0.19,0.04,0.54,0.17,0.82,0.28
				c0.48,0.19,1.22-1.66,2.05-1.46c0.42,0.1,0.88,0.18,1.43,0.26c0.4,0.06,0.8,0.1,1.14,0.14c0.27,0.03,0.53,0.06,0.73,0.09
				c0.18,0.03,0.24,0.04,0.24,0.04c0.5,0.13,0.99,0.25,1.47,0.37c0.58,0.14,1.13,0.27,1.56,0.41c0.25,0.08,0.54,0.23,0.85,0.38
				c0.38,0.2,0.81,0.42,1.4,0.63c0.18,0.07,0.37,0.13,0.55,0.2c0.7,0.25,1.37,0.49,1.96,0.73c0.42,0.17,0.85,0.33,1.26,0.48
				c0.47,0.17,0.9,0.32,1.21,0.47l0.28,0.13c0.64,0.31,1.25,0.61,1.78,0.91c0.07,0.05,0.13,0.21,0.17,0.31
				c0.1,0.26,0.23,0.57,0.71,0.9c0.39,0.26,0.86,0.47,1.27,0.66c0.32,0.14,0.63,0.28,0.75,0.39c0.12,0.09,0.17,0.25,0.22,0.43
				c0.07,0.23,0.16,0.48,0.42,0.76c0.11,0.11,0.23,0.22,0.35,0.33c-11.63-1.36-30.05-2.96-47.32-2.48
				c-18-0.84-36.72-0.55-47.83-0.17c0.2-0.17,0.41-0.34,0.64-0.51l0.17-0.13c0.47-0.37,0.41-0.73,0.37-1.03
				c-0.01-0.09-0.03-0.21-0.02-0.27c0.47-0.3,1.05-0.6,1.61-0.9l0.09-0.05c0.16-0.03,0.47-0.08,0.69-0.11
				c0.82-0.12,1.96-0.29,2.73-0.64c0.59-0.27,0.89-0.55,1.13-0.78c0.11-0.11,0.28-0.27,0.39-0.31c0.42-0.16,0.78-0.32,1.13-0.48
				c0.38-0.17,0.75-0.34,1.11-0.46c0.13-0.04,0.65-0.12,0.99-0.17c0.69-0.1,1.54-0.22,2.29-0.43c0.77-0.21,1.27-0.47,1.67-0.67
				c0.18-0.09,0.44-0.22,0.59-0.27c0.18-0.02,0.59-0.04,0.87-0.06c0.85-0.05,1.91-0.1,2.9-0.29c0.95-0.19,1.56-0.44,2.06-0.65
				c0.19-0.08,0.47-0.19,0.6-0.23c1.33-0.22,2.39-0.38,3.34-0.5c0.71-0.09,1.34-0.22,1.9-0.32c0.44-0.08,0.85-0.16,1.21-0.21
				c0.19,0.01,0.49,0.04,0.71,0.06c0.95,0.09,2.27,0.21,3.64,0.1c0.56-0.05,0.95,1.98,1.46,1.94c0.69-0.07,1.35-0.13,1.97-0.16
				c0.73-0.04,1.4-0.1,1.99-0.16c0.59-0.06,1.16-0.11,1.62-0.12c1.04-0.03,2.11-0.03,3.25-0.04c0.16,0,0.33,0,0.5,0
				c0.61,0,1.29,0.02,2.01,0.05c0.56,0.02,1.14,0.04,1.75,0.05c0.36,0.01,0.87,0.06,1.41,0.11c0.67,0.07,1.43,0.14,2.29,0.18
				c1.41,0.06,2.55,0.12,3.69,0.2c1.38,0.09,2.6-0.03,3.49-0.11c0.22-0.02,0.52-0.05,0.71-0.06c0.11,0.01,0.24,0.03,0.39,0.05
				c0.29,0.04,0.61,0.09,0.94,0.15c0.4,0.07,0.8,0.13,1.25,0.2c0.27,0.04,0.53,0.07,0.79,0.1c0.3,0.04,0.6,0.07,0.9,0.1
				c0.95,0.11,1.84,0.21,2.69,0.33C386.61,670.95,386.94,671.06,387.16,671.14z"/>
		</g>
	</mask>
	<path class="st61" d="M343.79,663.68l109.58,15.04l-65.16,26.8l-113.98-15.49L343.79,663.68z M274.23,690.04l69.55-26.36
		L274.23,690.04z M343.69,662.41l-74.44,28.21l119.07,16.18l69.74-28.69L343.69,662.41L343.69,662.41z"/>
	<polygon class="st62" points="390.07,641.73 274.67,625.38 274.91,622.92 279.68,613.74 393.86,629.18 395.43,628.02 
		395.79,629.44 	"/>
	<path class="st63" d="M289.77,682.86L320,671.4l2.03-1.04c1.86-0.89,3.61-1.58,5.37-2.12c0.38-0.12,0.77-0.23,1.14-0.34l2.22-0.59
		l4.45-1.71l8.49-3.2l11.44,0.99c3.68-0.22,7.8-0.3,12.23-0.25c4.78,0.05,9.63,0.31,14.41,0.76c2.73,0.26,5.49,0.58,8.18,0.97
		c7.2,1.03,13.69,2.48,19.3,4.33c2.11,0.69,4.71,1.71,6.81,2.66l30.92,4.31l3.43,5.06l-3.16,0.53l-17.75,6.77l-0.11-0.02
		c-0.4-1.03-1.67-3.88-2.67-4.6c0,0-0.05-0.02-0.19-0.03c-0.49-0.05-1.62-0.01-3.34,0.12l-2.04,0.23c-0.29,0.11-0.7,0.3-1.1,0.48
		c-0.87,0.4-1.41,0.64-1.68,0.66c-15.06,1.36-48.73,4.74-49.07,4.77l-0.03,0l-50.96-5.44l-5.16-0.56l-0.06-0.03
		c-0.01,0-0.73-0.44-1.48-0.51c-0.35-0.03-0.65,0.02-0.88,0.16c-0.56,0.38-2,5.91-3,10.81l-7.95-1.1l-8.05-10.03L289.77,682.86z"/>
	<polygon class="st62" points="394.22,628.47 391.18,643.94 444.12,682.19 447.48,682.27 456.89,678.62 	"/>
	<polygon class="st57" points="395.47,628.03 392.44,643.5 446.17,682.85 458.14,678.18 	"/>
	<polygon class="st64" points="389.71,640.3 273.63,624.18 279.32,612.31 395.43,628.02 	"/>
	<path class="st65" d="M326.03,619.07c-0.24,3.97,2.12,7.74,5.29,8.04c3.18,0.3,5.94-2.67,6.18-6.64L326.03,619.07z"/>
	<path class="st66" d="M325.93,620.14c-0.78,1.12-1.19,0.98-1.21,1.82c-0.01,0.32,0.1,1.73,0.18,2.01c0.27,1.03,1.04,1.85,2.65,2.15
		c3.51,0.65,7.31-1.04,9.8-4.35l0.17-1.3L325.93,620.14z"/>
	<path class="st67" d="M326.05,618.82c-2.16,3.09-1.59,5.39,1.61,5.98c3.51,0.65,7.46-1.18,9.95-4.49L326.05,618.82z"/>
</g>
</svg>
