<svg xmlns="http://www.w3.org/2000/svg" viewBox="0 0 266.84 152.05"><defs><style>.cls-1{fill:#3a2e3c;}.cls-2{fill:#4c4152;}.cls-3{fill:#fffef4;}.cls-4{fill:#c0a3ad;}.cls-5{fill:#ee243d;}.cls-6{fill:#272028;}.cls-7{fill:#f9a77e;}.cls-8{fill:#f5855e;}.cls-9{fill:#542720;}.cls-10{fill:#72362a;}.cls-11{fill:#7a6a8f;}.cls-12{fill:#625c6c;}.cls-13{fill:#ddd4e8;}.cls-14{fill:#cebfde;}.cls-15{fill:#9791a8;}.cls-16,.cls-21{fill:#fff;}.cls-17{fill:#9c8aad;}.cls-18{fill:#b4a4c2;}.cls-19{fill:#b4694a;}.cls-20{fill:#e6904b;}.cls-21{stroke:#f5855e;stroke-miterlimit:10;stroke-width:0.61px;}.cls-22{fill:#dd7c5e;}.cls-23{fill:#5d2a0d;}</style>
<style>
  @keyframes left-hand__part01 {
      5% {
          transform: rotate(0);
      }
      15% {
          transform: rotate(4deg);
      }
      25% {
          transform: rotate(1deg);
      }
      35% {
          transform: rotate(3deg);
      }
      45% {
          transform: rotate(2deg);
      }
      55% {
          transform: rotate(2deg);
      }
      65% {
          transform: rotate(3deg);
      }
      75% {
          transform: rotate(1deg);
      }
      85% {
          transform: rotate(4deg);
      }
      95% {
          transform: rotate(0deg);
      }
  }
  @keyframes left-hand__part02 {
      5% {
          transform: rotate(0);
      }
      15% {
          transform: rotate(4deg);
      }
      25% {
          transform: rotate(1deg);
      }
      35% {
          transform: rotate(3deg);
      }
      45% {
          transform: rotate(2deg);
      }
      55% {
          transform: rotate(2deg);
      }
      65% {
          transform: rotate(3deg);
      }
      75% {
          transform: rotate(1deg);
      }
      85% {
          transform: rotate(4deg);
      }
      95% {
          transform: rotate(0deg);
      }
  }
  @keyframes right-hand__part01 {
      0% {
          transform: rotate(0);
      }
      10% {
          transform: rotate(-4deg);
      }
      20% {
          transform: rotate(-1deg);
      }
      30% {
          transform: rotate(-3deg);
      }
      40% {
          transform: rotate(-2deg);
      }
      50% {
          transform: rotate(-2deg);
      }
      60% {
          transform: rotate(-3deg);
      }
      70% {
          transform: rotate(-1deg);
      }
      80% {
          transform: rotate(-4deg);
      }
      90% {
          transform: rotate(0deg);
      }
  }
  @keyframes right-hand__part02 {
      0% {
          transform: rotate(0);
      }
      10% {
          transform: rotate(4deg);
      }
      20% {
          transform: rotate(1deg);
      }
      30% {
          transform: rotate(3deg);
      }
      40% {
          transform: rotate(2deg);
      }
      50% {
          transform: rotate(2deg);
      }
      60% {
          transform: rotate(3deg);
      }
      70% {
          transform: rotate(1deg);
      }
      80% {
          transform: rotate(4deg);
      }
      90% {
          transform: rotate(0deg);
      }
  }
  .left-hand__part01 {
    transform-origin: 132.51px 140.27px;
    animation-name: left-hand__part01;
    animation-duration: 1s;
    animation-iteration-count: infinite;
    animation-timing-function: linear;
  }
  .left-hand__part02 {
    transform-origin: 132.51px 140.27px;
    animation-name: left-hand__part02;
    animation-duration: 1s;
    animation-iteration-count: infinite;
    animation-timing-function: linear;
  }
  .right-hand__part01 {
    transform-origin: 63.94px 131.5px;
    animation-name: right-hand__part01;
    animation-duration: 1s;
    animation-iteration-count: infinite;
    animation-timing-function: linear;
  }
  .right-hand__part02 {
    transform-origin: 92.36px 136.66px;
    animation-name: right-hand__part02;
    animation-duration: 1s;
    animation-iteration-count: infinite;
    animation-timing-function: linear;
  }
</style>
</defs><title>Asset 3</title><g id="Layer_2" data-name="Layer 2"><g id="_6-7" data-name="6-7"><path class="cls-1" d="M171.77,113.26l-29.3,13.06c2.07-8.28-21.56-43.79-28.14-52.74A61.38,61.38,0,0,0,103.5,62.52a71.26,71.26,0,0,0-16.59-7.7c-7.84-2.75-20.22.75-28,5.78a15.51,15.51,0,0,0-6.72,12l.15,77.57h58.5V109.06l20.74,23.2a7.63,7.63,0,0,0,6.17,3.15h35.12Z"/><path class="cls-2" d="M87.07,145.9s-2.68-93-.1-92.65l.47.07c20.38,3.54,21.46,22.73,22,28.78l-4.91,4.33,4.71,4.93C108.34,119.82,87.07,145.9,87.07,145.9Z"/><path class="cls-1" d="M84.47,53.24S73.7,52.62,62,61.16c0,0-5.36,25.79,20.64,75.67-4.45-59.51-17.22-72.55-13-76.49C73.2,57,84.47,53.24,84.47,53.24Z"/><path class="cls-3" d="M69.19,65.39s14.09,57.9,14.38,84.42l8.24-21.45C95,120.51,95.94,112,97.2,105.22c4.81-25.8,1.72-38.13,1.72-38.13S91.76,53.1,69.19,65.39Z"/><ellipse class="cls-2" cx="89.56" cy="141.57" rx="9.57" ry="8.61"/><path class="cls-4" d="M79.09,58.82s-.29,5.55,9.65,8.27H98.92a13.74,13.74,0,0,1-2.74,13.3l-7.33-9.67-5.94,11.9S68.62,78.19,69.43,63.79Z"/><path class="cls-4" d="M90.92,137.2l-.83,4.42a2.09,2.09,0,0,1-2.48,0l-5.47-4.22a1.13,1.13,0,0,1-.48-1L85.3,77.3A1.56,1.56,0,0,1,87,76.07h.46a1.59,1.59,0,0,1,1.73,1.17l2.2,59A1.12,1.12,0,0,1,90.92,137.2Z"/><path class="cls-5" d="M92.81,74.11l-2.2,4.5c-.63,1.3-2.17,1.24-3.08-.11l-3.17-4.7c-.85-1.26-.74-3,.25-3.72l2.49-1.72c.52-.36,1-1.67,1.64-1.27l4.32,2.24C94.2,70.09,93.4,72.9,92.81,74.11Z"/><path class="cls-3" d="M79.42,52.77s-.62,11.59,9.33,14.31l-6.59,12s-13-6.1-13-18.14a4.69,4.69,0,0,1,1-3.23A8.47,8.47,0,0,1,74,55.1Z"/><path class="cls-4" d="M73.59,67.58a12.07,12.07,0,0,1,7.09-13.87l.07,0c-.09-.78-.11-1.43-.12-1.85-.71.11-1.46.24-2.24.39L75,53.7a8.92,8.92,0,0,0-4,2.74C70,57.65,69.55,61,69.51,62.17c-.22,6.4,2.41,11.78,7.49,14.5C76.39,73.78,74.09,69.7,73.59,67.58Z"/><path class="cls-3" d="M88.75,67.09l8,9.59s6.79-9.12-2.52-16.9Z"/><path class="cls-5" d="M91.91,135.79c-.68,1.35-1.55.57-2.15.06l-4.78-12a1.14,1.14,0,0,1-.43-.92L87.3,78.42a1.4,1.4,0,0,1,1.44-1.21h.4a1.4,1.4,0,0,1,1.51,1.12l5.1,35.24S94.49,130.78,91.91,135.79Z"/><path class="cls-6" d="M45.89,146.5v-57l12.53.19v23.13a6,6,0,0,0,4.87,5.93l11.83,2.34,16.23,24.52Z"/><path class="cls-6" d="M82.13,135.9a.15.15,0,0,0,.14.08l4.53-.42S68.2,62.27,67.64,60.82a.15.15,0,0,1,0-.14c3.21-5.35,11.76-7.91,11.76-7.91s-.92.77-6.37,2A20.77,20.77,0,0,0,57.13,79.28a54.89,54.89,0,0,0,2.56,8.45.16.16,0,0,0,.1.09l7.69,2.44a.15.15,0,0,1,.08.23l-4.71,7.18a.15.15,0,0,0,0,.16Z"/><path class="cls-2" d="M87.33,137.89h3.48c-6-32.81-16.4-59.22-19-70.56a11.45,11.45,0,0,1,6.73-13.16c3.34-1.39,6.23-2.36,6.23-2.36A50,50,0,0,0,75.11,53,20.77,20.77,0,0,0,59.2,77.55a55,55,0,0,0,2.58,8.52l8,2.52L64.86,96Z"/><path class="cls-6" d="M110.85,90.17v18.89l12.85,23.21c1.25,1.73,11.06,2.84,13.15,3.09L134,122.91,126,116.54Z"/><path class="cls-1" d="M132,121.41c-6,.23-14.16,7.66-11.14,17.87s23.21,1.16,23.67,1.86-1.16-15.32-1.62-16S138.08,121.17,132,121.41Z"/><path class="cls-6" d="M125.47,124.45c-5.23.2-12.26,6.63-9.65,15.48s20.11,1,20.51,1.61,5.43-4.22-1.41-13.87C134.5,127.07,130.7,124.25,125.47,124.45Z"/><path class="cls-3" d="M135.19,141c-.46,2.29-1.8,3.32-2,3-.4-.6-17.89,7.24-20.51-1.61a13.1,13.1,0,0,1-.46-2.15,11.85,11.85,0,0,1,2.63-9.2h0a10.83,10.83,0,0,1,7.47-4.13c5.23-.2,8.32,1.25,10.15,2.82C138,134.41,135.61,138.88,135.19,141Z"/><path class="cls-7 left-hand__part01" d="M132.51,140.27c0,.24-.07.47-.11.68l-23-.73-1.44,0,.9-3c.63-2.71,1.36-4.9,3.18-6.17h0c1.69-1.17,4.31-1.54,8.65-.79l2.18.36c3.61.58,5.4.86,7.39,2.42S132.77,138.09,132.51,140.27Z"/><path class="cls-8 left-hand__part02" d="M132.51,140.27c-3.78.57-9.34,1-9.51-1.6-.26-3.92,1.39-3.66,3-4.09s1.57-2.7-2.35-3.74a7.14,7.14,0,0,1-.78-.25c3.61.58,5.4.86,7.39,2.42S132.77,138.09,132.51,140.27Z"/><path class="cls-7 right-hand__part01" d="M63.94,131.5l8.88,2.36L86.6,129c.81-.45,1.66-.11,2.56.11,3.85.92,9.47,2.93,14,4.51,2.52.88,5.05,4.58,6.42,4.93a51.13,51.13,0,0,1,6.44,2.09c.11,1-12.91,2.51-13.92,2.61l-9.05-4.53-7,5.75a16.5,16.5,0,0,1-11.19.76l-13.26-3.8Z"/><path class="cls-8 right-hand__part02" d="M92.36,136.66s-6.68,8-11.61,8.23c-3.73.2-13.34-7-17.81-10.58l-.85,3.6,1.15,4.26,11.24,3.22a16.5,16.5,0,0,0,11.19-.76l6.86-4.31,6.09,2.78c.68-.07,6.18-4.46,6.44-5A124.83,124.83,0,0,1,92.36,136.66Z"/><path class="cls-3" d="M78.09,145.61l-10.53-.75,2.35-13.24,4.67.75,1.25.12c3.31,3.31,4.06,12.71.17,13Z"/><path class="cls-1" d="M67,152l4.21-3.34c4.12-2.77,4.12-10,2.1-17.21h0a1.37,1.37,0,0,0-1-1l-23.38-2a1.37,1.37,0,0,1-1.06-1.62L59,89.06a1.36,1.36,0,0,0-.2-1,26.83,26.83,0,0,1-4-17.31c.85-7.07,5.49-10.79,10.22-13l2.44-1.33C61.16,58.24,50.23,62.22,45,68.52c-4.32,5.21-17.48,44.12-21.92,59.36-2.78,9.57-.35,14.27,3.83,16.19C32.54,146.63,67,152,67,152Z"/><path class="cls-6" d="M51.17,126.09l-.1.12c-.07.07-.16.19-.28.31a11.58,11.58,0,0,1-1.07,1,16.49,16.49,0,0,1-1.62,1.17c-.31.2-.63.39-1,.57s-.67.36-1,.53-.7.33-1,.47-.7.28-1,.4a16.29,16.29,0,0,1-1.92.56,11.45,11.45,0,0,1-1.44.23c-.18,0-.32,0-.42,0H40.1l.1-.12c.07-.07.16-.19.28-.31a11.42,11.42,0,0,1,1.07-1,16.31,16.31,0,0,1,1.62-1.17c.31-.19.63-.39,1-.57s.67-.36,1-.53.7-.33,1-.47.7-.28,1-.4a16.51,16.51,0,0,1,1.92-.56,11.56,11.56,0,0,1,1.44-.23c.18,0,.32,0,.42,0Z"/><path class="cls-9" d="M98.71,5.56s12.94,4.07,8.81,23.19L87.21,27.22,82.93,12S95.85,12.89,98.71,5.56Z"/><path class="cls-8" d="M111.31,36.12c2,9.19-4.81,18.44-15.16,20.67l-.38.08C85.43,59.1,74.42,48.51,73.46,44.26L70.58,30.86c-2-9.19,4.81-18.44,15.16-20.67l.38-.08c10.35-2.23,20.34,3.42,22.32,12.61Z"/><path class="cls-8" d="M79.54,46.24,78,58.35c-.58,4.5,3.69,10,10.75,8.74,4.89-.88,5.36-6.28,5.36-6.28s1.52-10.53,2-14.57c.58-4.5-4.21-8.3-8.3-8.3A8.33,8.33,0,0,0,82,40.37c-1.71,1.71-2.14,3.57-2.43,5.87Z"/><path class="cls-7" d="M111,34.74c1.89,8.77-1.7,15.64-10.11,18.13-10.11,3-20.08-2.47-22-11.23L76.19,28.85A16.24,16.24,0,0,1,88.65,9.56L89,9.49c8.89-1.75,17.13.13,19.29,12.46Z"/><path class="cls-10" d="M104.62,2.71A20.06,20.06,0,0,1,89.83,12C76.67,13.71,80,26.51,81,34.2a13.44,13.44,0,0,1,.13,2c0,4.9-3.23,5.86-3.23,5.86a14.57,14.57,0,0,1,.71,2.7,30.28,30.28,0,0,1,.17,7.55s-2.23-2.69-8.07-8.82C64.57,37,63.3,28.44,67.48,22,67.79,7,78.79,0,94.41,2.71c2.37.41,4.83,1.08,6.88-.18A15.6,15.6,0,0,0,104.45.06a12.06,12.06,0,0,0,.13,2.66Z"/><path class="cls-9" d="M77.94,42a14.57,14.57,0,0,1,.71,2.7c-2.45.65-5.46-.87-7.16-3.79-2-3.36-1.46-7.29,1.11-8.8s6.25,0,8.21,3.35c.13.22.25.45.35.67C81.13,41.07,77.94,42,77.94,42Z"/><ellipse class="cls-7" cx="76.64" cy="36.19" rx="4.43" ry="7.03" transform="translate(-8.11 36.86) rotate(-25.73)"/><path class="cls-7" d="M79.54,46.38,78,58.48c-.58,4.5,3.69,10,10.75,8.74l-9.2-20.84Z"/><path class="cls-9" d="M81.15,35.3s-4.73-12.92,1.78-21.79C89.79,4.15,103.26,8.33,104.51,0c0,0,8.23,6.07,2.89,16.07,0,0-2.78-6.45-8.69-5.66S76.81,11.47,81.15,35.3Z"/><rect class="cls-11" x="103.91" y="136.48" width="99.3" height="9.22" rx="4.56" ry="4.56"/><path class="cls-12" d="M103.91,141.09v0a4.56,4.56,0,0,0,4.56,4.56h90.17a4.56,4.56,0,0,0,4.56-4.56v0Z"/><rect class="cls-13" x="93.7" y="136.48" width="45.75" height="9.22" rx="4.56" ry="4.56"/><path class="cls-14" d="M135.53,140.74h-39a.35.35,0,0,0,0,.7h39a.35.35,0,0,0,0-.7Z"/><path class="cls-13" d="M213.18,74H152.54a2.67,2.67,0,0,0-2.6,2.08l-13,57.19a2.67,2.67,0,0,0,2.6,3.26h60.64a2.67,2.67,0,0,0,2.6-2.08l13-57.19A2.67,2.67,0,0,0,213.18,74Z"/><path class="cls-15" d="M215.75,74H155.11a2.67,2.67,0,0,0-2.6,2.08l-13,57.19a2.67,2.67,0,0,0,2.6,3.26h60.64a2.67,2.67,0,0,0,2.6-2.08l13-57.19A2.67,2.67,0,0,0,215.75,74Z"/><path class="cls-16" d="M188,108.45a7.31,7.31,0,0,1-7,6,5,5,0,0,1-5.09-6,7.31,7.31,0,0,1,7-6A5,5,0,0,1,188,108.45Z"/><path class="cls-17" d="M130.92,141.09a.92.92,0,0,1-.92.92h-6a.92.92,0,0,1-.92-.92h0a.92.92,0,0,1,.92-.92h6a.92.92,0,0,1,.92.92Z"/><path class="cls-16" d="M128.87,141.09a.92.92,0,0,1-.92.92h-6a.92.92,0,0,1-.92-.92h0a.92.92,0,0,1,.92-.92h6a.92.92,0,0,1,.92.92Z"/><path class="cls-17" d="M117.69,141.09a.92.92,0,0,1-.92.92h-6a.92.92,0,0,1-.92-.92h0a.92.92,0,0,1,.92-.92h6a.92.92,0,0,1,.92.92Z"/><path class="cls-18" d="M115.64,141.09a.92.92,0,0,1-.92.92h-6a.92.92,0,0,1-.92-.92h0a.92.92,0,0,1,.92-.92h6a.92.92,0,0,1,.92.92Z"/><rect class="cls-19" y="145.19" width="266.84" height="6.87"/><rect class="cls-20" x="62.58" y="145.19" width="204.26" height="6.87"/><path class="cls-21" d="M104.49,40.8c.56,2.33-1.19,4.75-3.91,5.41s-5.39-.69-6-3C94.41,42.34,104.28,39.95,104.49,40.8Z"/><path class="cls-8" d="M99.91,39.55a4.27,4.27,0,0,0,3.86-3.25c.48-2.14-.91-3.87-2.74-4.77-.7-.34-1.32.71-.62,1.06,1.33.65,2.5,1.78,2.18,3.39a3,3,0,0,1-2.68,2.35c-.77.08-.78,1.3,0,1.22Z"/><path class="cls-10" d="M87.57,24.5a7.17,7.17,0,0,1,6.83-.88c.75.26,1.07-.92.33-1.18a8.34,8.34,0,0,0-7.78,1c-.64.45,0,1.51.62,1.06Z"/><path class="cls-10" d="M101.21,22.33a3.63,3.63,0,0,1,4.45-.19c.66.44,1.27-.62.62-1.06a4.81,4.81,0,0,0-5.68.19c-.64.45,0,1.51.62,1.06Z"/><path class="cls-10" d="M100.9,22.41a.61.61,0,0,0,0-1.22.61.61,0,0,0,0,1.22Z"/><circle class="cls-16" cx="92.25" cy="29.89" r="2.57" transform="matrix(1, -0.06, 0.06, 1, -1.74, 6.04)"/><path class="cls-22" d="M89.68,30.08a2.63,2.63,0,0,1,5-1.36c.23.36.8,0,.57-.33A3.29,3.29,0,0,0,89,30.08c0,.43.63.42.66,0Z"/><path class="cls-23" d="M92.74,27.57a1.59,1.59,0,0,0-.76.26.52.52,0,1,1-.65.81,1.6,1.6,0,1,0,1.41-1.07Z"/><circle class="cls-16" cx="103.53" cy="27.56" r="2.57" transform="translate(-1.57 6.77) rotate(-3.72)"/><path class="cls-22" d="M101,27.74a2.63,2.63,0,0,1,5-1.36c.23.36.8,0,.57-.33a3.29,3.29,0,0,0-6.19,1.7c0,.43.63.42.66,0Z"/><path class="cls-23" d="M104,25.23a1.59,1.59,0,0,0-.76.26.52.52,0,1,1-.65.81A1.6,1.6,0,1,0,104,25.23Z"/><path class="cls-9" d="M84.53,14.13c2.26-3.48,1.22-4.53,5.4-6.09s9.4-4.35,10.1-6.44a4.61,4.61,0,0,1,1.57,3.48,2.94,2.94,0,0,1-2.26,2.78s-9.57,1.91-11.14,3.48A20.75,20.75,0,0,1,84.53,14.13Z"/><path class="cls-9" d="M82.27,17.38c1.51-3,4-3.54,6-4.58s4.76.58,8.59-.35,3.48-2.26,4.87-1.74,2.26-2.26,1.8-3.19-3.95-1.74-3.95-1.74S95.9,7,94.92,7.4,89.06,9.49,87,11.17,82.27,17.38,82.27,17.38Z"/></g></g></svg>